<svg xmlns="http://www.w3.org/2000/svg" width="374.921" height="436.492" viewBox="0 0 374.921 436.492"><defs><style>.a{fill:#8655ff;}.b{opacity:0.5;}.c{fill:#fff;}.d{opacity:0.35;}.e{fill:#371a45;}.f{fill:#220f2d;}.g{fill:#4097ff;}.h{fill:#ffda22;}.i{opacity:0.7;}</style></defs><g transform="translate(0 0)"><g transform="translate(2.727 49.135)"><path class="a" d="M1124.978,1309.933c-94.033,71.939-227.448,36.219-272.56-28.5-27.8-39.888-25.83-93-1.954-118.992,26.561-28.927,75.428-46.461,119.7-71.128a64.927,64.927,0,0,0,7.019-4.606c39.928-29.585,109.181-130.458,160.016-121.112,13.347,2.446,25.417,12.49,35.361,33.407C1216.026,1090.441,1218.725,1238.207,1124.978,1309.933Z" transform="translate(-832.061 -964.985)"/></g><g class="b" transform="translate(3.343 48.259)"><path class="c" d="M1199,1185.649c4.332-27.753-63.856,91.344-129.5,91.344,108.569-32.1,121.2-179.865,116.558-221.007-2.815-24.945-8.717-40.675-12.707-49.071-50.15-105.512-154.539,65.651-202.4,92.311-44.268,24.66-93.415,39.187-119.976,68.114-7.152,7.79-12.064,21.027-15.075,32.6,1.868-17.036,7.983-32.284,17.787-42.958,26.561-28.927,75.428-46.461,119.7-71.128,47.85-26.661,152.246-197.823,202.4-92.312C1201.253,1047.116,1212.726,1120.025,1199,1185.649Z" transform="translate(-835.903 -959.522)"/></g><g transform="translate(2.725 141.836)"><path class="a" d="M1124.968,1795.624c-94.032,71.943-227.448,36.22-272.561-28.5-21.494-30.832-25.189-69.569-14.739-97.576a.076.076,0,0,1,.147.011c3.929,24.092,20.153,81.906,86.189,100.731,97.2,27.717,180.743-6.221,222-55.317,41.586-49.49,46.47-137.4,46.719-171.522a.077.077,0,0,1,.152-.012C1213.419,1630.721,1200.486,1737.843,1124.968,1795.624Z" transform="translate(-832.05 -1543.379)"/></g><g transform="translate(2.731 154.267)"><g class="d"><path class="e" d="M847.222,1824.008c.288.426.567.855.861,1.278,45.113,64.72,178.53,100.443,272.561,28.5,70.025-53.578,86.232-149.578,71.841-232.847-1.4,39.719-9.211,114.845-46.451,159.164-41.256,49.1-124.8,83.034-222,55.317-35.808-10.208-56.965-31.881-69.462-53.425A135.707,135.707,0,0,1,836,1739.75c-7.79,25.954-4.234,59.5,13.217,87.591C848.534,1826.237,847.865,1825.127,847.222,1824.008Z" transform="translate(-832.087 -1620.939)"/></g></g><g transform="translate(0 139.177)"><path class="e" d="M990.706,1824.1a224.341,224.341,0,0,1-34.524-2.7c-51.031-7.947-97.1-33.5-120.235-66.688-20.723-29.726-26.629-68.988-15.049-100.026a2.735,2.735,0,0,1,5.262.512c3.835,23.515,19.725,80.2,84.294,98.6,96.663,27.563,179.762-7.5,219.235-54.471,40.84-48.6,45.841-134.959,46.1-169.831a2.736,2.736,0,0,1,5.4-.591c10.945,46.5,11.682,95.631,2.073,138.337-11.071,49.207-35.607,89.511-70.954,116.557h0C1077.734,1810.253,1035.472,1824.1,990.706,1824.1ZM822.942,1666.165c-6.691,27.653-.291,60.176,17.367,85.507,22.332,32.038,67.046,56.744,116.692,64.475,55.873,8.7,109.88-4.284,152.073-36.565h0c71.386-54.62,83.362-151.9,71.288-227.352-2.4,42.072-11.921,109.25-46.6,150.523-22,26.179-54.427,46.53-91.31,57.3-41.832,12.22-87.979,11.826-133.454-1.142C849.539,1741.964,829.585,1694.089,822.942,1666.165Zm287.747,115.527h0Zm65.318-251.575,0,.019Z" transform="translate(-815.045 -1526.787)"/></g><g transform="translate(5.708 46.463)"><path class="e" d="M1009.047,1283.18a255.984,255.984,0,0,1-70.146-10.025c-67.67-19.291-84.175-78.561-88.131-103.148l-.112-.7.251-.663a67.537,67.537,0,0,1,13.21-22.008c19.052-20.74,49.015-35.554,80.738-51.237,13.081-6.467,26.608-13.155,39.629-20.409,13-7.242,31.086-26.28,50.233-46.436,38.089-40.1,81.261-85.54,117.68-79.739,15.455,2.462,28.3,14.252,38.182,35.04a296.514,296.514,0,0,1,20.359,58.649l.074.311v.319c-.2,35.574-5.226,123.729-47.347,173.856h0c-22,26.179-54.427,46.53-91.31,57.3A225.6,225.6,0,0,1,1009.047,1283.18ZM856.135,1169.864c3.993,23.989,20.123,79.9,84.224,98.177,96.663,27.563,179.762-7.5,219.235-54.471h0c40.88-48.651,45.869-134.942,46.1-170.146a290.994,290.994,0,0,0-19.914-57.285c-9.212-19.38-20.4-29.87-34.217-32.072-33.656-5.357-77.643,40.943-112.988,78.15-20.278,21.347-37.791,39.782-51.5,47.419-13.135,7.317-26.721,14.034-39.86,20.53-31.265,15.458-60.8,30.057-79.178,50.067A61.9,61.9,0,0,0,856.135,1169.864Zm305.494,45.417h0Z" transform="translate(-850.658 -948.313)"/></g><g transform="translate(24.259 233.803)"><path class="c" d="M1058.547,2117.191s-40.037,0-60.063,45.868a94.588,94.588,0,0,0-7.2,44.64s-29.8,10.211-24.174,31.481c4,15.12,26.872,21.946,56.307,6.569,19.231-10.047,19.5-28.419,21.5-36.4,4.823-19.2,17.2-34.7,48.317-36.158" transform="translate(-966.406 -2117.191)"/></g><g class="d" transform="translate(24.553 233.801)"><path class="e" d="M1094.782,2173.183c-31.121,1.456-43.5,16.963-48.323,36.158-2,7.983-2.266,26.355-21.5,36.4-29.439,15.381-52.311,8.554-56.312-6.567-.173-.645-.306-1.277-.412-1.9,9.944,6.241,27.345,6.367,47.964-4.407,19.229-10.044,19.495-28.416,21.5-36.4,4.819-19.2,17.2-34.7,48.316-36.159l-26.7-43.1c.5-.02.764-.02.764-.02Z" transform="translate(-968.24 -2117.183)"/></g><g transform="translate(61.969 261.93)"><path class="e" d="M1251.585,2340.028a2.659,2.659,0,0,1-2.52-1.812c-10.011-29.755-36.521-39.251-45.019-40.232a2.659,2.659,0,1,1,.61-5.282c9.367,1.082,38.559,11.452,49.449,43.819a2.66,2.66,0,0,1-2.52,3.507Z" transform="translate(-1201.692 -2292.684)"/></g><g transform="translate(21.613 231.144)"><path class="e" d="M978.461,2243.184a36.637,36.637,0,0,1-14.842-2.882c-6.671-2.941-11.268-8.045-12.942-14.37-4.674-17.656,12.608-29.469,23.915-33.949a97.6,97.6,0,0,1,7.589-43.916c10.68-24.463,27.033-36.064,38.87-41.488,12.892-5.908,23.2-5.975,23.63-5.975a2.658,2.658,0,0,1,0,5.317h0c-.1,0-9.772.1-21.652,5.6-15.88,7.352-27.985,20.364-35.98,38.674a92.77,92.77,0,0,0-6.994,43.252l.261,2.138-2.038.7c-.272.094-27.393,9.674-22.466,28.287,1.27,4.8,4.71,8.556,9.947,10.865,10.727,4.73,26.238,2.553,42.559-5.974,15.182-7.931,17.635-21.373,19.258-30.267.307-1.682.572-3.134.9-4.421,6.121-24.371,22.728-36.856,50.772-38.167a2.659,2.659,0,0,1,.248,5.312c-25.74,1.2-40.313,12.055-45.863,34.15-.281,1.118-.531,2.49-.821,4.08-1.7,9.31-4.543,24.891-22.027,34.026C999.39,2240.13,988.225,2243.183,978.461,2243.184Z" transform="translate(-949.894 -2100.604)"/></g><g class="d" transform="translate(91.515 49.135)"><path class="e" d="M1609.207,1083.316a100.159,100.159,0,0,1-23.43,25.537c5.816,62.573-25.132,157.085-137.862,131.042-44.873-10.369-79.137-69.6-52.55-95.941,18.9-18.711,42.553-27.4,63.7-37.594.3-.146.6-.293.9-.439-.778-.645-1.542-1.309-2.293-1.981a99.836,99.836,0,0,1-15.294-17.235c39.927-29.585,109.181-130.458,160.016-121.112A100.432,100.432,0,0,1,1609.207,1083.316Z" transform="translate(-1386.042 -964.985)"/></g><g transform="translate(84.869 142.057)"><path class="c" d="M1406.443,1726.749c-44.873-10.369-79.137-69.6-52.55-95.941,18.9-18.711,42.553-27.4,63.7-37.594,15.866-7.651,30.323-16.145,40.293-30.363,20.512-29.266,73.3-20.844,82.188,9.658a118.328,118.328,0,0,1,3.656,17.926C1551.822,1652.79,1522.39,1753.536,1406.443,1726.749Z" transform="translate(-1344.569 -1544.761)"/></g><g class="d" transform="translate(84.869 203.665)"><path class="e" d="M1406.447,2049.531c-38.9-8.993-69.832-54.71-60.048-83.876,5.232,26.348,30.977,60.7,61.22,67.688,94.611,21.855,131.3-46.365,137.315-104.192C1546.449,1991.158,1512.936,2074.131,1406.447,2049.531Z" transform="translate(-1344.574 -1929.15)"/></g><g transform="translate(82.202 139.373)"><path class="e" d="M1428.653,1719.766a163.844,163.844,0,0,1-36.784-4.494c-14.022-3.24-27.566-11.091-39.165-22.7-10.852-10.866-18.861-24-22.549-36.983-4.7-16.56-1.9-31.024,7.9-40.729,15.849-15.7,34.692-24.359,52.915-32.733,19.971-9.178,38.834-17.846,50.764-34.863,10.33-14.735,29.416-21.791,49.81-18.417,18.6,3.079,32.821,14.137,37.108,28.86,5.567,19.115,6.565,43.3,2.74,66.343-3.136,18.894-11.01,45.792-30.71,66.634a90.19,90.19,0,0,1-43.625,25.655A113.17,113.17,0,0,1,1428.653,1719.766Zm53.125-186.4c-12.706,0-26.9,4.4-35.7,16.947-12.756,18.2-32.254,27.157-52.9,36.643-17.8,8.181-36.211,16.641-51.392,31.68-8.358,8.279-10.674,20.886-6.523,35.5,6.28,22.106,28.671,49.231,57.8,55.96,44.626,10.309,79.532,2.551,103.746-23.065,33.725-35.68,35.933-96.235,26.729-127.838-3.71-12.741-16.306-22.359-32.871-25.1A54.716,54.716,0,0,0,1481.778,1533.364Z" transform="translate(-1327.929 -1528.011)"/></g><g transform="translate(178.281 235.543)"><path class="c" d="M1934.471,2152.7c12.132,22.22,55.929,32.434,74.343,30.914,20.09-1.657,14.521-21.652,14.521-21.652s-24.107,3.43-71.559-25.932C1928.9,2121.873,1919.915,2126.038,1934.471,2152.7Z" transform="translate(-1927.404 -2128.052)"/></g><g class="d" transform="translate(182.987 255.656)"><path class="e" d="M2033.469,2288.99c-18.412,1.522-62.214-8.694-74.345-30.914-.871-1.589-1.655-3.1-2.36-4.533,15.347,18.851,54.045,27.471,71.061,26.062,10.549-.871,14.018-6.793,14.942-12.224a29.484,29.484,0,0,0,5.225-.039S2053.556,2287.335,2033.469,2288.99Z" transform="translate(-1956.765 -2253.543)"/></g><g transform="translate(175.604 232.89)"><path class="e" d="M1990.792,2172.521c-21.44,0-60.977-11.014-72.681-32.451-7.731-14.159-9.361-22.621-5.131-26.627,4.2-3.976,12.758-1.875,26.169,6.422,45.792,28.335,69.563,25.59,69.8,25.558l2.29-.3.633,2.224c.117.419,2.8,10.35-2.334,17.721-2.989,4.292-7.878,6.746-14.53,7.295C1993.7,2172.468,1992.29,2172.521,1990.792,2172.521Zm-72.263-55.726a2.768,2.768,0,0,0-1.893.509c-1.2,1.135-1.254,6.672,6.142,20.218,11.312,20.72,53.5,31.056,71.79,29.539,5-.412,8.564-2.106,10.6-5.034,2.51-3.6,2.329-8.46,1.959-11.182-7.462.121-31.151-1.935-70.781-26.457C1926.765,2118.456,1921.248,2116.8,1918.529,2116.8Z" transform="translate(-1910.701 -2111.496)"/></g><g transform="translate(115.872 0)"><g class="d" transform="translate(42.016 142.057)"><path class="e" d="M1926.3,1590.435a100.664,100.664,0,0,1-70.776,23.537c-1.921-.113-3.835-.286-5.75-.5a100.579,100.579,0,0,1-42.433-15.2c-1.516-.977-3-1.981-4.433-3.018-.931-.665-1.848-1.349-2.745-2.041,15.866-7.651,30.323-16.145,40.293-30.363,20.512-29.266,73.3-20.844,82.188,9.658A118.342,118.342,0,0,1,1926.3,1590.435Z" transform="translate(-1800.167 -1544.761)"/></g><g transform="translate(2.641 2.392)"><path class="c" d="M1561.829,808.048a99.811,99.811,0,0,0,27.937,42.121,101.271,101.271,0,0,0,8.423,6.751c1.434,1.035,2.917,2.035,4.428,3.014a100.45,100.45,0,0,0,14.109,7.533,99.759,99.759,0,0,0,28.324,7.666q2.875.328,5.75.5a100.418,100.418,0,0,0,31.754-197.278c-1.142-.314-2.3-.6-3.459-.853q-4.647-1.064-9.335-1.674a100.934,100.934,0,0,0-42.776,3.7q-3.272,1.014-6.479,2.252a100.408,100.408,0,0,0-58.675,126.261Z" transform="translate(-1556.065 -674.734)"/><path class="e" d="M1655.088,874.678q-2.932,0-5.879-.172c-1.922-.117-3.862-.286-5.764-.5a100.827,100.827,0,0,1-42.548-15.24c-1.661-1.076-3.112-2.065-4.44-3.022a102.218,102.218,0,0,1-8.444-6.769,100.654,100.654,0,0,1,30.819-168.831c2.1-.813,4.284-1.573,6.5-2.258a101.216,101.216,0,0,1,42.89-3.715c3.118.405,6.267.97,9.36,1.678,1.219.271,2.386.558,3.469.857a100.68,100.68,0,0,1-25.961,197.975Zm-94.581-68.113a99.891,99.891,0,0,0,27.863,42.008,101.4,101.4,0,0,0,8.4,6.734c1.32.954,2.766,1.937,4.417,3.007a100.529,100.529,0,0,0,14.07,7.512,99.492,99.492,0,0,0,28.249,7.646c1.892.216,3.822.384,5.734.5a100.15,100.15,0,0,0,31.668-196.753c-1.077-.3-2.236-.582-3.448-.85-3.078-.7-6.211-1.267-9.312-1.67a100.674,100.674,0,0,0-42.663,3.695c-2.2.682-4.375,1.438-6.462,2.246a100.141,100.141,0,0,0-58.519,125.925Z" transform="translate(-1554.49 -673.338)"/></g><g transform="translate(2.665 21.128)"><path class="e" d="M1571.775,927.882c51.214,50.249,134.96,34.57,150.844-34.694,10.807-47.124-26.989-94.088-72.913-101.569-33.424-5.445-68.438,3.861-91.07,53.427,0,0-6.63,23.489-2.813,40.506a229.567,229.567,0,0,0,10.4,32.924Z" transform="translate(-1554.638 -790.242)"/></g><g class="d" transform="translate(3.099 68.209)"><path class="e" d="M1742.124,1172.982a100.336,100.336,0,0,1-90.5,46.092q-2.874-.17-5.745-.5a100.578,100.578,0,0,1-42.438-15.2c-1.507-.984-2.989-1.981-4.427-3.013a102.591,102.591,0,0,1-8.421-6.756,99.775,99.775,0,0,1-27.939-42.122,100.984,100.984,0,0,1-5.3-27.047,100.181,100.181,0,0,0,35.58,46.695c1.432,1.034,2.914,2.03,4.427,3.013a100.1,100.1,0,0,0,42.432,15.2q2.88.328,5.752.5a100.425,100.425,0,0,0,106.2-105.851A100.213,100.213,0,0,1,1742.124,1172.982Z" transform="translate(-1557.349 -1083.992)"/></g><g transform="translate(0.847 0.598)"><path class="e" d="M1645.687,867.071q-2.985,0-5.984-.174c-1.958-.119-3.929-.291-5.862-.511a102.626,102.626,0,0,1-43.312-15.511c-1.694-1.1-3.17-2.1-4.522-3.079a103.9,103.9,0,0,1-8.589-6.885,102.224,102.224,0,0,1-28.515-42.99h0a102.436,102.436,0,0,1,59.879-128.851c2.138-.828,4.362-1.6,6.615-2.3a103.009,103.009,0,0,1,43.652-3.78c3.175.413,6.381.988,9.53,1.709,1.236.274,2.433.569,3.545.875a102.473,102.473,0,0,1-26.437,201.5ZM1552.8,796.584a98.1,98.1,0,0,0,27.361,41.252,100,100,0,0,0,8.25,6.614c1.3.939,2.722,1.906,4.348,2.96a98.121,98.121,0,0,0,41.553,14.881c1.854.211,3.752.377,5.634.492a98.356,98.356,0,0,0,31.1-193.228c-1.065-.293-2.195-.572-3.377-.834-3.035-.694-6.11-1.246-9.155-1.642a98.887,98.887,0,0,0-41.9,3.629c-2.163.67-4.3,1.412-6.346,2.206a98.348,98.348,0,0,0-57.47,123.671Z" transform="translate(-1543.295 -662.144)"/></g><g transform="translate(0.248)"><path class="e" d="M1642.553,864.538q-3,0-6.018-.175c-1.97-.121-3.951-.294-5.9-.514a103.217,103.217,0,0,1-43.567-15.6c-1.705-1.105-3.189-2.116-4.55-3.1a104.686,104.686,0,0,1-8.637-6.923,102.828,102.828,0,0,1-28.682-43.242h0a103.037,103.037,0,0,1,60.228-129.6c2.15-.833,4.389-1.611,6.654-2.313a103.606,103.606,0,0,1,43.906-3.8c3.194.416,6.419.994,9.586,1.719,1.241.275,2.448.573,3.57.882a103.071,103.071,0,0,1-26.6,202.671Zm-92.319-71.28a97.5,97.5,0,0,0,27.194,41,99.216,99.216,0,0,0,8.2,6.573c1.294.934,2.707,1.9,4.324,2.944a98.121,98.121,0,0,0,13.724,7.326,97.136,97.136,0,0,0,27.574,7.464c1.842.21,3.729.374,5.6.488A97.759,97.759,0,0,0,1667.763,667c-1.061-.292-2.181-.568-3.353-.828-3.021-.691-6.077-1.24-9.1-1.633a98.289,98.289,0,0,0-41.645,3.607c-2.15.667-4.272,1.4-6.308,2.193a97.749,97.749,0,0,0-57.12,122.92Z" transform="translate(-1539.563 -658.415)"/></g><g transform="translate(18.677 81.656)"><path class="f" d="M1806.511,1210.312c-15.883,69.264-99.63,84.941-150.843,34.7l-1.123-1.908c61.915,22.084,131.915-5.474,149.278-75.207A75.631,75.631,0,0,1,1806.511,1210.312Z" transform="translate(-1654.545 -1167.894)"/></g><g transform="translate(0.73 8.558)"><path class="e" d="M1631.655,903.938a108.382,108.382,0,0,1-27.059-3.453l-.325-.112a102.993,102.993,0,0,1-14.415-7.7c-1.7-1.1-3.174-2.106-4.528-3.083a104.018,104.018,0,0,1-8.6-6.892,102.34,102.34,0,0,1-28.547-43.039h0A102.593,102.593,0,0,1,1598.5,714.975l.2-.1.218-.059c12.747-3.445,26.962-3.93,42.253-1.438,27.229,4.436,53.121,21.417,69.262,45.425,14.827,22.052,19.964,47.4,14.464,71.378-5.981,26.068-20.513,46.763-42.024,59.845A98.6,98.6,0,0,1,1631.655,903.938Zm-25.8-7.626c26.073,6.681,53.314,3.036,74.764-10.01,20.484-12.458,34.33-32.2,40.043-57.1,5.227-22.791.315-46.932-13.833-67.975-15.482-23.028-40.286-39.311-66.349-43.556-14.585-2.377-28.108-1.945-40.2,1.285A98.24,98.24,0,0,0,1552.3,838.251h0a97.979,97.979,0,0,0,27.329,41.2,99.687,99.687,0,0,0,8.241,6.606c1.3.938,2.718,1.9,4.343,2.957A98.7,98.7,0,0,0,1605.851,896.311Z" transform="translate(-1542.568 -711.809)"/></g><g transform="translate(0 18.464)"><path class="e" d="M1627.661,946.049c-25.795,0-51.734-10.633-71.708-30.231l-.25-.245-5.9-10.043a229.759,229.759,0,0,1-10.539-33.359c-3.919-17.473,2.571-40.825,2.849-41.81l.14-.382c19.81-43.384,51.408-61.872,93.916-54.946,24.417,3.977,47.634,19.2,62.1,40.721,13.3,19.786,17.911,42.539,12.974,64.067-7.128,31.082-28.24,53.891-57.921,62.578A91.283,91.283,0,0,1,1627.661,946.049Zm-67.736-33.783c25.281,24.641,60.468,34.234,91.91,25.029,27.78-8.131,47.546-29.513,54.232-58.664,4.6-20.081.271-41.358-12.2-59.911-13.665-20.324-35.551-34.693-58.545-38.439-39.786-6.479-69.439,10.917-88.135,51.713-.6,2.232-6.173,23.647-2.727,39.014a228.806,228.806,0,0,0,10.2,32.321Z" transform="translate(-1538.013 -773.616)"/></g><g transform="translate(157.795 86.01)"><ellipse class="c" cx="35.9" cy="26.086" rx="35.9" ry="26.086" transform="translate(0 70.915) rotate(-80.992)"/><path class="e" d="M2563.6,1279.192q-.633,0-1.269-.037c-6.31-.367-12.021-3.361-16.517-8.656-6.578-7.747-9.612-19.213-8.323-31.457,2.215-21.055,16.852-37.443,32.652-36.515,6.31.368,12.022,3.361,16.518,8.657,6.577,7.748,9.611,19.213,8.323,31.456C2592.833,1263.128,2578.9,1279.192,2563.6,1279.192Zm5.243-71.386c-12.617,0-24.191,13.986-26.064,31.792-1.12,10.646,1.53,20.912,7.089,27.459a18.033,18.033,0,0,0,12.772,6.789c13,.761,25.134-13.492,27.056-31.763,1.12-10.646-1.531-20.911-7.089-27.458a18.037,18.037,0,0,0-12.773-6.79Q2569.342,1207.806,2568.847,1207.806Z" transform="translate(-2534.856 -1201.298)"/></g><g transform="translate(170.94 97.391)"><ellipse class="c" cx="28.493" cy="21.255" rx="28.493" ry="21.255" transform="matrix(0.19, -0.982, 0.982, 0.19, 0, 55.944)"/><path class="e" d="M2651.8,1344.778a16.279,16.279,0,0,1-9.131-2.834c-10.2-6.8-13.337-23.868-7-38.042,3.549-7.937,9.426-13.6,16.122-15.531a16.335,16.335,0,0,1,13.985,2.128c10.2,6.8,13.337,23.868,7,38.042h0c-3.55,7.938-9.426,13.6-16.123,15.531A17.474,17.474,0,0,1,2651.8,1344.778Zm4.844-56.556a16.893,16.893,0,0,0-4.7.683c-6.539,1.887-12.287,7.436-15.769,15.223-6.234,13.937-3.184,30.694,6.8,37.352a15.791,15.791,0,0,0,13.522,2.056c6.539-1.887,12.287-7.436,15.77-15.223,6.233-13.938,3.184-30.695-6.8-37.353A15.739,15.739,0,0,0,2656.644,1288.223Z" transform="translate(-2627.935 -1284.205)"/></g><g class="d" transform="translate(175.695 118.668)"><path class="e" d="M2634.537,1419.469a34.025,34.025,0,0,1,1.753-16.028c2.761,12.04,12.832,17.893,23.4,13.149,6.829-3.063,12.291-9.853,15.091-17.763.179.758.321,1.551.438,2.361,1.932,13.61-5.608,28.736-16.844,33.783S2636.469,1433.072,2634.537,1419.469Z" transform="translate(-2634.233 -1398.827)"/></g><g transform="translate(175.265 97.426)"><path class="e" d="M2651.2,1328.8q-.389,0-.779-.02a16.785,16.785,0,0,1-12.031-6.279c-5.235-6.142-7.693-15.931-6.573-26.186,1.872-17.149,13.143-30.612,25.167-30.008a16.785,16.785,0,0,1,12.032,6.279c5.235,6.142,7.693,15.93,6.573,26.185l-2.165-.236,2.165.236C2673.757,1315.552,2662.91,1328.8,2651.2,1328.8Zm4.975-58.157c-9.525,0-18.437,11.548-20.031,26.146-.991,9.085,1.087,17.642,5.559,22.888a12.541,12.541,0,0,0,8.936,4.755c9.741.492,18.994-11.231,20.621-26.131.991-9.085-1.087-17.642-5.559-22.888a12.545,12.545,0,0,0-8.937-4.755C2656.568,1270.648,2656.37,1270.643,2656.175,1270.643Z" transform="translate(-2631.55 -1266.29)"/></g><g class="b" transform="translate(15.637 33.594)"><path class="c" d="M1739.5,880.5s-44.177-4.333-72.327,16.92l-.089.067a41.816,41.816,0,0,0-13.368,17.336,85.3,85.3,0,0,0-5.908,21.9c-2.675,18.338-.5,27.431-.5,27.431-9.017-11.211-13.29-23.067-11.214-38.364q.313-2.261.808-4.633c.074-.364.156-.723.244-1.084-.008,0,0-.012.008-.021a103.732,103.732,0,0,1,4.1-11.744c5.664-13.563,16.344-30.774,35.26-36.725C1711.881,860.452,1741.289,878.8,1739.5,880.5Z" transform="translate(-1635.579 -868.018)"/></g><g class="b" transform="translate(128.237 80.218)"><ellipse class="c" cx="13.061" cy="15.219" rx="13.061" ry="15.219" transform="translate(0 3.038) rotate(-6.679)"/></g><g class="b" transform="translate(139.656 117.082)"><ellipse class="c" cx="5.393" cy="6.285" rx="5.393" ry="6.285" transform="translate(0 2.154) rotate(-11.521)"/></g></g><g transform="translate(94.99 280.303)"><path class="c" d="M1452.121,2407.8s-23.91,10.02-34.218,43.309a93.805,93.805,0,0,0-2.086,45.2s-16.587,29.867-2.273,42.211c10.785,9.3,33.383,12.559,46.227-8.751,11.278-18.711,11.2-28.986,12.318-37.136,2.7-19.613,13.755-36.29,46.109-40.827,0,0,2.134-19.175-11.806-33.537S1452.121,2407.8,1452.121,2407.8Z" transform="translate(-1407.722 -2407.32)"/></g><g class="d" transform="translate(95.023 309.742)"><path class="e" d="M1518.369,2606.048c-32.357,4.54-43.4,21.21-46.109,40.825-1.123,8.149-1.044,18.425-12.317,37.136-12.848,21.31-35.448,18.053-46.229,8.754-3.968-3.423-5.563-8.2-5.79-13.307,11.167,8.568,32.683,10.907,45.086-9.678,11.28-18.711,11.2-28.987,12.323-37.136,2.2-15.959,21.071-35.607,51.54-41.642A45.244,45.244,0,0,1,1518.369,2606.048Z" transform="translate(-1407.925 -2591)"/></g><g transform="translate(92.331 278.125)"><path class="e" d="M1419.583,2536.968a33.716,33.716,0,0,1-21.707-7.841c-14.46-12.471-1.594-39.247,1.2-44.612a96.466,96.466,0,0,1,2.354-45.6c10.555-34.084,34.707-44.547,35.73-44.975a2.658,2.658,0,0,1,2.059,4.9c-.323.14-22.947,10.117-32.71,41.645a91.6,91.6,0,0,0-2.043,43.783l.246,1.009-.5.91c-.155.28-15.369,28.122-2.861,38.908a28.756,28.756,0,0,0,22.46,6.22c8.047-1.285,14.877-6.24,19.753-14.33,9.6-15.921,10.691-25.369,11.571-32.96.128-1.1.25-2.147.39-3.166,3.434-24.917,19.257-39.015,48.373-43.1a2.659,2.659,0,1,1,.739,5.266c-26.805,3.76-40.737,16.012-43.844,38.558-.135.982-.253,2-.375,3.052-.89,7.674-2.109,18.185-12.3,35.093-7.214,11.969-16.744,15.761-23.468,16.835A32.1,32.1,0,0,1,1419.583,2536.968Z" transform="translate(-1391.132 -2393.735)"/></g><g transform="translate(78.615 142.313)"><g transform="translate(48.053 33.476)"><path class="g" d="M1711.5,1755.541l-.674,52.374-.574,44.391-.129,10.293a.336.336,0,0,1-.273.315l-104.109,16.038a.319.319,0,0,1-.366-.315l.229-20.306.983-88.136a.322.322,0,0,1,.272-.308l92.095-12.947,12.186-1.714A.31.31,0,0,1,1711.5,1755.541Z" transform="translate(-1605.374 -1755.222)"/></g><g transform="translate(70.119 63.817)"><g transform="translate(1.742 1.742)"><path class="h" d="M1765.679,2002.415l12.238-5.712,11.642,6.844a3.269,3.269,0,0,0,4.9-3.216l-1.651-13.4,10.108-8.96a3.268,3.268,0,0,0-1.545-5.653l-7.516-1.458a0,0,0,0,0,0,0l-5.739-1.115-5.4-12.38a3.267,3.267,0,0,0-5.853-.279l-6.544,11.815-13.444,1.307a3.267,3.267,0,0,0-2.073,5.48l9.214,9.876-2.391,10.825-.523,2.362A3.271,3.271,0,0,0,1765.679,2002.415Z" transform="translate(-1753.921 -1955.399)"/></g><g class="i" transform="translate(1.742 1.742)"><path class="c" d="M1758.7,1973.444l13.444-1.307,6.544-11.815a3.277,3.277,0,0,1,4.9-.98l-.865-1.981a3.267,3.267,0,0,0-5.853-.279l-6.544,11.815-13.444,1.307a3.267,3.267,0,0,0-2.073,5.48l.941,1.009A3.265,3.265,0,0,1,1758.7,1973.444Z" transform="translate(-1753.921 -1955.399)"/></g><g class="d" transform="translate(8.845 17.2)"><path class="e" d="M1802.891,2083.407l12.238-5.712,11.642,6.844a3.269,3.269,0,0,0,4.9-3.216l-1.651-13.4,10.108-8.961a3.267,3.267,0,0,0-1.545-5.652l-7.516-1.458c3.093,1.411,6.192,3.591,4.119,6.153-1.361,1.679-4.751,3.5-7.346,4.727a5.015,5.015,0,0,0-2.84,5.045c.341,3.3.529,7.805-.842,8.576-1.556.875-5.215-1.71-7.882-3.908a5.041,5.041,0,0,0-6.3-.1c-3.508,2.719-8.929,6.386-11.14,5.037l-.523,2.362A3.271,3.271,0,0,0,1802.891,2083.407Z" transform="translate(-1798.236 -2051.849)"/></g><path class="e" d="M1782.09,1996.618a5,5,0,0,1-2.541-.7l-10.853-6.38-11.409,5.324a5.01,5.01,0,0,1-7.01-5.62l2.715-12.294-8.589-9.206a5.009,5.009,0,0,1,3.178-8.4l12.531-1.218,6.1-11.013a5.01,5.01,0,0,1,8.974.426l5.03,11.542,12.359,2.4a5.009,5.009,0,0,1,2.368,8.666l-9.422,8.351,1.537,12.5a5.02,5.02,0,0,1-4.97,5.627Zm-13.208-11.009,12.433,7.309a1.525,1.525,0,0,0,2.287-1.5l-1.761-14.314,10.793-9.565a1.525,1.525,0,0,0-.721-2.639l-14.158-2.748-5.762-13.221a1.526,1.526,0,0,0-2.734-.129l-6.988,12.615-14.354,1.395a1.526,1.526,0,0,0-.968,2.56l9.838,10.544L1753.678,1990a1.526,1.526,0,0,0,2.135,1.712Zm-7.691-25.84h0Z" transform="translate(-1743.051 -1944.529)"/></g><g class="d" transform="translate(48.053 33.476)"><path class="c" d="M1711.5,1755.541l-.093,7.252-5.573.781-82.687,11.624a11.088,11.088,0,0,0-9.543,10.823l-1.12,78.945-.144,12.968-6.6,1.018a.319.319,0,0,1-.366-.315l.229-20.306.983-88.136a.322.322,0,0,1,.272-.308l92.095-12.947,12.186-1.714A.31.31,0,0,1,1711.5,1755.541Z" transform="translate(-1605.374 -1755.222)"/></g><g class="d" transform="translate(48.053 33.476)"><path class="e" d="M1711.5,1755.541l-.674,52.374-.495,38.33-.079,6.061-.129,10.293a.336.336,0,0,1-.273.315l-104.109,16.038a.319.319,0,0,1-.366-.315l.229-20.306c22.077-2.919,39.076-11.878,52.123-23.382,9.8-8.771,19.416-17.859,28.281-38.409a158.957,158.957,0,0,0,12.947-39.6l12.186-1.714A.31.31,0,0,1,1711.5,1755.541Z" transform="translate(-1605.374 -1755.222)"/></g><g transform="translate(22.082 41.928)"><path class="g" d="M1470.512,1814.457,1469.3,1922.87a.313.313,0,0,1-.409.294l-25.34-7.94a.323.323,0,0,1-.222-.3l.122-21.474.488-85.174a.317.317,0,0,1,.387-.308l25.4,6.054.538.129A.313.313,0,0,1,1470.512,1814.457Z" transform="translate(-1443.328 -1807.958)"/></g><g class="d" transform="translate(22.082 41.928)"><path class="c" d="M1470.512,1814.457l-.065,5.645-17.35-4.135a3.972,3.972,0,0,0-4.892,3.835l-.573,80.553-.093,16.117-3.988-1.248a.323.323,0,0,1-.222-.3l.122-21.474.488-85.174a.317.317,0,0,1,.387-.308l25.4,6.054.538.129A.313.313,0,0,1,1470.512,1814.457Z" transform="translate(-1443.328 -1807.958)"/></g><g class="d" transform="translate(22.082 47.99)"><path class="e" d="M1470.512,1846.214l-1.212,108.413a.313.313,0,0,1-.409.294l-25.34-7.94a.324.324,0,0,1-.222-.3l.122-21.474c21.665-18.87,22.723-62.767,26.28-79.428l.538.129A.314.314,0,0,1,1470.512,1846.214Z" transform="translate(-1443.328 -1845.777)"/></g><g transform="translate(2.658 2.658)"><path class="g" d="M1342.173,1602.194l-.6,105.759a.315.315,0,0,1-.6.129l-18.8-41.608a.31.31,0,0,1-.029-.136l.273-15.686.753-43.674.76-43.731a.315.315,0,0,1,.6-.122l17.616,38.933A.308.308,0,0,1,1342.173,1602.194Z" transform="translate(-1322.14 -1562.938)"/></g><g class="d" transform="translate(2.658 2.658)"><path class="c" d="M1322.357,1666.891l.055-3.176.753-43.674.76-43.731a.315.315,0,0,1,.6-.122l17.571,38.834.073-12.829a.308.308,0,0,0-.029-.136l-17.616-38.933a.314.314,0,0,0-.6.122l-.76,43.731-.753,43.674-.273,15.686a.309.309,0,0,0,.029.136Z" transform="translate(-1322.14 -1562.938)"/></g><g transform="translate(45.397 30.816)"><path class="e" d="M1591.772,1867.68a2.975,2.975,0,0,1-2.974-3.011l1.212-108.444a2.96,2.96,0,0,1,2.559-2.91l104.281-14.66a2.976,2.976,0,0,1,3.389,2.983l-1.383,107.062a2.965,2.965,0,0,1-2.523,2.9l-104.107,16.043A3.022,3.022,0,0,1,1591.772,1867.68Zm3.533-109.38-1.159,103.669,99.42-15.321,1.322-102.348Z" transform="translate(-1588.798 -1738.627)"/></g><g transform="translate(19.425 39.269)"><path class="e" d="M1455.063,1911.9a2.971,2.971,0,0,1-.883-.134l-25.34-7.943a2.96,2.96,0,0,1-2.086-2.856l.608-106.647a2.975,2.975,0,0,1,3.661-2.878l25.949,6.182a2.961,2.961,0,0,1,2.284,2.926l-1.212,108.411a2.972,2.972,0,0,1-2.98,2.941Zm-22.982-12.633,20.68,6.482,1.156-103.388-21.254-5.063Zm23.651-96.474h0Z" transform="translate(-1426.754 -1791.363)"/></g><path class="e" d="M1327.315,1697a2.953,2.953,0,0,1-2.7-1.749l-18.8-41.612a2.975,2.975,0,0,1-.263-1.276l1.783-103.088a2.976,2.976,0,0,1,5.686-1.174l17.618,38.935h0a3,3,0,0,1,.265,1.252l-.6,105.752a2.958,2.958,0,0,1-2.356,2.894A3.061,3.061,0,0,1,1327.315,1697Zm-16.435-45.071,14.167,31.358.539-94.526-13.112-28.977Zm14.917-62.7h0Zm-.208-.98v0Z" transform="translate(-1305.554 -1546.353)"/><g transform="translate(6.19 3.36)"><path class="c" d="M1366.163,1577.92c-11.613-6.992-15.024-10.6-15.024-10.6l-6.966,2.011,16.5,36.637,10.556,2.308S1380.4,1586.491,1366.163,1577.92Z" transform="translate(-1344.173 -1567.318)"/></g><g transform="translate(6.187 3.362)"><path class="c" d="M1371.22,1608.287l-5.888-1.291-4.669-1.019-13.535-30.046-2.969-6.592,6.972-2.008s3.407,3.608,15.019,10.6C1380.386,1586.5,1371.22,1608.287,1371.22,1608.287Z" transform="translate(-1344.158 -1567.332)"/></g><g class="d" transform="translate(9.157 11.962)"><path class="e" d="M1380.889,1652.053l-4.669-1.018-13.535-30.046c2.345,1.75,5.9,4.21,11.139,7.366C1383.012,1633.885,1382.445,1644.923,1380.889,1652.053Z" transform="translate(-1362.685 -1620.989)"/></g><g transform="translate(33.247 23.37)"><path class="c" d="M1512.993,1713.115s3.014-14.056,26.181-19.169,82.929,2.435,82.929,2.435l3.82,6.97-96.269,13.534Z" transform="translate(-1512.993 -1692.169)"/></g><g transform="translate(33.249 23.369)"><path class="c" d="M1625.938,1703.345l-13.434,1.886-82.835,11.641-10.056-2.274-6.606-1.492s3.012-14.058,26.18-19.172,82.929,2.439,82.929,2.439Z" transform="translate(-1513.007 -1692.158)"/></g><g class="d" transform="translate(39.855 33.468)"><path class="e" d="M1647.114,1758.145l-82.835,11.641-10.056-2.274c3.794-3.916,10.2-8.2,20.929-10.565C1592.13,1753.2,1628.752,1756.252,1647.114,1758.145Z" transform="translate(-1554.223 -1755.172)"/></g><g transform="translate(2.506 0.356)"><path class="e" d="M1353.523,1595.6l-14.023-3.066-18.311-40.653,11.47-3.311,1.113,1.178c.023.023,3.465,3.53,14.463,10.151h0c16.023,9.647,6.557,32.686,6.146,33.663Zm-10.273-7.689,6.966,1.523c1.7-5.253,5.016-19.115-4.724-24.98a106.1,106.1,0,0,1-14.35-9.911l-2.585.746Z" transform="translate(-1321.19 -1548.575)"/></g><g transform="translate(30.096 20.704)"><path class="e" d="M1513.035,1705.615l-19.7-4.458.551-2.571c.138-.642,3.654-15.788,28.208-21.208,23.348-5.154,81.377,2.083,83.836,2.394l1.347.17,6.321,11.534Zm-12.953-8.383,13.176,2.981,91.976-12.93-1.314-2.4c-8.954-1.068-60.126-6.851-80.681-2.314C1507.848,1685.969,1502.095,1693.365,1500.082,1697.233Z" transform="translate(-1493.334 -1675.533)"/></g></g><g transform="translate(167.887 209.622)"><path class="c" d="M1944.034,1966.319s-5.161,10.792-17.027,11.53c-16.954,1.055-34.953-2.107-46.6,2.129-18.181,6.615-27.275,37.108-3.658,50.872,14.672,8.551,79.343,22.368,92.013-28.91" transform="translate(-1862.552 -1966.319)"/></g><g class="d" transform="translate(167.896 243.626)"><path class="e" d="M1968.81,2180.094c-12.675,51.28-77.343,37.461-92.012,28.914-11.532-6.727-15.268-17.442-13.938-27.412a22.169,22.169,0,0,0,10.13,13.8c28.672,17.2,75.927,21.917,94.7-16.921Z" transform="translate(-1862.604 -2178.479)"/></g><g transform="translate(165.226 206.964)"><path class="e" d="M1901.692,2027.91c-17.668,0-34.013-5.072-40.223-8.692-10.851-6.323-16.461-16.786-15.393-28.706,1.083-12.095,9.094-23.182,19.481-26.961,7.846-2.855,18.05-2.564,28.852-2.257,6.089.173,12.385.353,18.489-.027,10.189-.634,14.749-9.929,14.793-10.023a2.659,2.659,0,1,1,4.8,2.294c-.238.5-5.988,12.21-19.26,13.036-6.345.393-12.763.212-18.97.035-10.279-.291-19.991-.57-26.883,1.939-8.516,3.1-15.1,12.325-16,22.438-.515,5.748.46,16.462,12.774,23.638,8.479,4.941,39.642,13.192,62.906,3.341,13.064-5.53,21.538-15.822,25.187-30.592a2.659,2.659,0,0,1,5.162,1.276c-4.073,16.483-13.586,27.994-28.276,34.214C1920.452,2026.535,1910.892,2027.91,1901.692,2027.91Z" transform="translate(-1845.948 -1949.732)"/></g><g transform="translate(61.847 179.368)"><path class="c" d="M1221.466,1777.552s4.753,4.1,5.515,17.161c.467,7.994.37,31.488-6.352,32.833-5.8,1.161-15.017-4.322-18.321-15.37C1198.32,1798.84,1202.479,1778.381,1221.466,1777.552Z" transform="translate(-1200.93 -1777.552)"/></g><g transform="translate(59.213 176.665)"><path class="e" d="M1205.208,1816.2c-7.134,0-15.958-6.422-19.248-17.422-2.452-8.2-2.229-20.26,3.794-28.729,4.1-5.763,10.253-8.983,17.795-9.312l1.054-.046.8.69c.574.495,5.628,5.234,6.432,19.018.327,5.6,1.453,33.607-8.484,35.594A10.9,10.9,0,0,1,1205.208,1816.2Zm1.307-50.061a16.547,16.547,0,0,0-12.427,6.992c-4.984,7.006-5.114,17.164-3.033,24.124,2.9,9.69,10.834,14.4,15.252,13.525.689-.139,2.707-2.494,3.752-11.619a120.445,120.445,0,0,0,.467-18.452C1210.021,1772.043,1207.661,1767.745,1206.515,1766.14Z" transform="translate(-1184.495 -1760.692)"/></g><g transform="translate(106.193 310.422)"><path class="e" d="M1539.317,2630.956a2.658,2.658,0,0,1-2.309-1.338c-8.941-15.608-21.047-25.052-35.98-28.072a47.238,47.238,0,0,0-20.027.142,2.658,2.658,0,0,1-1.451-5.115,51.648,51.648,0,0,1,22.269-.292c11.426,2.251,27.608,9.4,39.8,30.693a2.66,2.66,0,0,1-2.3,3.981Z" transform="translate(-1477.62 -2595.242)"/></g><g transform="translate(230.875 218.384)"><path class="e" d="M2262.4,2085.983a2.659,2.659,0,0,1-2.393-3.812c18-37.4-2.637-55.743-3.525-56.5a2.659,2.659,0,0,1,3.442-4.053c.261.222,6.446,5.541,10.091,16.042,3.311,9.537,5.093,25.4-5.217,46.82A2.659,2.659,0,0,1,2262.4,2085.983Z" transform="translate(-2255.552 -2020.986)"/></g><g transform="translate(172.546 300.171)"><path class="a" d="M1891.622,2571.344s31.084-43.166,90.2-39.881c0,0,8.367,11.73-32.257,32.139S1891.622,2571.344,1891.622,2571.344Z" transform="translate(-1891.622 -2531.285)"/></g><g class="i" transform="translate(172.545 300.171)"><path class="c" d="M1982.489,2533.646c-38.519,2.665-72.87,25.75-89.247,38.625a11.4,11.4,0,0,1-1.628-.924s31.087-43.165,90.2-39.881A4.785,4.785,0,0,1,1982.489,2533.646Z" transform="translate(-1891.613 -2531.287)"/></g><g transform="translate(171.244 298.344)"><path class="e" d="M1883.717,2561a74.981,74.981,0,0,1,8.315-10.106,98.887,98.887,0,0,1,9.661-8.772,102.838,102.838,0,0,1,22.3-13.62,99.129,99.129,0,0,1,25.066-7.492,96.427,96.427,0,0,1,26.012-.441,1.332,1.332,0,0,1-.138,2.654h-.01a142.381,142.381,0,0,0-25.013,2.558,117.266,117.266,0,0,0-23.771,7.542A124.687,124.687,0,0,0,1915,2538.97l-2.686,1.605c-.89.544-1.759,1.123-2.64,1.682-1.75,1.138-3.482,2.309-5.171,3.542a122.925,122.925,0,0,0-9.781,7.878,99.887,99.887,0,0,0-8.845,8.871l-.048.056a1.329,1.329,0,0,1-2.11-1.609Z" transform="translate(-1883.493 -2519.886)"/></g></g></svg>