<svg xmlns="http://www.w3.org/2000/svg" width="299" height="419.425" viewBox="0 0 299 419.425"><defs><style>.a{fill:#fff;}.b{fill:#371a45;}.c{opacity:0.25;}.d{opacity:0.35;}.e{fill:#22a7f0;}.f{opacity:0.2;}.g{fill:#390075;}.h{opacity:0.5;}.i{fill:#111a28;}.j{fill:#008cff;}.k{fill:#b9c5d3;}.l{opacity:0.3;}</style></defs><g transform="translate(-890.936 -385.335)"><g transform="translate(1032.218 570.585)"><g transform="translate(0 0)"><path class="a" d="M2093.681,1803.26a10.49,10.49,0,0,1-3.493,7.44c-5.532,5.543-16.205,9.014-21.373,12.528-26.963,18.335-56.479,26.092-85.265,26.583-4.925.09-9.828-.042-14.695-.365l-3.751-20.475-4.365-23.793s5.786-.222,14.118-.9c4.9-.4,10.673-.946,16.671-1.7,5.706-.713,11.608-1.606,17.135-2.721,7.593-1.527,14.483-3.471,19.191-5.928C2047.447,1783.71,2093.676,1786.865,2093.681,1803.26Z" transform="translate(-1960.74 -1788.067)"/></g></g><g transform="translate(1030.104 568.425)"><path class="b" d="M1966.582,1837.754q-5.841,0-11.759-.394a2.114,2.114,0,0,1,.281-4.218c36.11,2.411,70.215-6.532,98.629-25.853a65.709,65.709,0,0,1,7.783-4.173c7.2-3.488,16.158-7.83,16.157-14.05,0-2.728-1.758-5.175-5.222-7.275-12.759-7.732-42.859-7.824-57.514-.177-18.084,9.436-65.979,11.4-68.009,11.481a2.113,2.113,0,1,1-.165-4.224c.488-.019,48.973-2.007,66.218-11.005,15.968-8.332,47.662-8.174,61.66.309,6,3.634,7.257,7.927,7.258,10.889,0,8.87-10.279,13.852-18.54,17.855a63.379,63.379,0,0,0-7.25,3.864C2030.017,1828.528,1999.272,1837.754,1966.582,1837.754Z" transform="translate(-1944.734 -1771.715)"/></g><g class="c" transform="translate(1032.185 569.806)"><g transform="translate(0)"><path class="b" d="M2094.4,1797.465v.058a7.65,7.65,0,0,1-.08,1.112c-.016.138-.037.271-.063.41a4.545,4.545,0,0,1-.1.473,6.4,6.4,0,0,1-.175.628c-.021.08-.048.154-.074.234-.043.117-.085.234-.128.345-.059.144-.117.287-.181.426q-.073.175-.16.351c-.037.075-.08.149-.117.224-.117.229-.245.447-.383.67a9.456,9.456,0,0,1-.537.793c-.09.132-.192.26-.293.388l-.245.308-.106.122c-.1.106-.192.218-.288.324-.111.122-.223.245-.34.367-.085.09-.17.176-.256.261-5.573,5.575-16.318,9.07-21.518,12.607-31.81,21.619-67.133,28.63-100.684,26.4l-8.175-44.568s1.038-.043,2.874-.138l15.982,22.39a28.466,28.466,0,0,0,26.126,11.9c18.388-1.979,49.938-19.061,60.369-23.274q1.964-.79,3.843-1.49c-3.5.293-7.137.441-10.868.441-24.455,0-44.919-6.495-50.054-15.182,7.648-1.537,14.588-3.5,19.33-5.969C2047.827,1777.782,2094.39,1780.958,2094.4,1797.465Z" transform="translate(-1960.491 -1782.168)"/></g></g><g class="d" transform="translate(1161.656 592.965)"><g transform="translate(0 0)"><path class="b" d="M2940.861,1957.789c.085-.084.17-.169.254-.259-.075.085-.159.169-.243.254C2940.867,1957.783,2940.867,1957.783,2940.861,1957.789Z" transform="translate(-2940.861 -1957.53)"/></g></g><g transform="translate(907.438 596.099)"><g transform="translate(0 0)"><path class="a" d="M1102.218,2093.556c-27.673,4.733-76.56,9.386-83.358-17.695a91.6,91.6,0,0,1-2.047-11.573c-3.211-27.392,2.244-64.772,12.312-74.744,5.75-5.691,17.191-8.309,30.018-8.284,25.491.05,56.484,10.505,59.273,27.945C1121.111,2025.987,1129.89,2088.823,1102.218,2093.556Z" transform="translate(-1015.893 -1981.26)"/></g></g><g class="c" transform="translate(907.427 595.493)"><g transform="translate(0)"><path class="b" d="M1101.835,2089.728c-27.873,4.765-77.115,9.45-83.963-17.815a92.2,92.2,0,0,1-2.062-11.652c8.572,5.008,20.039-1.973,18.87-9.5-7.453-47.944,16.334-66.93,23.767-74.095,25.675.05,56.894,10.576,59.7,28.135C1120.866,2021.7,1129.709,2084.964,1101.835,2089.728Z" transform="translate(-1015.811 -1976.671)"/></g></g><g transform="translate(905.323 593.996)"><g transform="translate(0)"><path class="b" d="M1050.5,2085.5c-23.2,0-43.2-5.445-47.589-22.945-3.263-13.011-3.94-31.619-1.81-49.774,2.2-18.731,6.8-32.786,12.637-38.562l1.487,1.5-1.487-1.5c11.545-11.43,42.094-10.862,63.779-3.779,17.11,5.588,27.44,14.327,29.087,24.606,1.973,12.31,4.15,30.479,3.31,47.137-1.215,24.1-8.362,37.431-21.242,39.634A232.5,232.5,0,0,1,1050.5,2085.5Zm-5.275-115.974c-12.583,0-23.391,2.626-28.513,7.7-10.854,10.747-16.293,58.02-9.7,84.3,6.271,25,53.409,20.834,80.949,16.125,24.932-4.264,17.379-63.793,14.471-81.935-1.364-8.512-10.923-16.26-26.226-21.258A102.124,102.124,0,0,0,1045.226,1969.527Z" transform="translate(-999.877 -1965.336)"/></g></g><g transform="translate(909.787 646.792)"><path class="a" d="M1053.628,2368.45l-13.023-3.184a5.036,5.036,0,0,0-6.2,4.309c-1.187,10.358-2.266,31.632,8.385,34.46,12.909,3.427,15.254-11.238,14.682-30.854A5.032,5.032,0,0,0,1053.628,2368.45Z" transform="translate(-1033.676 -2365.121)"/></g><g class="c" transform="translate(909.367 650.013)"><g transform="translate(0 0)"><path class="b" d="M1053.96,2394.134c.578,19.749-1.785,34.518-14.787,31.063-5.34-1.411-7.753-7.435-8.676-14.408a9.069,9.069,0,0,0,5.155,3.769c11.64,3.086,14.758-8.429,14.856-25.056A5.018,5.018,0,0,1,1053.96,2394.134Z" transform="translate(-1030.497 -2389.503)"/></g></g><g transform="translate(907.674 644.68)"><g transform="translate(0 0)"><path class="b" d="M1032.418,2392.766a15.843,15.843,0,0,1-4.055-.57c-11.951-3.172-11.359-24.382-9.943-36.743a7.15,7.15,0,0,1,8.805-6.122l13.023,3.183a7.161,7.161,0,0,1,5.452,6.723c.511,17.558-1.576,27.225-6.771,31.342A10.191,10.191,0,0,1,1032.418,2392.766Zm-6.906-39.415a2.924,2.924,0,0,0-2.892,2.583c-2.115,18.451.438,30.479,6.828,32.176,2.92.775,5.162.5,6.856-.844,5.849-4.636,5.339-22.15,5.171-27.906a2.924,2.924,0,0,0-2.231-2.74l-13.023-3.183A2.959,2.959,0,0,0,1025.513,2353.351Z" transform="translate(-1017.682 -2349.126)"/></g></g><g transform="translate(915.917 605.442)"><path class="b" d="M1082.8,2052.1c3.113.909,6.187,1.852,9.265,2.829s6.138,2,9.18,3.1a1.058,1.058,0,0,1-.6,2.025l-.009,0c-3.1-.75-6.229-1.418-9.364-2.051s-6.287-1.227-9.421-1.78l-.009,0a2.117,2.117,0,1,1,.734-4.169A2.073,2.073,0,0,1,1082.8,2052.1Z" transform="translate(-1080.092 -2052.01)"/></g><g transform="translate(996.285 682.744)"><g transform="translate(0 0)"><path class="a" d="M1697.563,2749.022c5.405,3.265,14.562,6.1,27.519,6.093,18.113-.011,32.9-.845,32.744-13.881-.122-10.346-17.96-15.006-17.96-15.006,10.208-15.117,12.982-40.712,13.5-59.713.38-14.013-.465-24.437-.465-24.437l-64.246-4.729c5.178,24.729,7.36,43.719,8.01,58.407C1698.435,2735.633,1688.951,2743.823,1697.563,2749.022Z" transform="translate(-1688.655 -2637.348)"/></g></g><g transform="translate(994.172 680.628)"><g transform="translate(0 0)"><path class="b" d="M1711.141,2743.317c-15.638,0-24.607-4.005-28.563-6.4-5.749-3.471-5.063-8.314-3.818-17.107,1.977-13.964,5.656-39.956-6.065-95.945a2.113,2.113,0,1,1,4.137-.866c11.873,56.712,8.126,83.182,6.113,97.4-1.245,8.794-1.416,10.944,1.818,12.9,3.579,2.163,11.766,5.787,26.377,5.787h.048c12.263-.007,23.652-.4,28.268-5.073a8.836,8.836,0,0,0,2.365-6.667c-.085-7.146-11.855-11.8-16.382-12.988l-2.882-.757,1.666-2.47c17.119-25.355,12.728-82.227,12.681-82.8a2.114,2.114,0,1,1,4.214-.341c.189,2.324,4.3,55.71-11.891,83.128,5.36,1.88,16.713,6.949,16.823,16.175a13.016,13.016,0,0,1-3.584,9.688c-5.769,5.842-17.576,6.323-31.273,6.33Z" transform="translate(-1672.65 -2621.323)"/></g></g><g class="c" transform="translate(995.992 682.725)"><g transform="translate(0)"><path class="b" d="M1686.434,2637.2q.247,1.165.479,2.32c.133.644.261,1.282.389,1.915q.343,1.676.655,3.314.311,1.6.607,3.16.678,3.615,1.266,7.049c.106.644.218,1.277.319,1.91q.176,1.021.335,2.027c.1.617.2,1.229.293,1.841q.335,2.122.633,4.17c.091.6.176,1.192.261,1.777q.264,1.883.505,3.713c.064.464.123.926.181,1.383.016.144.037.287.053.426q.224,1.78.426,3.5c.016.154.037.313.053.468.117,1.01.229,2.011.33,2.99.005.063.011.123.021.186.048.5.1,1,.149,1.484q.168,1.652.309,3.251t.261,3.139c.005.043.005.085.01.122.037.473.074.941.106,1.41q.208,2.824.34,5.463c.022.447.043.888.064,1.33.005.154.016.309.021.463,1.783,40.148-7.77,48.393.9,53.627,5.444,3.288,14.668,6.138,27.718,6.134,15.786-.011,29.064-.639,32.252-9.309-5.78,1.383-13.305,1.553-21.5,1.558-13.05.005-22.273-2.846-27.723-6.133-6.218-3.757-3.054-9.062-1.431-26.6a27.819,27.819,0,0,1,19.005-23.7c14.445-4.856,23.68-13.506,27.887-25.019.383-14.108-.468-24.6-.468-24.6l-52.226-3.841Z" transform="translate(-1686.434 -2637.204)"/></g></g><g class="d" transform="translate(1006.384 717.727)"><g transform="translate(0)"><path class="b" d="M1765.459,2907.673q-.134-2.623-.338-5.426C1765.253,2904.118,1765.369,2905.925,1765.459,2907.673Z" transform="translate(-1765.121 -2902.247)"/></g></g><g class="d" transform="translate(1006.009 713.088)"><g transform="translate(0)"><path class="b" d="M1762.539,2870.235q-.119-1.53-.259-3.117C1762.37,2868.174,1762.46,2869.215,1762.539,2870.235Z" transform="translate(-1762.28 -2867.117)"/></g></g><g class="d" transform="translate(1005.206 705.231)"><g transform="translate(0)"><path class="b" d="M1756.526,2810.593c-.1-.972-.212-1.966-.328-2.969C1756.315,2808.627,1756.421,2809.62,1756.526,2810.593Z" transform="translate(-1756.199 -2807.623)"/></g></g><g class="d" transform="translate(1004.73 701.294)"><g transform="translate(0)"><path class="b" d="M1753.021,2781.287c-.132-1.141-.275-2.293-.422-3.471Q1752.82,2779.583,1753.021,2781.287Z" transform="translate(-1752.598 -2777.816)"/></g></g><g transform="translate(945.278 572.175)"><g transform="translate(0 0)"><path class="a" d="M1418.827,1906.889c.317,25.278-17.748,42.8-54.962,44.2-13.49.661-26.726.655-37.368-6.187a63.1,63.1,0,0,1-12.517-10.166c-6.1-6.589-9.96-14.684-10.959-25.912-.048-.528-.09-1.062-.122-1.606a65.162,65.162,0,0,1-.1-15.027c1.532-16.808,7.376-37.674,11.862-53.874.645-2.32,1.258-4.544,1.828-6.647q.5-1.966.956-3.942a110.287,110.287,0,0,0,2.743-17.225c.613-8.951,57-15.925,77.118-4.227l6.171,8.46.137.185a102.439,102.439,0,0,1,3.545,14.346c.7,3.72,1.321,7.6,1.944,11.455,1.094,6.753,2.1,13.215,3.065,19.545,1.654,10.79,3.213,21.188,4.919,31.978q.476,3,.967,6.04A57.7,57.7,0,0,1,1418.827,1906.889Z" transform="translate(-1302.419 -1800.11)"/></g></g><g class="d" transform="translate(945.277 666.225)"><path class="b" d="M1418.1,2533.973c-3.7,20.375-21.611,33.991-54.239,35.222-13.49.66-26.726.655-37.367-6.187a63.094,63.094,0,0,1-12.517-10.166c-6.383-6.9-10.319-15.45-11.08-27.518a60.908,60.908,0,0,1-.259-13.057c.068.777.164,1.533.275,2.267.787,12.068,4.851,20.617,11.439,27.518a64.644,64.644,0,0,0,12.924,10.166c10.985,6.842,24.649,6.848,38.572,6.188C1393.162,2557.407,1410.482,2548.261,1418.1,2533.973Z" transform="translate(-1302.411 -2512.267)"/></g><g transform="translate(943.172 569.923)"><path class="b" d="M1389.208,1800.532q-.932-.977-1.835-1.974l-1.787-2.009-1.75-2.037c-.585-.677-1.146-1.373-1.72-2.058l.51.459a34.764,34.764,0,0,0-4.917-1.924,50.922,50.922,0,0,0-5.2-1.351,88.255,88.255,0,0,0-10.79-1.548c-3.641-.334-7.312-.51-10.99-.526-3.677-.04-7.363.044-11.039.284a112.867,112.867,0,0,0-21.71,3.348,44.324,44.324,0,0,0-5.07,1.685,21.944,21.944,0,0,0-2.291,1.093,7.643,7.643,0,0,0-1.755,1.276,1.811,1.811,0,0,0-.372.506.111.111,0,0,1-.026.059c0,.012.009.016,0,.023a.015.015,0,0,0-.007.007l-.007.089-.014.179-.027.358q-.105,1.434-.265,2.86c-.208,1.9-.476,3.792-.79,5.67-.629,3.756-1.444,7.459-2.343,11.121-.942,3.693-1.975,7.27-2.96,10.875-1.99,7.2-3.947,14.388-5.7,21.613s-3.313,14.483-4.408,21.778c-.265,1.823-.48,3.649-.706,5.473L1291,1878.6c-.083.913-.167,1.825-.183,2.733l-.1,2.727c-.033.908.028,1.8.036,2.707-.024,1.817.251,3.564.4,5.339l.018.175a47.987,47.987,0,0,0,2.715,13.521,37.154,37.154,0,0,0,6.933,11.713,56.426,56.426,0,0,0,10.463,9.127c.974.642,1.962,1.338,2.934,1.926l1.456.867,1.514.767a37.252,37.252,0,0,0,6.4,2.372,52.573,52.573,0,0,0,6.8,1.313q3.469.41,7.005.514c4.706.128,9.493-.059,14.267-.318a97.487,97.487,0,0,0,14.037-1.7,65.29,65.29,0,0,0,13.37-4.077c1.058-.472,2.118-.941,3.133-1.491,1.041-.5,2.02-1.111,3.015-1.689a40.7,40.7,0,0,0,5.526-4.067,34.526,34.526,0,0,0,8.281-10.706,37.654,37.654,0,0,0,3.637-13.116,46.413,46.413,0,0,0,.153-6.913c-.028-1.157-.163-2.313-.267-3.469-.132-1.161-.3-2.293-.475-3.474-1.491-9.52-2.913-19.052-4.551-28.547-.817-4.749-1.544-9.511-2.1-14.3-.268-2.4-.515-4.8-.661-7.214s-.252-4.84-.176-7.292v-.008a.716.716,0,0,1,1.391-.216c.816,2.308,1.459,4.645,2.044,6.991s1.088,4.7,1.559,7.068c.922,4.732,1.675,9.49,2.338,14.263,1.323,9.547,2.861,19.059,4.33,28.582.175,1.2.365,2.454.5,3.686.113,1.242.255,2.481.288,3.734a50.674,50.674,0,0,1-.168,7.522,41.886,41.886,0,0,1-4.055,14.58,38.78,38.78,0,0,1-9.283,12.01,44.952,44.952,0,0,1-6.1,4.49c-1.086.634-2.16,1.294-3.287,1.843-1.106.6-2.249,1.105-3.391,1.614a69.453,69.453,0,0,1-14.223,4.345,101.71,101.71,0,0,1-14.634,1.773c-4.846.261-9.7.455-14.626.322q-3.69-.111-7.4-.545a56.689,56.689,0,0,1-7.38-1.428,41.471,41.471,0,0,1-7.133-2.647l-1.708-.867-1.651-.981c-1.087-.661-2.071-1.355-3.106-2.039a60.57,60.57,0,0,1-11.253-9.835c-.809-.972-1.633-1.93-2.353-2.977-.773-1.006-1.428-2.1-2.1-3.173-.354-.528-.615-1.111-.925-1.664-.287-.567-.622-1.11-.867-1.7-.507-1.162-1.066-2.307-1.461-3.51a52.222,52.222,0,0,1-2.967-14.716l.018.174a57.922,57.922,0,0,1-.445-5.831c-.01-.965-.072-1.938-.037-2.9l.109-2.874c.019-.961.105-1.909.192-2.858l.248-2.848c.233-1.883.456-3.769.728-5.644,1.124-7.489,2.715-14.855,4.482-22.156s3.74-14.535,5.733-21.743c.985-3.6,2.024-7.209,2.93-10.757.883-3.594,1.673-7.2,2.279-10.811.3-1.807.559-3.618.757-5.431q.151-1.361.252-2.721l.026-.34.013-.17.007-.085.021-.167c.031-.224.069-.451.119-.667.064-.2.134-.4.211-.6a5.928,5.928,0,0,1,1.209-1.786,11.627,11.627,0,0,1,2.736-2.041,26.018,26.018,0,0,1,2.763-1.322,48.367,48.367,0,0,1,5.56-1.852,98.22,98.22,0,0,1,11.221-2.3c3.754-.58,7.523-1,11.3-1.285s7.567-.459,11.363-.48c3.8.006,7.6.159,11.4.518a76.824,76.824,0,0,1,11.339,1.942,36.61,36.61,0,0,1,10.823,4.511l.373.244.136.216c.478.756.969,1.5,1.436,2.266l1.406,2.287,1.369,2.314q.677,1.162,1.321,2.35a.711.711,0,0,1-1.138.831Z" transform="translate(-1286.476 -1783.054)"/></g><g transform="translate(1002.528 744.776)"><g transform="translate(0)"><path class="b" d="M1765.208,3118.034a84.229,84.229,0,0,1-28.031-5.2,1.981,1.981,0,0,1,1.455-3.686c.307.121,30.907,11.929,50.795-1.738a1.981,1.981,0,1,1,2.244,3.265C1783.538,3116.267,1774.005,3118.034,1765.208,3118.034Z" transform="translate(-1735.923 -3107.063)"/></g></g><g class="c" transform="translate(944.615 648.691)"><g transform="translate(0 0)"><path class="b" d="M1408.95,2414.446a10.287,10.287,0,0,1-9.633,10.842l-47.564,2.831a10.292,10.292,0,0,1-10.852-9.629l-.24-4.011c-21.182,2.479-35.169-.351-42.657-2.814-.048-.532-.09-1.069-.122-1.618a65.6,65.6,0,0,1-.1-15.129c15.626,7.331,36.366,3.868,41.885,2.751l-.266-4.48a10.279,10.279,0,0,1,7.595-10.511,9.878,9.878,0,0,1,2.039-.33l47.553-2.83a10.282,10.282,0,0,1,10.852,9.628l.288,4.846a7.592,7.592,0,0,1,.984-.059,8.883,8.883,0,0,1,4.189,1.038q.479,3.015.974,6.08a58.045,58.045,0,0,1,.777,8.666,9.011,9.011,0,0,1-5.849,2.234Z" transform="translate(-1297.398 -2379.499)"/></g></g><g transform="translate(1045.845 652.702)"><g transform="translate(0 0)"><circle class="a" cx="8.948" cy="8.948" r="8.948" transform="translate(0 12.654) rotate(-45)"/></g></g><g class="c" transform="translate(1049.641 661.366)"><g transform="translate(0)"><path class="b" d="M2110.7,2479.326a9.013,9.013,0,0,1-18.027,0,8.9,8.9,0,0,1,.867-3.851,9.015,9.015,0,0,0,16.293,0A8.9,8.9,0,0,1,2110.7,2479.326Z" transform="translate(-2092.673 -2475.475)"/></g></g><g transform="translate(1047.571 654.427)"><g transform="translate(0)"><path class="b" d="M2087.923,2444.787a10.929,10.929,0,1,1,10.928-10.929A10.942,10.942,0,0,1,2087.923,2444.787Zm0-17.9a6.967,6.967,0,1,0,6.967,6.967A6.975,6.975,0,0,0,2087.923,2426.891Z" transform="translate(-2076.993 -2422.929)"/></g></g><g transform="translate(932.644 689.199)"><g transform="translate(0 0)"><path class="a" d="M1282.018,2708.029c.123-1.728-1.948,42.723-5.983,70.809-2.9,20.156-21.356,22.249-50.876,20.159-10.866-.77-19.189-4.009-18.349-12.6,1.128-11.538,18.015-15.908,18.015-15.908s.5-35,3.818-84.262" transform="translate(-1206.751 -2686.227)"/></g></g><g class="c" transform="translate(932.644 710.963)"><g transform="translate(0)"><path class="b" d="M1282.025,2851.03c0,.767-2.066,43.539-5.992,70.846-2.9,20.158-21.352,22.25-50.873,20.158-10.869-.766-19.191-4-18.351-12.6.021-.2.042-.4.074-.592,3.345,2.187,8.349,3.276,14.06,3.677,29.521,2.093,47.983,0,50.878-20.157,3-20.871,7.878-48.971,10.14-61.319l.058.021A.081.081,0,0,1,1282.025,2851.03Z" transform="translate(-1206.752 -2851.03)"/></g></g><g transform="translate(930.53 687.084)"><g transform="translate(0 0)"><path class="b" d="M1227.152,2787.892c-5.126,0-10.528-.294-16.037-.685-8.885-.629-14.726-2.738-17.858-6.446a10.971,10.971,0,0,1-2.445-8.467c1.053-10.771,13.557-15.813,18.033-17.282.142-7.317.9-39.827,3.8-82.824a2.113,2.113,0,0,1,4.217.284c-3.274,48.633-3.808,83.8-3.813,84.151l-.023,1.612-1.561.4c-.153.04-15.471,4.148-16.441,14.068a6.813,6.813,0,0,0,1.468,5.328c2.324,2.752,7.347,4.42,14.927,4.957,29.534,2.091,46.03-.214,48.635-18.351,3.881-27.01,5.853-67.971,5.962-70.452,0-.068,0-.137,0-.207a2.193,2.193,0,0,1,1.234-1.821,2.114,2.114,0,0,1,2.145.23c.642.48.822.794.826,1.885h.011c0,.037-.007.073-.011.11,0,.438-.03.995-.066,1.722-.061,1.243-.154,3.049-.28,5.3-.225,4.029-.6,10.411-1.135,17.931-.919,13.02-2.447,31.552-4.508,45.9C1261.568,2783.79,1246.28,2787.892,1227.152,2787.892Z" transform="translate(-1190.743 -2670.215)"/></g></g><g class="d" transform="translate(935.755 643.949)"><g transform="translate(0 0)"><path class="b" d="M1230.329,2352.608a11.809,11.809,0,0,0,5.162,9.283,38.694,38.694,0,0,0,9.1,3.551c-.122-.983-.222-1.956-.307-2.907-.063-.618-.116-1.225-.159-1.833a111.648,111.648,0,0,1-.248-11.783,33.722,33.722,0,0,1-9.115-5.332S1230.012,2347.013,1230.329,2352.608Z" transform="translate(-1230.314 -2343.589)"/></g></g><g transform="translate(989.668 642.071)"><g transform="translate(0 0)"><path class="a" d="M1698.053,2374.851l-47.22,2.808a10.215,10.215,0,0,1-10.772-9.563l-1.493-25.128a10.221,10.221,0,0,1,7.544-10.445,9.873,9.873,0,0,1,2.019-.327l47.213-2.808a10.206,10.206,0,0,1,10.772,9.563l1.187,19.9.313,5.226A10.216,10.216,0,0,1,1698.053,2374.851Z" transform="translate(-1638.55 -2329.369)"/></g></g><g class="c" transform="translate(989.327 644.952)"><g transform="translate(0 0)"><path class="b" d="M1695.9,2393.8l-47.562,2.828a10.288,10.288,0,0,1-10.85-9.629l-1.5-25.3a10.292,10.292,0,0,1,7.6-10.516c2.808,1.632,4.591,2.677,4.591,2.677,3.524,20.17,3.527,35.277,34.926,31.314a55.606,55.606,0,0,0,22.119-7.483l.315,5.261A10.287,10.287,0,0,1,1695.9,2393.8Z" transform="translate(-1635.965 -2351.182)"/></g></g><g transform="translate(987.687 640.088)"><g transform="translate(0 0)"><path class="b" d="M1637.2,2366.631a12.183,12.183,0,0,1-12.138-11.445l-1.5-25.132a12.181,12.181,0,0,1,11.423-12.868l47.216-2.809a12.185,12.185,0,0,1,12.868,11.423l1.5,25.132a12.182,12.182,0,0,1-11.423,12.868l-47.217,2.809-.118-1.978.118,1.978C1637.689,2366.623,1637.445,2366.631,1637.2,2366.631Zm45.734-48.313q-.246,0-.493.015l-47.216,2.81a8.214,8.214,0,0,0-7.7,8.677l1.5,25.131a8.22,8.22,0,0,0,8.678,7.7l47.216-2.81a8.235,8.235,0,0,0,7.7-8.677l-1.5-25.132A8.215,8.215,0,0,0,1682.937,2318.318Z" transform="translate(-1623.548 -2314.356)"/></g></g><g transform="translate(989.668 644.293)"><g transform="translate(0)"><path class="a" d="M1699.937,2389.158a9.068,9.068,0,0,1-1.884.3l-47.22,2.809a10.2,10.2,0,0,1-9.606-5.425,10.011,10.011,0,0,1-1.159-4.138l-.669-11.163-.22-3.683-.612-10.281a10.216,10.216,0,0,1,9.563-10.772l10.2-.6a10.213,10.213,0,0,0-7.693,10.474l.8,13.573.69,11.562a10.22,10.22,0,0,0,10.772,9.563Z" transform="translate(-1638.549 -2346.197)"/></g></g><g class="d" transform="translate(990.298 665.952)"><g transform="translate(0)"><path class="b" d="M1704.076,2531.5a9.074,9.074,0,0,1-1.884.3l-47.22,2.808a10.2,10.2,0,0,1-10.765-9.563l-.889-14.846c1.344,2.552,3.669,5.646,7.1,5.781,1.884.078,3.648-1.38,5.162-3.392l.69,11.562a10.22,10.22,0,0,0,10.772,9.563Z" transform="translate(-1643.318 -2510.196)"/></g></g><g transform="translate(987.689 642.313)"><g transform="translate(0 0)"><path class="b" d="M1637.206,2381.249a12.2,12.2,0,0,1-12.126-11.445l-1.5-25.131a12.181,12.181,0,0,1,11.421-12.869l10.2-.6.6,3.9a8.211,8.211,0,0,0-6.2,8.44l1.495,25.132a8.231,8.231,0,0,0,8.672,7.7l37.036-2.207.621,3.893a11.392,11.392,0,0,1-2.283.358l-47.209,2.81Q1637.572,2381.248,1637.206,2381.249Zm1-45.667-2.963.176a8.215,8.215,0,0,0-7.7,8.678l1.495,25.133a8.231,8.231,0,0,0,8.672,7.7l3.3-.2a12.066,12.066,0,0,1-3.858-8.172l-1.495-25.13A12.135,12.135,0,0,1,1638.2,2335.582Z" transform="translate(-1623.562 -2331.198)"/></g></g><g transform="translate(1007.916 658.068)"><g transform="translate(0)"><path class="e" d="M1789.943,2458.862c.05.929-.854,8.5-.854,8.5l-5.3.284c-3.647.2-6.806-3.421-7.056-8.078s2.5-8.592,6.15-8.788l5.3-.285S1789.862,2457.348,1789.943,2458.862Z" transform="translate(-1776.721 -2450.499)"/></g></g><g class="d" transform="translate(1007.916 658.068)"><g transform="translate(0)"><path class="b" d="M1789.943,2458.862c.05.929-.854,8.5-.854,8.5l-5.3.284c-3.647.2-6.806-3.421-7.056-8.078s2.5-8.592,6.15-8.788l5.3-.285S1789.862,2457.348,1789.943,2458.862Z" transform="translate(-1776.721 -2450.499)"/></g></g><g transform="translate(1006.595 656.691)"><g transform="translate(0 0)"><path class="b" d="M1774.834,2459.927c-4.218,0-7.814-4.1-8.1-9.336a11.017,11.017,0,0,1,1.85-6.9,7.239,7.239,0,0,1,5.547-3.282l6.389-.343.261,1.063c.175.713,1.711,7.015,1.8,8.607h0c.052.968-.646,6.927-.861,8.731l-.131,1.1-6.4.344C1775.067,2459.924,1774.95,2459.927,1774.834,2459.927Zm3.644-17.1-4.2.225a4.658,4.658,0,0,0-3.525,2.159,8.371,8.371,0,0,0-1.377,5.239c.211,3.923,2.738,6.98,5.667,6.831l4.186-.225c.385-3.3.734-6.662.717-7.177C1779.9,2448.991,1779.1,2445.441,1778.477,2442.825Z" transform="translate(-1766.72 -2440.07)"/></g></g><g transform="translate(1012.774 657.713)"><g transform="translate(0 0)"><ellipse class="e" cx="6.612" cy="8.446" rx="6.612" ry="8.446" transform="matrix(0.999, -0.054, 0.054, 0.999, 0, 0.71)"/></g></g><g class="d" transform="translate(1013.213 663.878)"><path class="b" d="M1816.85,2497.47c.248,4.656,3.408,8.274,7.054,8.08s6.4-4.132,6.151-8.792a10.332,10.332,0,0,0-.259-1.829c-.766,3.25-3.059,5.659-5.891,5.807-3.149.169-5.939-2.5-6.795-6.245A10.584,10.584,0,0,0,1816.85,2497.47Z" transform="translate(-1816.835 -2494.491)"/></g><g transform="translate(1013.212 658.058)"><g transform="translate(0)"><path class="a" d="M1816.845,2459.222a9.073,9.073,0,0,0,.1.935c.528-3.688,2.975-6.526,6.055-6.689,3.4-.179,6.377,2.949,6.959,7.149a10.679,10.679,0,0,0,.1-2.108c-.249-4.655-3.408-8.274-7.054-8.079S1816.6,2454.562,1816.845,2459.222Z" transform="translate(-1816.829 -2450.423)"/></g></g><g transform="translate(1011.891 656.739)"><g transform="translate(0)"><path class="b" d="M1814.939,2459.961c-4.219,0-7.814-4.1-8.1-9.336-.289-5.377,3.03-9.943,7.4-10.178a7.231,7.231,0,0,1,5.867,2.669,11.019,11.019,0,0,1,2.578,6.658c.289,5.377-3.03,9.943-7.4,10.177C1815.172,2459.958,1815.055,2459.961,1814.939,2459.961Zm-.346-16.882c-.07,0-.14,0-.21.006-2.914.156-5.112,3.476-4.9,7.4s2.758,6.987,5.667,6.831,5.113-3.476,4.9-7.4a8.371,8.371,0,0,0-1.93-5.062A4.723,4.723,0,0,0,1814.592,2443.079Z" transform="translate(-1806.825 -2440.438)"/></g></g><g transform="translate(1032.352 640.882)"><g transform="translate(0)"><path class="b" d="M1963.883,2369.312a1.585,1.585,0,0,1-1.583-1.528l-.542-15.156a5.85,5.85,0,0,1,2.449-4.98l4-2.859a2.681,2.681,0,0,0,1.123-2.343l-1.144-20.409a1.585,1.585,0,0,1,3.166-.177l1.143,20.409a5.837,5.837,0,0,1-2.445,5.1l-4,2.858a2.689,2.689,0,0,0-1.125,2.288l.543,15.156a1.585,1.585,0,0,1-1.527,1.641Z" transform="translate(-1961.753 -2320.365)"/></g></g><g transform="translate(949.614 742.214)"><g transform="translate(0 0)"><path class="b" d="M1369.886,3098.417a91.189,91.189,0,0,1-33.459-6.964,1.981,1.981,0,0,1,1.607-3.621c.291.128,29.329,12.755,52.415,2.662a1.981,1.981,0,0,1,1.587,3.63A55.157,55.157,0,0,1,1369.886,3098.417Z" transform="translate(-1335.25 -3087.662)"/></g></g><g transform="translate(936.85 652.943)"><g transform="translate(0)"><path class="a" d="M1243.057,2411.7s-4.755,3.422-4.436,9.018a11.8,11.8,0,0,0,5.16,9.283s16.3,10.084,51.99,5.177c0,0,8.346-10.2-2.674-16.608C1293.1,2418.566,1260.736,2426.406,1243.057,2411.7Z" transform="translate(-1238.605 -2411.695)"/></g></g><g class="c" transform="translate(936.13 661.885)"><path class="b" d="M1233.151,2479.4h0a11.9,11.9,0,0,0,5.206,9.473s16.419,10.15,52.365,5.213c0,0,6.424-7.852.628-14.134,0,.041-.006.081-.01.121a8.715,8.715,0,0,1-7.792,7.8c-32.625,3.454-47.591-5.795-47.591-5.795A10.687,10.687,0,0,1,1233.151,2479.4Z" transform="translate(-1233.15 -2479.402)"/></g><g transform="translate(934.865 652.879)"><path class="b" d="M1263.885,2438.293c-22.847,0-33.658-6.491-34.2-6.827a13.764,13.764,0,0,1-6.095-10.856,11.489,11.489,0,0,1,1.017-5.405,6.771,6.771,0,0,1,4.215-3.7,6.843,6.843,0,0,1,5.62.746c14.685,9.19,36.852,5.818,43.3,4.566a6.824,6.824,0,0,1,5.643,1.435c4.712,3.865,5.64,9.46,2.546,15.35a6.873,6.873,0,0,1-5.249,3.623A138.407,138.407,0,0,1,1263.885,2438.293Zm-33.072-23.125a2.891,2.891,0,0,0-.839.125,2.773,2.773,0,0,0-1.751,1.534,7.576,7.576,0,0,0-.677,3.558,9.793,9.793,0,0,0,4.2,7.7c.173.105,15.6,9.233,48.451,5.209a2.911,2.911,0,0,0,2.224-1.533c2.235-4.253,1.713-7.767-1.55-10.444a2.878,2.878,0,0,0-2.376-.61c-6.8,1.322-30.239,4.863-46.152-5.1h0A2.877,2.877,0,0,0,1230.813,2415.168Z" transform="translate(-1223.572 -2411.207)"/></g><g transform="translate(917.581 589.426)"><g transform="translate(18.005 98.788)"><path class="a" d="M1229.029,2678.868c.835-.023,1.675-.041,2.521-.064A12.9,12.9,0,0,0,1229.029,2678.868Z" transform="translate(-1229.029 -2678.771)"/></g><g transform="translate(2.111 0.659)"><path class="a" d="M1168.585,1935.724l-7.572,24.554-.793,2.579-2.88,9.326-4.708,15.26c11.688,34.519,6.822,52.954,1.617,59.136a20.187,20.187,0,0,1-7.292,5.368c-.37.174-.745.338-1.131.491a36.542,36.542,0,0,1-16.148,2.578,29.7,29.7,0,0,1-13.31-3.968c-14.108-8.491-6.716-23.83,5.442-22.985,0,0-13.828-14.5-11.529-32.649,1.58-12.465,9.833-26.641,24.052-39.037q2.8-2.449,5.907-4.792,3.21-2.425,6.748-4.708,1.133-.737,2.3-1.448c.275-.18.555-.349.835-.518q4.716-2.845,9.955-5.4Q1164.181,1937.515,1168.585,1935.724Z" transform="translate(-1108.681 -1935.724)"/></g><g class="c" transform="translate(1.264 85.158)"><path class="b" d="M1110,2606.517a29.865,29.865,0,0,0,13.406,3.993c10.08.68,20.3-2.943,24.748-8.5,3.23-3.835,6.328-12.349,5.487-26.456-.6,8.889-3.007,14.594-5.487,17.537-4.444,5.553-14.668,9.177-24.748,8.5-2.722-.184-13.753-2.271-15.483-6.482-3.185-7.754,9.852-9.528,8.076-10.382-6-2.882-9.61.677-11.885,4.058C1100.758,2593.87,1101.53,2601.422,1110,2606.517Z" transform="translate(-1102.261 -2575.559)"/></g><g class="c" transform="translate(2.615 52.311)"><path class="b" d="M1138.728,2374.5s-22.614-24.439-24.189-47.657a42.444,42.444,0,0,0-1.788,7.792c-2.315,18.276,11.613,32.87,11.613,32.87a12.846,12.846,0,0,0-6.818,1.354C1122.085,2367.521,1129.627,2368.617,1138.728,2374.5Z" transform="translate(-1112.491 -2326.841)"/></g><g class="f" transform="translate(3.954 94.34)"><path class="g" d="M1122.635,2649.119a11.812,11.812,0,0,1,4.518-4.03C1124.653,2645.822,1123.068,2647.3,1122.635,2649.119Z" transform="translate(-1122.635 -2645.089)"/></g><g transform="translate(0)"><path class="b" d="M1139.419,1982.877a57.471,57.471,0,0,1,3.559,7.859q.741,2.022,1.382,4.085c.4,1.381.8,2.764,1.13,4.167a85.422,85.422,0,0,1,2.545,17.154,62.1,62.1,0,0,1-1.438,17.533,27.748,27.748,0,0,1-3.525,8.471,18.739,18.739,0,0,1-3.164,3.6,23.175,23.175,0,0,1-3.819,2.689,32.989,32.989,0,0,1-8.436,3.292,39.189,39.189,0,0,1-8.892,1.141,32.8,32.8,0,0,1-17.409-4.375,19.216,19.216,0,0,1-6.786-6.589,13.658,13.658,0,0,1-1.707-4.695,12.919,12.919,0,0,1,.182-5.051,13.669,13.669,0,0,1,5.631-8.064,14.812,14.812,0,0,1,9.407-2.479l-1.675,3.567a40.015,40.015,0,0,1-2.595-3.148q-1.2-1.6-2.273-3.277a52.564,52.564,0,0,1-3.791-7.021,41.476,41.476,0,0,1-3.7-15.624,41.941,41.941,0,0,1,2.955-15.778,64.589,64.589,0,0,1,7.519-13.911,95.655,95.655,0,0,1,22.135-22.014c1.043-.78,2.13-1.495,3.191-2.248,1.086-.715,2.158-1.454,3.248-2.162s2.176-1.427,3.295-2.091c1.107-.683,2.228-1.345,3.379-1.951,4.591-2.429,9.4-4.523,14.671-5.22a.728.728,0,0,1,.533,1.3l0,0c-4.2,3.15-8.648,5.422-13.026,7.893l-1.652.9-1.64.922c-1.105.6-2.176,1.249-3.258,1.885s-2.122,1.338-3.176,2.019c-1.025.721-2.072,1.413-3.076,2.163a91.454,91.454,0,0,0-21.158,21.022,60.371,60.371,0,0,0-7.03,12.989,37.749,37.749,0,0,0-2.68,14.164,37.264,37.264,0,0,0,3.337,14.019,48.366,48.366,0,0,0,3.486,6.455c.661,1.033,1.359,2.042,2.094,3.02.365.491.744.969,1.126,1.441s.8.951,1.147,1.328l3.683,3.949-5.359-.381a10.576,10.576,0,0,0-6.734,1.755,9.445,9.445,0,0,0-3.9,5.553,8.939,8.939,0,0,0,1.066,6.638,15.049,15.049,0,0,0,5.321,5.1,28.618,28.618,0,0,0,15.162,3.764,34.995,34.995,0,0,0,7.936-1.019,28.756,28.756,0,0,0,7.357-2.861,18.917,18.917,0,0,0,3.123-2.192,14.535,14.535,0,0,0,2.433-2.764,23.687,23.687,0,0,0,2.947-7.167,42.651,42.651,0,0,0,1.182-8.019,63.229,63.229,0,0,0-.069-8.231,138.056,138.056,0,0,0-2.345-16.462c-1.076-5.476-2.355-10.921-3.182-16.6a.716.716,0,0,1,1.334-.452Z" transform="translate(-1092.693 -1930.733)"/></g><g transform="translate(13 90.811)"><path class="b" d="M1193.6,2618.573c1.431.745,2.872,1.619,4.287,2.474s2.821,1.768,4.248,2.638,2.857,1.747,4.312,2.594c1.445.874,2.926,1.681,4.4,2.563l0,0a.239.239,0,0,1-.164.441,47.531,47.531,0,0,1-9.9-2.947,45.559,45.559,0,0,1-4.687-2.189,28.27,28.27,0,0,1-4.362-2.849,1.657,1.657,0,0,1,1.811-2.753Z" transform="translate(-1191.134 -2618.361)"/></g><g transform="translate(21.353 96.313)"><path class="b" d="M1257.681,2660.524a8.953,8.953,0,0,1,1.481,2.725,6.409,6.409,0,0,1,.274,3.305,4.185,4.185,0,0,1-.743,1.653,3.909,3.909,0,0,1-1.331,1.093,4.733,4.733,0,0,1-2.98.38,11.2,11.2,0,0,0,2.044-1.667,2.614,2.614,0,0,0,.7-1.778,5.532,5.532,0,0,0-.5-2.048,18.586,18.586,0,0,0-1.066-2.091l-.054-.095a1.321,1.321,0,0,1,2.18-1.477Z" transform="translate(-1254.382 -2660.028)"/></g><g transform="translate(4.106 68.814)"><path class="b" d="M1125.367,2461.467a1.586,1.586,0,0,1-.87-2.912c19.815-12.977,46.383-3.345,47.5-2.929a1.585,1.585,0,0,1-1.1,2.973c-.26-.1-26.2-9.481-44.664,2.608A1.578,1.578,0,0,1,1125.367,2461.467Z" transform="translate(-1123.78 -2451.798)"/></g></g><g transform="translate(930.547 451.921)"><g transform="translate(0 0)"><path class="b" d="M1192.153,889.791c.628.682,1.347,1.37,2.063,2.013s1.467,1.269,2.223,1.87a55.46,55.46,0,0,0,4.726,3.325,2.129,2.129,0,1,1-2.645,3.3l-.018-.018a59.078,59.078,0,0,1-4.073-4.611c-.631-.8-1.241-1.622-1.821-2.461s-1.126-1.681-1.643-2.608a.721.721,0,0,1,1.16-.84Z" transform="translate(-1190.875 -889.529)"/></g></g><g transform="translate(1023.206 769.782)"><g transform="translate(0)"><path class="b" d="M1917.76,3300.636c-.9-.24-1.987-.459-3-.643-1.039-.162-2.083-.32-3.136-.412a39.644,39.644,0,0,0-6.354-.136,43.755,43.755,0,0,0-6.363.824l-.8.157a6.767,6.767,0,0,0-.8.168c-.525.135-1.054.266-1.592.385-1.072.248-2.109.61-3.22.857a23.784,23.784,0,0,1,5.885-3.324,26.548,26.548,0,0,1,3.246-1.072c.548-.164,1.114-.244,1.673-.37s1.123-.23,1.691-.3a32.18,32.18,0,0,1,6.873-.3,32.623,32.623,0,0,1,3.435.406c.569.111,1.138.213,1.7.363a17.283,17.283,0,0,1,1.736.513,1.52,1.52,0,0,1-.88,2.908Z" transform="translate(-1892.498 -3296.41)"/></g></g><g transform="translate(948.763 770.889)"><path class="b" d="M1329.691,3306.768a15.909,15.909,0,0,1,1.661-.643c.542-.191,1.092-.333,1.641-.482a28.886,28.886,0,0,1,3.338-.625,28.257,28.257,0,0,1,6.753-.045,25.237,25.237,0,0,1,6.523,1.539,22.026,22.026,0,0,1,5.773,3.221c-1.087-.243-2.1-.6-3.144-.84-.525-.113-1.043-.237-1.555-.365a5.93,5.93,0,0,0-.777-.159l-.778-.142a36.305,36.305,0,0,0-6.208-.647,33.167,33.167,0,0,0-6.161.439c-1.016.152-2.019.374-3.014.6-.492.134-.989.255-1.471.4s-.988.306-1.385.448l-.1.035a1.477,1.477,0,0,1-1.1-2.741Z" transform="translate(-1328.811 -3304.792)"/></g><g transform="translate(890.936 431.974)"><g transform="translate(177.249 79.421)"><g transform="translate(0.38 0.38)"><path class="a" d="M2239.692,1390.215h0a1.542,1.542,0,0,1-1.613-1.467l-2.113-44.36a1.542,1.542,0,0,1,1.467-1.613h0a16.175,16.175,0,0,1,16.926,15.387l.72,15.127A16.175,16.175,0,0,1,2239.692,1390.215Z" transform="translate(-2235.964 -1342.756)"/></g><path class="b" d="M2237.122,1388.1a1.923,1.923,0,0,1-1.918-1.83l-2.112-44.36a1.921,1.921,0,0,1,1.828-2.011,16.565,16.565,0,0,1,17.323,15.749l.719,15.127a16.554,16.554,0,0,1-15.748,17.323h0Zm-1.406-47.46c-.252,0-.505.006-.76.018a1.162,1.162,0,0,0-1.105,1.216l2.112,44.36a1.156,1.156,0,0,0,.379.8,1.13,1.13,0,0,0,.837.3h0a15.813,15.813,0,0,0,15.026-16.528l-.72-15.126A15.816,15.816,0,0,0,2235.716,1340.636Z" transform="translate(-2233.09 -1339.876)"/></g><g class="d" transform="translate(179.176 103.241)"><path class="b" d="M2264.91,1520.243l.34,7.095a16.182,16.182,0,0,1-15.39,16.928,1.545,1.545,0,0,1-1.614-1.47l-.565-11.792a1.544,1.544,0,0,0,1.445.847l1.052-.053A16.161,16.161,0,0,0,2264.91,1520.243Z" transform="translate(-2247.681 -1520.243)"/></g><g transform="translate(175.515 77.688)"><path class="b" d="M2225.723,1378.438a3.656,3.656,0,0,1-3.647-3.481l-2.112-44.36a3.655,3.655,0,0,1,3.477-3.825,18.306,18.306,0,0,1,19.138,17.4l.719,15.127a18.289,18.289,0,0,1-17.4,19.137h0C2225.842,1378.437,2225.782,1378.438,2225.723,1378.438Zm-1.508-47.46,2.056,43.195a14.062,14.062,0,0,0,12.806-14.676l-.72-15.127a14.08,14.08,0,0,0-14.038-13.393Z" transform="translate(-2219.96 -1326.751)"/></g><g transform="translate(16.891 86.41)"><g transform="translate(0.38 0.38)"><path class="a" d="M1037.114,1395.674h0a1.542,1.542,0,0,1,1.613,1.467l2.112,44.36a1.541,1.541,0,0,1-1.467,1.613h0a16.174,16.174,0,0,1-16.926-15.387l-.72-15.127A16.174,16.174,0,0,1,1037.114,1395.674Z" transform="translate(-1021.708 -1395.672)"/></g><path class="b" d="M1036.1,1441.014a16.575,16.575,0,0,1-16.527-15.768l-.72-15.126A16.554,16.554,0,0,1,1034.6,1392.8h0a1.92,1.92,0,0,1,2.011,1.828l2.112,44.36a1.921,1.921,0,0,1-1.828,2.011Q1036.5,1441.014,1036.1,1441.014Zm-1.406-47.46h-.057a15.813,15.813,0,0,0-15.026,16.529l.72,15.127a15.818,15.818,0,0,0,15.769,15.045c.252,0,.5-.006.759-.018a1.162,1.162,0,0,0,1.106-1.216l-2.112-44.36a1.162,1.162,0,0,0-1.159-1.107Z" transform="translate(-1018.833 -1392.794)"/></g><g class="d" transform="translate(17.707 112.473)"><path class="b" d="M1043.128,1597.985l.584,12.306a1.545,1.545,0,0,1-1.47,1.614,16.168,16.168,0,0,1-16.923-15.385l-.3-6.374a16.181,16.181,0,0,0,15.17,8.789l1.619-.077A1.56,1.56,0,0,0,1043.128,1597.985Z" transform="translate(-1025.016 -1590.146)"/></g><g transform="translate(15.157 84.676)"><path class="b" d="M1024.7,1431.355a18.312,18.312,0,0,1-18.258-17.419l-.72-15.126a18.289,18.289,0,0,1,17.4-19.138h0a3.656,3.656,0,0,1,3.825,3.477l2.112,44.36a3.656,3.656,0,0,1-3.477,3.825Q1025.14,1431.355,1024.7,1431.355Zm-1.95-47.422a14.062,14.062,0,0,0-12.806,14.675l.72,15.127a14.087,14.087,0,0,0,14.142,13.393Z" transform="translate(-1005.703 -1379.668)"/></g><g class="c" transform="translate(59.698 139.433)"><path class="b" d="M1455.538,1807.308a76.5,76.5,0,0,1-26.616,26.566,76.109,76.109,0,0,1-85.947-5.58q3.233-2.442,6.8-4.74,1.142-.742,2.321-1.457a110.993,110.993,0,0,0,2.762-17.342c.617-9.011,57.41-16.033,77.677-4.256l6.216,8.517C1443.681,1808.616,1449.5,1808.063,1455.538,1807.308Z" transform="translate(-1342.975 -1794.293)"/></g><g transform="translate(0 0)"><g transform="translate(0)"><circle class="a" cx="75.678" cy="75.678" r="75.678" transform="translate(0 107.025) rotate(-45)"/></g><g transform="translate(30.967 30.967)"><path class="b" d="M1201.526,1125.09c-.609,0-1.216-.007-1.827-.021a76.058,76.058,0,1,1,77.818-74.256l-.379-.009.379.009a76.059,76.059,0,0,1-75.99,74.278Zm-.093-151.357a75.336,75.336,0,1,0,1.809.021Q1202.337,973.732,1201.433,973.732Z" transform="translate(-1125.421 -972.972)"/></g></g><g class="d" transform="translate(31.344 98.307)"><path class="b" d="M1279.135,1482.883a75.681,75.681,0,1,1-150.838,6.947c.027-1.2.083-2.4.169-3.587a75.682,75.682,0,0,0,150.669-3.36Z" transform="translate(-1128.276 -1482.883)"/></g><g transform="translate(29.233 29.232)"><path class="b" d="M1190.132,1115.426c-.623,0-1.244-.007-1.869-.022a77.792,77.792,0,1,1,79.591-75.949l-2.113-.049,2.113.049a77.793,77.793,0,0,1-77.722,75.971Zm-.093-151.358a73.6,73.6,0,1,0,1.768.021Q1190.922,964.069,1190.039,964.068Z" transform="translate(-1112.292 -959.841)"/></g><g transform="translate(31.982 54.671)"><path class="b" d="M1283.524,1208.527a67.878,67.878,0,0,1-13.36,39.824c-6.234,8.477-31.7,23.192-62.984,23.213-29.012.02-55.277-15.667-61.37-24.246a67.882,67.882,0,0,1-12.7-40.041c.326-39.188,34.13-55.154,75.666-54.808S1283.85,1169.339,1283.524,1208.527Z" transform="translate(-1133.111 -1152.464)"/></g><g transform="translate(29.869 52.558)"><path class="b" d="M1193.234,1259.79c-30.088,0-56.627-16.109-63.037-25.135a69.922,69.922,0,0,1-13.087-41.282c.16-19.276,8.015-34.075,23.345-43.987,13.358-8.636,32.19-13.089,54.452-12.918s41.017,4.964,54.23,13.821c15.163,10.165,22.771,25.092,22.611,44.368h0a69.925,69.925,0,0,1-13.771,41.058c-6.166,8.383-31.47,24.051-64.686,24.074Zm.474-119.1c-22.562,0-71.978,5.421-72.371,52.718a65.718,65.718,0,0,0,12.307,38.8c5.792,8.156,31.357,23.356,59.591,23.356h.054c31.319-.021,55.737-14.811,61.283-22.352a65.721,65.721,0,0,0,12.949-38.589c.4-48.124-50.672-53.744-72.649-53.927C1194.493,1140.692,1194.1,1140.691,1193.708,1140.691Zm75.927,53.95h0Z" transform="translate(-1117.107 -1136.464)"/></g><g class="h" transform="translate(146.148 97.05)"><g transform="translate(0 0)"><ellipse class="a" cx="12.216" cy="8.852" rx="12.216" ry="8.852" transform="translate(0 24.004) rotate(-79.253)"/></g></g><g class="h" transform="translate(139.723 127.958)"><g transform="translate(0 0)"><ellipse class="a" cx="5.607" cy="4.812" rx="5.607" ry="4.812" transform="matrix(0.32, -0.947, 0.947, 0.32, 0, 10.623)"/></g></g><g class="d" transform="translate(75.065 74.054)"><path class="i" d="M1552.348,1299.237c9.121,8.849,14.451,20.939,14.322,36.678a67.917,67.917,0,0,1-13.357,39.826c-6.236,8.477-31.7,23.191-62.988,23.215a93.353,93.353,0,0,1-30.984-5.553c38.46-.85,69.476-18.911,77.207-29.425a86.127,86.127,0,0,0,16.954-50.542A76.62,76.62,0,0,0,1552.348,1299.237Z" transform="translate(-1459.341 -1299.237)"/></g><g transform="translate(35.807 44.679)"><path class="b" d="M1302.467,1110.554a2.1,2.1,0,0,1-1.326-.471l-.229-.186-.18-.25c-12.564-17.93-37.056-28.358-67.2-28.609-30.315-.262-54.945,10.1-67.6,28.4l-.148.19a2.087,2.087,0,0,1-2.952.283,2.139,2.139,0,0,1-.341-2.928c13.475-19.437,39.392-30.434,71.077-30.168,31.5.262,57.226,11.331,70.593,30.368a2.115,2.115,0,0,1-1.7,3.375Z" transform="translate(-1162.067 -1076.806)"/></g><g class="h" transform="translate(44.499 71.025)"><path class="a" d="M1231.061,1341.179s-11.287-37.024,8.737-51.574,48.656-14.253,47.971-12.422c0,0-31.762,7.411-44.373,32.367C1233.671,1328.794,1231.061,1341.179,1231.061,1341.179Z" transform="translate(-1227.891 -1276.297)"/></g></g><g transform="translate(927.398 452.924)"><g transform="translate(0 0)"><path class="a" d="M1167.034,908.7c1.3,6.027,6.372,21.153,9.048,28.942,1,2.917,1.657,4.8,1.657,4.8,55.814,7.316,99.017-21.9,99.017-21.9a74.486,74.486,0,0,0,.285-8.981,90.814,90.814,0,0,0-1.481-14.438Z" transform="translate(-1167.034 -897.124)"/></g></g><g transform="translate(925.284 450.812)"><g transform="translate(0 0)"><path class="b" d="M1181.253,930.341a155.049,155.049,0,0,1-20.164-1.3l-1.4-.183-.368-1.361c-.264-.976-6.484-23.99-8.257-32.229a2.113,2.113,0,0,1,4.132-.89c1.506,6.995,6.444,25.466,7.837,30.648a151.533,151.533,0,0,0,18.248,1.089c38.684,0,70.033-14.261,79.765-19.228a1.835,1.835,0,0,0,1-1.738,206.721,206.721,0,0,0-2.469-21.532,2.114,2.114,0,0,1,4.161-.744,211.679,211.679,0,0,1,2.527,22.033,6.062,6.062,0,0,1-3.3,5.746C1253.006,915.739,1220.9,930.34,1181.253,930.341Z" transform="translate(-1151.019 -881.13)"/></g></g><g class="c" transform="translate(926.362 448.11)"><g transform="translate(0 0)"><path class="b" d="M1159.185,872.247c1.3,6.027,6.372,21.153,9.048,28.941a28.173,28.173,0,0,0,23.313-14.8,43.268,43.268,0,0,0,42.764,6.482,42.558,42.558,0,0,0,20.89-17.757,28.379,28.379,0,0,0,13.992,0,90.817,90.817,0,0,0-1.481-14.438Z" transform="translate(-1159.185 -860.669)"/></g></g><g transform="translate(903.026 387.273)"><g transform="translate(0)"><path class="a" d="M984.622,475.595c6.007,15.163,22.854,22.7,37.619,16.854a28.122,28.122,0,0,0,14.438-12.859,43.276,43.276,0,0,0,42.764,6.484,42.567,42.567,0,0,0,20.891-17.76,28.239,28.239,0,0,0,17.359-1.1c15.182-6.015,22.318-23.936,15.945-40.022-6.38-16.1-23.853-24.276-39.035-18.262a26.73,26.73,0,0,0-3.757,1.824,42.961,42.961,0,0,0-71.016,26.25,28.175,28.175,0,0,0-19.345.525C985.719,443.381,978.608,460.413,984.622,475.595Z" transform="translate(-982.484 -400.005)"/></g></g><g transform="translate(902.458 387.442)"><g class="c" transform="translate(0 0)"><path class="b" d="M978.241,465.934a30.626,30.626,0,0,0,1.046,3.654c5.487,15.359,22.067,23.47,37.023,18.127a28.123,28.123,0,0,0,14.868-12.359,43.274,43.274,0,0,0,42.518,7.938,42.567,42.567,0,0,0,21.484-17.037,28.24,28.24,0,0,0,17.386-.507c12.623-4.509,20.094-17.222,19.149-30.644a33.41,33.41,0,0,0-1.189-4.189c-5.827-16.312-23.012-25.075-38.39-19.582a26.734,26.734,0,0,0-3.818,1.694,42.96,42.96,0,0,0-71.869,23.814,28.174,28.174,0,0,0-19.352-.134,28.95,28.95,0,0,0-18.669,31.165C978.346,467.227,978.282,466.58,978.241,465.934Z" transform="translate(-978.181 -401.283)"/></g></g><g transform="translate(906.634 387.272)"><path class="a" d="M1146.755,452.555c8.637-3.65,9.573-9.421,12.7-14.1.058-.5.1-1,.131-1.5a33.042,33.042,0,0,0-2.239-9.774c-6.382-16.1-23.854-24.274-39.037-18.263a26.886,26.886,0,0,0-3.756,1.826,43.382,43.382,0,0,0-44.314-7.757,42.6,42.6,0,0,0-21.449,18.74c-.305.528-.592,1.058-.854,1.589a44.068,44.068,0,0,0-4.4,13.677,28.182,28.182,0,0,0-32.22,10.826c-.541.79-1.032,1.612-1.492,2.451a21.526,21.526,0,0,0,1.563,9.04c6.007,15.16,17.676,21.557,30.477,12.332,7.831-5.644,5.889-13.246,6.188-18.859,9.55,15.47,33.78,25.643,55.836,15.118,11.952-5.7,20.289-17.372,22.07-25.294C1132.509,458.166,1141.1,454.942,1146.755,452.555Z" transform="translate(-1009.8 -399.999)"/></g><g transform="translate(900.343 385.336)"><g transform="translate(0 0)"><path class="b" d="M993.593,482.261a30.672,30.672,0,0,1-13.511-3.168,31.829,31.829,0,0,1-16.022-18.014c-5.873-16.439,2.4-34.473,18.43-40.2a30.434,30.434,0,0,1,18.483-.611,45.032,45.032,0,0,1,73.779-23.617,29.987,29.987,0,0,1,2.777-1.146c16.45-5.875,34.883,3.482,41.091,20.861a34.207,34.207,0,0,1-.755,25.337,30.65,30.65,0,0,1-17.824,16.819,30.232,30.232,0,0,1-17.18.94,44.474,44.474,0,0,1-21.69,16.6,45.6,45.6,0,0,1-42.716-6.813,30.32,30.32,0,0,1-24.861,13.009Zm-25.552-22.6a27.626,27.626,0,0,0,13.9,15.64,26.121,26.121,0,0,0,20.422,1.208,25.858,25.858,0,0,0,13.755-11.437l1.268-2.165,1.918,1.618a41.414,41.414,0,0,0,40.444,7.564,40.34,40.34,0,0,0,20.422-16.2l.852-1.315,1.506.434a26.1,26.1,0,0,0,16.091-.466A26.463,26.463,0,0,0,1113.993,440a30,30,0,0,0,.645-22.218c-5.424-15.183-21.433-23.394-35.688-18.3a24.5,24.5,0,0,0-3.517,1.56l-1.329.724-1.114-1.026a40.847,40.847,0,0,0-68.359,22.644l-.457,2.47-2.356-.872a26.231,26.231,0,0,0-17.907-.126c-13.84,4.944-20.959,20.555-15.871,34.8Z" transform="translate(-962.169 -385.335)"/></g></g><g transform="translate(1018.468 445.27)"><g transform="translate(0 0)"><path class="b" d="M1861.734,839.17a9.047,9.047,0,0,1,.657,3.175,16.5,16.5,0,0,1-.218,3.1,23.325,23.325,0,0,1-.669,3.006,16.484,16.484,0,0,1-1.128,2.853,1.99,1.99,0,0,1-3.68-1.456l.012-.041c.258-.925.619-1.8.964-2.692.372-.879.732-1.762,1.134-2.639s.774-1.766,1.244-2.644A20.5,20.5,0,0,1,1861.734,839.17Z" transform="translate(-1856.623 -839.17)"/></g></g><g transform="translate(950.198 455.285)"><g transform="translate(0)"><path class="b" d="M1339.718,915a16.917,16.917,0,0,1,2.385,2.182c.7.76,1.3,1.559,1.9,2.353s1.178,1.6,1.748,2.41a27.169,27.169,0,0,1,1.555,2.52l.023.044a1.988,1.988,0,0,1-3.319,2.154,22.181,22.181,0,0,1-3.056-5.4,18.99,18.99,0,0,1-.985-2.983A10.515,10.515,0,0,1,1339.718,915Z" transform="translate(-1339.675 -915)"/></g></g><g transform="translate(1075.604 508.778)"><g transform="translate(3.302 47.127)"><ellipse class="j" cx="53.864" cy="17.146" rx="53.864" ry="17.146"/></g><g transform="translate(3.302 47.127)"><ellipse class="j" cx="53.864" cy="17.146" rx="53.864" ry="17.146"/></g><g transform="translate(0 43.826)"><path class="b" d="M2346.433,1655.216c29.748,0,53.864,7.677,53.864,17.146s-24.116,17.146-53.864,17.146-53.864-7.676-53.864-17.146,24.115-17.146,53.864-17.146m0-3.3c-14.718,0-28.6,1.839-39.089,5.177-14.94,4.755-18.077,10.929-18.077,15.27s3.136,10.514,18.077,15.27c10.489,3.339,24.371,5.177,39.089,5.177s28.6-1.839,39.089-5.177c14.94-4.756,18.077-10.929,18.077-15.27s-3.136-10.514-18.077-15.27c-10.489-3.339-24.371-5.177-39.089-5.177Z" transform="translate(-2289.267 -1651.915)"/></g><g transform="translate(5.28 10.465)"><path class="k" d="M2433.019,1444.686c0,25.066-103.772,25.066-103.772,0s23.23-45.385,51.886-45.385S2433.019,1419.62,2433.019,1444.686Z" transform="translate(-2329.247 -1399.301)"/></g><g class="h" transform="translate(5.278 9.804)"><path class="a" d="M2422.909,1412.782c-9.459-8.784-22.879-14.266-37.766-14.266-28.654,0-51.885,20.319-51.885,45.387a8.99,8.99,0,0,0,1.348,4.715c-3.4-2.5-5.374-5.482-5.374-8.936,0-25.068,23.231-45.387,51.89-45.387C2398.266,1394.295,2413.47,1401.57,2422.909,1412.782Z" transform="translate(-2329.232 -1394.295)"/></g><g class="c" transform="translate(5.334 10.836)"><path class="b" d="M2431.4,1443.163c0,22.977-87.232,24.892-101.738,5.731,29.006,9.625,88.073,4.979,88.073-13.929,0-12.927-6.175-24.589-16.083-32.856C2419.233,1409.369,2431.4,1425.022,2431.4,1443.163Z" transform="translate(-2329.66 -1402.109)"/></g><g transform="translate(3.299 8.484)"><path class="b" d="M2368.114,1452.447c-13.794,0-26.677-1.7-36.279-4.8-14.537-4.681-17.588-11.277-17.588-15.985,0-26.117,24.164-47.366,53.867-47.366s53.867,21.249,53.867,47.366C2421.981,1446.022,2394.927,1452.447,2368.114,1452.447Zm0-64.184c-27.518,0-49.905,19.471-49.905,43.4,0,9.588,21.455,16.818,49.905,16.818s49.9-7.23,49.9-16.818C2418.019,1407.734,2395.632,1388.263,2368.114,1388.263Z" transform="translate(-2314.247 -1384.301)"/></g><g transform="translate(52.136 1.651)"><path class="k" d="M2694.1,1343.148h0a10.424,10.424,0,0,1-10.06,0h0v-5.559a5.03,5.03,0,0,1,5.031-5.03h0a5.03,5.03,0,0,1,5.03,5.03Z" transform="translate(-2684.044 -1332.559)"/></g><g class="h" transform="translate(52.136 1.65)"><path class="a" d="M2693.51,1335.215a5.032,5.032,0,0,0-7.427,4.426V1344a10.431,10.431,0,0,1-2.037-.855v-5.56a5.027,5.027,0,0,1,8.584-3.557A5.111,5.111,0,0,1,2693.51,1335.215Z" transform="translate(-2684.046 -1332.557)"/></g><g class="d" transform="translate(52.136 2.266)"><path class="b" d="M2694.105,1341.635v5.56a10.427,10.427,0,0,1-10.059,0v-2.306l.076.019a6.128,6.128,0,0,0,7.5-6.009v-.547a5.055,5.055,0,0,0-.127-1.133,5.164,5.164,0,0,1,1.139.86A5,5,0,0,1,2694.105,1341.635Z" transform="translate(-2684.046 -1337.218)"/></g><g transform="translate(50.485)"><path class="b" d="M2678.225,1335.253a12.058,12.058,0,0,1-5.826-1.507l-.855-.471v-6.535a6.681,6.681,0,0,1,13.363,0v6.535l-.854.471A12.059,12.059,0,0,1,2678.225,1335.253Zm5.03-2.953h0Zm-8.409-1.033a8.713,8.713,0,0,0,6.759,0v-4.527a3.379,3.379,0,0,0-6.759,0Z" transform="translate(-2671.544 -1320.06)"/></g><g class="l" transform="translate(20.86 25.893)"><path class="a" d="M2447.235,1534.546c.423-7.361,7.413-14.192,14.561-17.263,6.882-2.956,12.815.212,8.738,4.342-1.468,1.487-6.355,3.548-11.6,12.179C2455.642,1539.229,2446.819,1541.761,2447.235,1534.546Z" transform="translate(-2447.221 -1516.126)"/></g></g></g></svg>