<svg xmlns="http://www.w3.org/2000/svg" xmlns:xlink="http://www.w3.org/1999/xlink" width="945.158" height="630.852" viewBox="0 0 945.158 630.852"><defs><style>.a{fill:url(#a);}</style><linearGradient id="a" x1="0.936" y1="0.199" x2="0.203" y2="0.927" gradientUnits="objectBoundingBox"><stop offset="0.004" stop-color="#fafafa"/><stop offset="1" stop-color="#dbdbdb"/></linearGradient></defs><path class="a" d="M155.883,507.985c0-159.379,202.765-310.145,418.241-310.145s390.148,129.2,390.148,288.582S789.589,775,574.124,775,155.883,667.364,155.883,507.985ZM901.7,251.039c34.556,0,62.57-23.926,62.57-53.443s-28.014-53.443-62.57-53.443-62.57,23.926-62.57,53.443S867.146,251.039,901.7,251.039ZM1064.536,270.6a36.5,36.5,0,1,0-36.491-36.494A36.5,36.5,0,0,0,1064.536,270.6Z" transform="translate(-155.883 -144.152)"/></svg>