<svg xmlns="http://www.w3.org/2000/svg" width="334.194" height="416.824" viewBox="0 0 334.194 416.824"><defs><style>.a{fill:#fff;}.b{opacity:0.35;}.c{fill:#371a45;}.d{fill:#220f2d;}.e{opacity:0.5;}.f{fill:#22a7f0;}</style></defs><g transform="translate(-869.015 -545.964)"><g transform="translate(1059.88 711.899)"><g transform="translate(3.069 2.513)"><path class="a" d="M2181.634,1694.832l3.72,13.326,1.892,6.788L2219.91,1832s7.855-2.68,18.1-7.121c2-.869,4.1-1.8,6.246-2.8,15.995-7.412,34.781-18.176,39.355-29.4,6.836-16.787-13.5-79.5-32.485-100.454-8.7-9.607-34.133-6.032-51.695-2.1-1.963.436-3.83.881-5.56,1.314C2186.571,1693.255,2181.634,1694.832,2181.634,1694.832Z" transform="translate(-2181.634 -1686.084)"/></g><g class="b" transform="translate(6.79 17.491)"><path class="c" d="M2206.816,1794.551l1.892,6.789,25.935,92.945,6.728,24.112.475-.165c.088-.033.193-.069.3-.108l.286-.1c.077-.024.153-.054.229-.077.029-.013.065-.021.093-.034.14-.051.3-.106.462-.168a.9.9,0,0,0,.111-.038c.135-.05.275-.1.427-.155.2-.072.414-.152.636-.234.157-.061.327-.119.5-.183l.531-.2c.228-.084.466-.176.712-.264.495-.189,1.02-.385,1.572-.6.49-.181,1-.38,1.536-.591.615-.242,1.261-.49,1.928-.757,2.466-.981,5.278-2.135,8.3-3.446.587-.254,1.186-.518,1.79-.782.42-.185.85-.378,1.281-.571,1.039-.465,2.106-.949,3.176-1.447,16-7.413,34.781-18.176,39.349-29.4,5.633-13.823-7.155-58.789-22.455-85.937,9.863,24.839,16.083,52.934,11.836,63.352-2.1,5.151-20.662-4.308-23.137-12.5-6.384-21.131-18.73-46.947-43.364-56.525C2227.306,1787.215,2216.516,1792.412,2206.816,1794.551Z" transform="translate(-2206.816 -1787.455)"/></g><path class="c" d="M2200.5,1820.744l-39.637-142.065,2.306-.737a232.759,232.759,0,0,1,29.94-7.093c21.667-3.535,35.856-1.789,42.178,5.188,19.81,21.861,40.133,85.451,32.948,103.095-8.651,21.243-62.913,39.967-65.219,40.753Zm-33.49-138.731,36.891,132.22c10.774-3.94,52.861-20.254,59.68-37,2.9-7.125.3-25.553-6.622-46.946-7.1-21.928-16.829-41.423-25.4-50.878C2221.65,1668.474,2183.618,1677.016,2167.008,1682.012Z" transform="translate(-2160.86 -1669.072)"/><g transform="translate(68.503 60.08)"><path class="a" d="M2649.482,2076.074l-22.075,9.151a4.68,4.68,0,0,0-2.849,4.97c1.083,7.737,4.511,25.476,13.464,28.759,7.431,2.725,16.823-.973,20.868-7.567,4.526-7.375-.357-24.273-3.18-32.5A4.685,4.685,0,0,0,2649.482,2076.074Z" transform="translate(-2624.513 -2075.715)"/></g><g class="b" transform="translate(68.504 72.82)"><path class="c" d="M2624.567,2163.687c1.079,7.735,4.511,25.474,13.464,28.755,7.433,2.727,16.822-.972,20.87-7.568,2.78-4.537,2-12.676.337-20.182a20,20,0,0,1-1.809,10.032c-7.759,14.84-20.577,4.575-20.577,4.575s-.433,3.66-1.552,4.228c-4.678,2.373-8.736-13.381-10.646-21.582A4.548,4.548,0,0,0,2624.567,2163.687Z" transform="translate(-2624.521 -2161.944)"/></g><g transform="translate(65.99 57.571)"><path class="c" d="M2628.789,2107.894a17.769,17.769,0,0,1-6.125-1.053c-9.888-3.626-13.7-20.835-15.088-30.77a7.2,7.2,0,0,1,4.376-7.64l22.074-9.15h0a7.2,7.2,0,0,1,9.568,4.313c3.957,11.541,7.68,26.917,2.945,34.635A21.267,21.267,0,0,1,2628.789,2107.894Zm8-44.139a2.168,2.168,0,0,0-.836.168h0l-22.075,9.151a2.167,2.167,0,0,0-1.323,2.3c2.07,14.789,6.5,24.788,11.841,26.749,6.132,2.249,14.313-.738,17.862-6.522,2.812-4.582,1.535-15.937-3.416-30.375a2.176,2.176,0,0,0-2.053-1.47Zm-1.8-2.153h0Z" transform="translate(-2607.506 -2058.733)"/></g><g transform="translate(76.51 76.478)"><path class="c" d="M2696.164,2215.223a9.414,9.414,0,0,1-1.3-.365c-.38-.135-.752-.279-1.106-.441a16.716,16.716,0,0,1-2.048-1.074,19.974,19.974,0,0,1-3.56-2.755,25.359,25.359,0,0,1-5.124-7.028,35.646,35.646,0,0,1-1.657-3.923c-.513-1.326-.871-2.641-1.261-3.98-.373-1.337-.7-2.689-.958-4.061-.124-.688-.241-1.377-.321-2.077a14.414,14.414,0,0,1-.117-2.179.662.662,0,0,1,1.322-.022l0,.072a13.943,13.943,0,0,0,.292,1.884c.138.645.31,1.289.49,1.929.37,1.281.806,2.547,1.288,3.8s.978,2.521,1.568,3.689a32.912,32.912,0,0,0,1.858,3.452,22.089,22.089,0,0,0,5.026,5.694,16.145,16.145,0,0,0,3.1,1.959,12.64,12.64,0,0,0,1.644.672c.277.1.55.171.821.239a5.26,5.26,0,0,0,.68.127,2.232,2.232,0,1,1-.491,4.42Z" transform="translate(-2678.705 -2186.7)"/></g><g transform="translate(36.507 4.734)"><path class="c" d="M2408.678,1713.375c2.668-1.3,5.338-2.52,8.043-3.709s5.427-2.326,8.193-3.391,5.554-2.09,8.423-2.97a62.433,62.433,0,0,1,8.893-2.16,2.515,2.515,0,1,1,.761,4.971c-.057.009-.113.016-.169.02l-.025,0a58.05,58.05,0,0,0-8.293,1.427c-2.788.647-5.568,1.454-8.336,2.306s-5.524,1.787-8.264,2.768-5.477,2.01-8.157,3.1l-.013.005a1.3,1.3,0,0,1-1.055-2.365Z" transform="translate(-2407.951 -1701.115)"/></g></g><g transform="translate(871.544 656.77)"><path class="a" d="M985.152,1375.917c2.778,6.255,6.762,12.456,8.028,15.755l-6.527,11.5-7.4,13.028q-5.588.645-10.748.958c-61.607,3.807-79.717-25.951-81.742-40.183-4.008-28.176,12.052-46.052,19.474-53.327a47.577,47.577,0,0,1,3.8-3.321c24.5-19.3,88.632-37.37,107.174-11.645,10.447,14.482,3.237,39.288-29.222,49.08C980.046,1360.159,981.66,1368.076,985.152,1375.917Z" transform="translate(-886.134 -1295.939)"/></g><g class="b" transform="translate(871.544 724.59)"><path class="c" d="M989.433,1775.569a74.023,74.023,0,0,1,3.748,7.309l-13.923,24.531c-70.278,8.14-90.353-24.2-92.49-39.226a60.784,60.784,0,0,1-.465-13.218c.081.853,1.592,12.045,1.8,12.907,3.916,16.184,41.206,36.4,51.948,30.989,2.642-1.332,4.652-2.925,5.874-3.341,2.227-.758,3.358,2.423,6.814,2.207,3.163-.2,3.485-5.532,5.923-4.851,1.959.547,4.366,5.317,7.238,5.156Z" transform="translate(-886.135 -1754.966)"/></g><g transform="translate(869.015 654.256)"><path class="c" d="M943.242,1405.519c-21.168,0-38.508-4.223-51.723-12.625-14.23-9.046-20.609-21.463-21.833-30.067-2.953-20.762,3.844-39.427,20.206-55.474,15.4-15.109,56.425-30.7,86.226-28.156,13.3,1.135,22.9,5.682,28.551,13.514,5.093,7.063,6.309,16.144,3.338,24.915-4.273,12.616-16.621,22.836-33.877,28.04-18.519,5.585-40.1,14.874-42.685,20.142a.856.856,0,0,0-.132.47,2.513,2.513,0,1,1-4.691,1.8,5.468,5.468,0,0,1,.31-4.484c5.084-10.377,44.089-22.243,45.747-22.743,15.681-4.729,26.823-13.783,30.568-24.84a22.2,22.2,0,0,0-2.655-20.364c-4.751-6.589-13.13-10.44-24.9-11.446-28.031-2.4-67.938,12.669-82.279,26.737-15.157,14.867-21.465,32.086-18.749,51.179,2.3,16.154,24.007,44.694,89.718,37.082a2.513,2.513,0,1,1,.578,4.992A189.158,189.158,0,0,1,943.242,1405.519Z" transform="translate(-869.015 -1278.922)"/></g><g transform="translate(889.043 634.9)"><path class="a" d="M1315.642,1175.145a49.4,49.4,0,0,1-5.546,14.623c-20.9,37.7-94.244,67.618-94.244,67.618s4.163,13.064,13.177,36.3c.209.543.424,1.087.639,1.643,2.784,7.135,6.009,15.187,9.692,24.074,4.314,10.4,9.26,21.963,14.874,34.535,13.48,30.227,25.081,70.086,25.081,70.086s32.2,10.943,31.745,30.839a18.508,18.508,0,0,1-.362,3.26c-3.785,19.127-77.572,15.124-83.758,6.065-7.411-10.844-10.4-20.231-17.707-36.725-5.414-12.211-11.141-24.826-23.745-35.049-14.253-10.477-37.688-10.594-52.834-9.2-21.777,2.014-25.373,15.471-28.112,25.223-4.568,16.23-1.829,49.663-17.323,59.2-8.47,5.216-78.271,13.287-82.332-10.673a18.781,18.781,0,0,1,1.853-12.327c5.954-11.129,22.141-14.791,22.141-14.791s-1.618-26.231-.021-40.659c3.939-35.658,48.285-52,48.285-52s-.156-3.453-1.83-14.624c-2.069-13.8-4.244-24.453-5.866-31.554-1.554-6.775-2.61-10.335-2.61-10.335l-4.1-12-2.315-6.783,25.666-12.121,97.1-45.859c3.157-1.961,6.661-4.279,10.438-6.84,28.74-19.5,73.363-52.959,102.812-48.793C1311.456,1150.4,1318.341,1160.908,1315.642,1175.145Z" transform="translate(-1004.576 -1147.917)"/></g><g class="b" transform="translate(1071.389 662.128)"><path class="c" d="M2367.475,1332.2a49.422,49.422,0,0,1-5.546,14.623c-20.9,37.7-94.244,67.618-94.244,67.618s4.164,13.064,13.177,36.3l-4.694,2.153c-5.416-16.741-23.467-7.631-24.663-14.4-.6-3.415,10.062-6.753,6.7-13.194s-19.724-2.42-19.446-7.619c.219-3.986,9.08-3.371,15.182-4.985s-3.282-10.319-3.932-13.162c-1.025-4.446,8.812-.616,20.61-1.513C2319.028,1394.353,2354.773,1350.256,2367.475,1332.2Z" transform="translate(-2238.755 -1332.201)"/></g><g class="b" transform="translate(889.043 847.278)"><path class="c" d="M1311.061,2679.934a18.508,18.508,0,0,1-.362,3.26c-3.785,19.127-77.572,15.124-83.758,6.065-7.411-10.844-10.4-20.231-17.707-36.725-5.414-12.211-11.141-24.826-23.745-35.05-14.253-10.477-37.688-10.594-52.834-9.2-21.777,2.014-25.373,15.472-28.112,25.223-4.568,16.229-1.829,49.663-17.323,59.2-8.47,5.216-78.271,13.287-82.332-10.673a18.782,18.782,0,0,1,1.853-12.327c.775,4.563,4.314,9.576,14.538,12.822,22.978,7.292,61.678,8.649,66.887-8.042s1.8-32.014,1.994-46.26c.153-11.322-1.222-26.028,6.1-30.5,3.847-2.35,8.555,2.952,14.537,2.206s6.058-14.373,10.277-14.565c5.2-.244,4.406,8.923,15.294,12.581,9.83,3.3,35.038,2.768,43.978-6.077,8.536-8.445,5.723,6.571,7.977,10.918,4.341,8.382,21.589-5.554,24.048.813,1.129,2.93-3.1,13.727-1.056,26.37,2.55,15.814,12.385,42.851,31.941,52.925C1257.152,2690.058,1296.382,2691.615,1311.061,2679.934Z" transform="translate(-1004.576 -2585.365)"/></g><g transform="translate(886.532 632.392)"><path class="c" d="M1032.535,1461.338c-12.116,0-24.329-1.4-32.878-5.271-6.833-3.1-10.782-7.522-11.735-13.149-2.915-17.205,13.294-26.43,23.848-29.453-.348-6.537-1.251-26.751.1-39.019,3.653-33.04,39.513-49.805,48.124-53.373-.2-2.008-.652-5.91-1.657-12.607-3.969-26.462-8.356-41.4-8.4-41.544a2.513,2.513,0,0,1,4.817-1.431c.183.615,4.526,15.378,8.553,42.229,1.676,11.173,1.85,14.741,1.857,14.888l.083,1.834-1.723.637c-.429.158-42.936,16.246-46.659,49.919-1.553,14.044.017,39.97.033,40.23l.131,2.133-2.085.472c-1.027.234-25.17,5.967-22.073,24.244.658,3.88,3.637,7.047,8.855,9.412,20.4,9.244,64.328,2.844,69.684-.454,9.711-5.979,11.6-23.418,13.273-38.8.769-7.086,1.495-13.778,2.947-18.942l.07-.25c2.756-9.81,6.922-24.635,30.233-26.791,13.733-1.27,39.082-1.7,54.553,9.675l.094.073c13.283,10.772,19.22,24.164,24.458,35.979,1.9,4.276,3.526,8.135,4.965,11.538,4.159,9.842,7.164,16.952,12.518,24.79,3.065,4.486,37.6,9.461,62.51,4.365,9.968-2.041,15.9-5.413,16.712-9.5,3.868-19.541-29.394-31.12-29.73-31.235l-1.237-.421-.366-1.255c-.116-.4-11.71-40.044-24.966-69.761-26.431-59.254-38.359-96.447-38.477-96.816l-.7-2.211,2.149-.877c.725-.3,72.761-30.024,92.992-66.513,6.057-10.925,7.448-20.849,3.915-27.943-2.671-5.364-8.1-8.768-15.713-9.844-25.529-3.607-63.915,22.833-91.945,42.14-7.2,4.963-14.01,9.65-19.626,13.139a2.513,2.513,0,1,1-2.652-4.269c5.515-3.427,12.273-8.081,19.427-13.009,28.711-19.776,68.036-46.863,95.5-42.977,9.32,1.318,16.067,5.667,19.508,12.579,4.292,8.62,2.865,20.2-4.019,32.62-19.305,34.82-80.745,62.449-93.324,67.821,2.925,8.745,14.865,43.236,37.559,94.112,12.075,27.069,22.76,62.206,24.837,69.175,6.6,2.481,36.089,14.862,31.8,36.521-1.262,6.378-8.2,10.9-20.634,13.445-21.913,4.487-62.026,1.806-67.667-6.454s-8.724-15.557-13-25.667c-1.43-3.384-3.052-7.22-4.93-11.457-5-11.283-10.672-24.07-22.983-34.075-14.139-10.357-38.056-9.888-51.066-8.685-19.87,1.838-23.19,13.653-25.858,23.147l-.07.251c-1.338,4.761-2.043,11.251-2.788,18.123-1.794,16.533-3.827,35.272-15.635,42.542C1069.669,1458.012,1051.221,1461.338,1032.535,1461.338Z" transform="translate(-987.577 -1130.942)"/></g><g transform="translate(880.605 545.964)"><g class="b" transform="translate(14.85 108.59)"><path class="c" d="M1230.619,1308.218c-4.08,34.567-26.05,62.247-55.357,74.552q-2.427,1.015-4.923,1.9a88.584,88.584,0,0,1-26.372,4.938,89.67,89.67,0,0,1-14.654-.689c-1.593-.216-3.173-.457-4.735-.743-.044-.006-.082-.018-.126-.023a92.38,92.38,0,0,1-9.664-2.325,91.335,91.335,0,0,1-15.063-6,93.942,93.942,0,0,1-25.041-18.452,97.114,97.114,0,0,1-26.715-56.04c24.5-19.3,88.632-37.37,107.174-11.645,10.447,14.482,3.237,39.287-29.222,49.08-7.951,2.394-6.336,10.312-2.844,18.153l97.1-45.859C1223.338,1313.1,1226.842,1310.779,1230.619,1308.218Z" transform="translate(-1047.968 -1280.939)"/></g><g transform="translate(2.376 2.376)"><path class="a" d="M994.713,735.476a100.009,100.009,0,0,0,43.635,25.712,101.478,101.478,0,0,0,10.548,2.393c1.746.3,3.52.556,5.311.776a100.625,100.625,0,0,0,16.016.6,99.948,99.948,0,0,0,28.883-5.505q2.734-.964,5.4-2.067A100.623,100.623,0,0,0,1046.662,565.7c-1.167.218-2.332.47-3.49.747q-4.654,1.078-9.146,2.582A101.143,101.143,0,0,0,997.1,591.116q-2.5,2.348-4.852,4.869a100.613,100.613,0,0,0,2.461,139.491Z" transform="translate(-965.085 -563.579)"/><path class="c" d="M1064.482,763.78a101.75,101.75,0,0,1-11.852-.695c-1.97-.242-3.711-.5-5.326-.778a102.264,102.264,0,0,1-10.576-2.4,100.855,100.855,0,0,1-46.218-165.64c1.537-1.655,3.173-3.3,4.865-4.882a101.414,101.414,0,0,1,37.021-22.144c2.987-1,6.073-1.872,9.17-2.59,1.234-.295,2.38-.54,3.5-.749A100.886,100.886,0,0,1,1103.062,756.1c-1.776.735-3.6,1.432-5.415,2.073a100.22,100.22,0,0,1-28.961,5.52Q1066.592,763.78,1064.482,763.78Zm-71.127-30.027a100.1,100.1,0,0,0,43.519,25.644,101.767,101.767,0,0,0,10.521,2.387c1.607.28,3.34.533,5.3.774a100.8,100.8,0,0,0,15.972.6,99.728,99.728,0,0,0,28.807-5.491c1.808-.637,3.62-1.332,5.387-2.062a100.357,100.357,0,0,0-57.691-191.181c-1.115.208-2.253.451-3.48.744-3.083.714-6.151,1.581-9.123,2.576a100.875,100.875,0,0,0-36.826,22.027c-1.682,1.577-3.31,3.211-4.839,4.857a100.347,100.347,0,0,0,2.454,139.122Z" transform="translate(-963.538 -562.043)"/></g><g class="b" transform="translate(15.368 30.582)"><path class="c" d="M1239.254,837.362a100.541,100.541,0,0,1-61.352,81.2q-2.665,1.106-5.4,2.067a100.778,100.778,0,0,1-44.9,4.905c-1.789-.227-3.562-.474-5.31-.775a102.768,102.768,0,0,1-10.549-2.4,99.976,99.976,0,0,1-43.636-25.713,101.188,101.188,0,0,1-16.633-22.049A100.38,100.38,0,0,0,1104,901.081c1.743.3,3.516.552,5.31.775a100.3,100.3,0,0,0,44.9-4.9q2.739-.967,5.4-2.071a100.63,100.63,0,0,0,49.309-141.927A100.418,100.418,0,0,1,1239.254,837.362Z" transform="translate(-1051.475 -752.957)"/></g><g transform="translate(0.594 0.594)"><path class="c" d="M1054.2,755.284a103.587,103.587,0,0,1-12.06-.707c-2.009-.247-3.78-.506-5.424-.792a104.056,104.056,0,0,1-10.755-2.439,102.414,102.414,0,0,1-44.528-26.238h0a102.627,102.627,0,0,1-2.51-142.328c1.565-1.685,3.231-3.357,4.952-4.97a103.18,103.18,0,0,1,37.672-22.533c3.042-1.019,6.182-1.905,9.334-2.636,1.252-.3,2.426-.55,3.578-.765a102.667,102.667,0,0,1,59.005,195.59c-1.809.748-3.66,1.457-5.506,2.108a102.018,102.018,0,0,1-29.483,5.62Q1056.351,755.285,1054.2,755.284ZM984.34,722.219a98.309,98.309,0,0,0,42.742,25.187,100.034,100.034,0,0,0,10.335,2.344c1.582.276,3.286.524,5.216.762a98.991,98.991,0,0,0,15.679.591,97.912,97.912,0,0,0,28.3-5.393c1.772-.625,3.555-1.308,5.293-2.026A98.575,98.575,0,0,0,1035.234,555.9c-1.1.206-2.212.443-3.41.729-3.04.7-6.053,1.555-8.971,2.533A99.089,99.089,0,0,0,986.681,580.8c-1.653,1.55-3.252,3.154-4.753,4.77a98.566,98.566,0,0,0,2.412,136.654Z" transform="translate(-951.479 -549.985)"/></g><g transform="translate(0 0)"><path class="c" d="M1050.779,752.452a104.209,104.209,0,0,1-12.13-.711c-2.022-.249-3.8-.509-5.456-.8a104.611,104.611,0,0,1-10.815-2.453A103.008,103.008,0,0,1,977.592,722.1h0a103.224,103.224,0,0,1-2.525-143.151c1.575-1.7,3.251-3.377,4.981-5a103.79,103.79,0,0,1,37.89-22.663c3.06-1.025,6.218-1.917,9.389-2.651,1.258-.3,2.442-.554,3.6-.77a103.261,103.261,0,0,1,59.343,196.723c-1.819.752-3.681,1.465-5.537,2.12a102.617,102.617,0,0,1-29.657,5.653Q1052.938,752.452,1050.779,752.452Zm-69.444-34.078a97.715,97.715,0,0,0,42.483,25.035,99.324,99.324,0,0,0,10.273,2.33c1.574.274,3.268.522,5.188.758a98.364,98.364,0,0,0,15.581.587,97.325,97.325,0,0,0,28.125-5.36c1.76-.621,3.533-1.3,5.262-2.015a97.982,97.982,0,0,0-56.326-186.656c-1.1.2-2.2.44-3.386.724-3.025.7-6.02,1.547-8.92,2.518A98.493,98.493,0,0,0,983.661,577.8c-1.644,1.541-3.233,3.135-4.724,4.741a97.972,97.972,0,0,0,2.4,135.831Z" transform="translate(-947.459 -545.964)"/></g><g transform="translate(4.191 29.589)"><path class="c" d="M1024.017,906.707c68.172,22.836,136.766-27.995,120.724-97.372-10.914-47.2-65.554-72.957-110.216-59.572-32.506,9.742-59.979,33.473-58.651,88.056,0,0,4.319,24.072,15.217,37.734a230.03,230.03,0,0,0,23.8,25.11Z" transform="translate(-975.827 -746.236)"/></g><g transform="translate(50.532 55.643)"><path class="d" d="M1412.051,959.625C1428.094,1029,1359.5,1079.831,1291.329,1057l-1.849-1.227c65.471-7.234,116.473-62.745,101.558-133.192A75.784,75.784,0,0,1,1412.051,959.625Z" transform="translate(-1289.481 -922.579)"/></g><g transform="translate(0 16.775)"><path class="c" d="M1050.78,849.216a104.143,104.143,0,0,1-12.13-.711c-2.022-.249-3.8-.509-5.456-.8a104.648,104.648,0,0,1-10.815-2.453,103.008,103.008,0,0,1-44.786-26.391h0a103.262,103.262,0,0,1-9.341-135.014l.165-.219.207-.18c10.027-8.734,22.682-15.432,37.614-19.906,26.6-7.973,57.509-4,82.683,10.621,23.136,13.439,38.952,34.135,44.532,58.275,6.063,26.235,2.016,51.373-11.7,72.7-14.342,22.29-38.489,38.3-66.252,43.938l-.413.05Q1052.941,849.216,1050.78,849.216Zm-69.444-34.078a97.714,97.714,0,0,0,42.483,25.035,99.334,99.334,0,0,0,10.273,2.33c1.574.274,3.268.522,5.188.758a98.515,98.515,0,0,0,15.373.6c26.288-5.388,49.115-20.534,62.655-41.578,12.93-20.1,16.733-43.834,11-68.648-5.248-22.7-20.178-42.2-42.038-54.9-23.936-13.9-53.287-17.69-78.514-10.129-14.1,4.227-26.031,10.5-35.454,18.65a97.981,97.981,0,0,0,9.036,127.884Z" transform="translate(-947.461 -659.503)"/></g><g transform="translate(1.55 26.98)"><path class="c" d="M1042.257,899.809a108.059,108.059,0,0,1-34.314-5.651l-.33-.11-9.709-6.462a230.227,230.227,0,0,1-24.114-25.439c-11.186-14.023-15.57-37.905-15.752-38.915l-.04-.4c-1.162-47.765,19.2-78.264,60.533-90.649,23.74-7.115,51.325-3.573,73.79,9.475,20.654,12,34.774,30.474,39.758,52.032,7.2,31.125-1.829,60.922-24.762,81.753C1089.757,891.391,1066.506,899.809,1042.257,899.809Zm-32.308-10.55c33.59,11.131,69.509,4.351,93.817-17.729,21.476-19.507,29.921-47.446,23.168-76.653-4.652-20.12-17.886-37.4-37.265-48.654-21.226-12.329-47.253-15.686-69.621-8.983-38.7,11.6-57.805,40.282-56.774,85.249.434,2.266,4.8,24.019,14.646,36.363a229.28,229.28,0,0,0,23.356,24.661Z" transform="translate(-957.952 -728.575)"/></g><g transform="translate(163.339 50.642)"><path class="a" d="M2104.786,944.081c-2.465,6.348-6.712,11.3-12.43,13.681-13.358,5.559-29.667-5.057-36.431-23.707-.557-1.537-1.034-3.082-1.426-4.622-4.406-17.178,1.111-34.128,13.365-39.228,13.358-5.559,29.674,5.05,36.438,23.706C2108.173,924.586,2108.079,935.582,2104.786,944.081Z" transform="translate(-2052.996 -888.727)"/></g><g class="b" transform="translate(164.843 88.116)"><path class="c" d="M2113.461,1160.242c-2.465,6.348-6.713,11.3-12.43,13.681-13.358,5.559-29.668-5.057-36.431-23.707-.557-1.537-1.034-3.082-1.426-4.622,3.176,2.761,9.78,6.5,15.874-2.782l15.366-.45S2106.244,1149.146,2113.461,1160.242Z" transform="translate(-2063.174 -1142.362)"/></g><g transform="translate(160.725 47.991)"><path class="c" d="M2069.842,946.6a25.307,25.307,0,0,1-10.206-2.253c-9.317-4.1-17.071-13.094-21.274-24.685-7.227-19.932-1.212-41.1,13.408-47.185,5.841-2.431,12.294-2.238,18.659.562,9.317,4.1,17.072,13.094,21.274,24.685h0c7.227,19.931,1.213,41.1-13.408,47.185A21.872,21.872,0,0,1,2069.842,946.6Zm-9.62-70.523a16.61,16.61,0,0,0-6.422,1.276c-12.054,5.018-16.752,23.19-10.472,40.509,3.659,10.09,10.55,18.184,18.434,21.651a18.1,18.1,0,0,0,14.5.521c12.054-5.019,16.752-23.191,10.472-40.509h0c-3.658-10.09-10.55-18.184-18.434-21.651A20.074,20.074,0,0,0,2060.222,876.073Z" transform="translate(-2035.303 -870.782)"/></g><g transform="translate(171.45 52.763)"><ellipse class="a" cx="21.299" cy="28.551" rx="21.299" ry="28.551" transform="matrix(0.966, -0.258, 0.258, 0.966, 0, 11)"/><path class="c" d="M2172.65,991.539a17.755,17.755,0,0,1-2.406-.166c-12.17-1.66-22.477-15.662-22.976-31.211-.279-8.708,2.535-16.383,7.721-21.059a16.364,16.364,0,0,1,13.533-4.211c12.17,1.66,22.477,15.662,22.976,31.211.28,8.707-2.534,16.383-7.721,21.059A16.34,16.34,0,0,1,2172.65,991.539Zm-6.527-56.261a15.8,15.8,0,0,0-10.763,4.234c-5.066,4.567-7.814,12.087-7.539,20.631.491,15.293,10.584,29.057,22.5,30.682a15.835,15.835,0,0,0,13.089-4.074c5.066-4.567,7.814-12.087,7.539-20.631-.491-15.293-10.584-29.057-22.5-30.682A17.267,17.267,0,0,0,2166.123,935.278Z" transform="translate(-2141.435 -930.05)"/></g><g class="b" transform="translate(179.162 67.834)"><path class="c" d="M2165.535,1041.33a34.092,34.092,0,0,1-5.444-15.211c7.765,9.639,19.405,10.5,26.847,1.594,4.812-5.753,6.758-14.265,5.814-22.62.494.6.969,1.257,1.429,1.935,7.706,11.418,7.54,28.353-.373,37.825S2173.238,1052.741,2165.535,1041.33Z" transform="translate(-2160.091 -1005.092)"/></g><g transform="translate(175.845 53.808)"><path class="c" d="M2165.615,972.757a18.99,18.99,0,0,1-7.617-1.678c-7.523-3.29-14.12-11.133-17.648-20.981-6.01-16.78-1.713-33.756,9.781-38.648a17.268,17.268,0,0,1,13.958.387c7.523,3.29,14.12,11.133,17.647,20.981,6.01,16.779,1.713,33.755-9.781,38.648A16.09,16.09,0,0,1,2165.615,972.757Zm-9.143-57.308a10.834,10.834,0,0,0-4.272.861c-8.775,3.735-11.86,18.093-6.876,32.007,3.046,8.5,8.575,15.205,14.791,17.923a12.124,12.124,0,0,0,9.773.366c8.775-3.735,11.86-18.093,6.877-32.007-3.046-8.5-8.575-15.2-14.791-17.923A13.741,13.741,0,0,0,2156.472,915.448Z" transform="translate(-2137.639 -910.158)"/></g><g class="e" transform="translate(17.477 43.772)"><path class="a" d="M1140.921,843.83s-40.978,15.186-56.749,46.123l-.05.1a41.163,41.163,0,0,0-4.37,21.1,83.979,83.979,0,0,0,4.2,21.931c5.528,17.387,11.371,24.5,11.371,24.5-12.81-6.043-21.7-14.7-26.447-29.137q-.7-2.137-1.28-4.449c-.091-.354-.173-.707-.25-1.065-.009,0-.008-.01,0-.022a102.1,102.1,0,0,1-1.431-12.16c-.825-14.447,1.219-34.283,15.4-47.7C1107.838,837.974,1141.776,841.559,1140.921,843.83Z" transform="translate(-1065.753 -842.228)"/></g><g class="e" transform="translate(117.717 57.232)"><ellipse class="a" cx="13.446" cy="15.669" rx="13.446" ry="15.669" transform="matrix(0.842, -0.539, 0.539, 0.842, 0, 14.495)"/></g><g class="e" transform="translate(144.49 93.144)"><ellipse class="a" cx="5.552" cy="6.47" rx="5.552" ry="6.47" transform="matrix(0.794, -0.608, 0.608, 0.794, 0, 6.753)"/></g></g><g transform="translate(948.148 791.546)"><circle class="a" cx="13.316" cy="13.316" r="13.316" transform="translate(0 0)"/></g><g class="b" transform="translate(948.147 796.843)"><path class="c" d="M1404.892,2254.719a13.316,13.316,0,1,0,26.079-5.4,13.167,13.167,0,0,0-2.409-5.314,13.317,13.317,0,0,1-23.571,4.885A13.166,13.166,0,0,0,1404.892,2254.719Z" transform="translate(-1404.612 -2244)"/></g><g transform="translate(945.63 789.033)"><path class="c" d="M1403.4,2222.8a15.856,15.856,0,0,1-15.5-12.618h0a15.818,15.818,0,1,1,15.5,12.618Zm-10.575-13.638a10.8,10.8,0,1,0,1.548-8.122,10.817,10.817,0,0,0-1.548,8.122Z" transform="translate(-1387.574 -2191.141)"/></g><g transform="translate(957.128 765.588)"><g transform="translate(2.517 2.516)"><path class="a" d="M1500.865,2119.528l67.263-5.234a14.57,14.57,0,0,0,13.356-15.611l-2.787-35.793A14.578,14.578,0,0,0,1566,2049.6a14.089,14.089,0,0,0-2.917-.068l-67.253,5.232a14.557,14.557,0,0,0-13.356,15.611l2.2,28.35.576,7.445A14.57,14.57,0,0,0,1500.865,2119.528Z" transform="translate(-1482.432 -2049.489)"/></g><g transform="translate(90.712 6.491)"><path class="a" d="M2142.752,2076.389s8.926-.18,11.62,10.121c1.717,6.568-1.98,14.048-1.98,14.048s-24.594,13.843-66.761,14.053c0,0-13.371-11.765-1.053-23.744C2084.576,2090.867,2123.01,2087.635,2142.752,2076.389Z" transform="translate(-2079.362 -2076.388)"/></g><g transform="translate(2.517 2.516)"><path class="a" d="M1500.865,2119.528l67.263-5.234a14.57,14.57,0,0,0,13.356-15.611l-2.787-35.793A14.578,14.578,0,0,0,1566,2049.6a14.089,14.089,0,0,0-2.917-.068l-67.253,5.232a14.557,14.557,0,0,0-13.356,15.611l2.2,28.35.576,7.445A14.57,14.57,0,0,0,1500.865,2119.528Z" transform="translate(-1482.432 -2049.489)"/></g><g transform="translate(90.712 6.491)"><path class="a" d="M2142.752,2076.389s8.926-.18,11.62,10.121c1.717,6.568-1.98,14.048-1.98,14.048s-24.594,13.843-66.761,14.053c0,0-13.371-11.765-1.053-23.744C2084.576,2090.867,2123.01,2087.635,2142.752,2076.389Z" transform="translate(-2079.362 -2076.388)"/></g><g class="b" transform="translate(7.73 11.514)"><path class="c" d="M1616.766,2159.579a14.579,14.579,0,0,1-13.359,15.614l-67.26,5.233a14.574,14.574,0,0,1-15.614-13.36l-.571-7.443-2.2-28.352a14.552,14.552,0,0,1,13.353-15.607l67.253-5.233a14.04,14.04,0,0,1,2.916.065,14.578,14.578,0,0,1,12.691,13.288l.369,4.732c9.214-1,36.059-4.529,52.65-12.921,2.784,7.135,3.554,9.221,7.237,18.109-8.054,6.912-21.535,16.75-58.018,18.809Z" transform="translate(-1517.715 -2110.384)"/></g><g transform="translate(2.517 2.516)"><path class="a" d="M1500.865,2119.528l67.263-5.234a14.57,14.57,0,0,0,13.356-15.611l-2.787-35.793A14.578,14.578,0,0,0,1566,2049.6a14.089,14.089,0,0,0-2.917-.068l-67.253,5.232a14.557,14.557,0,0,0-13.356,15.611l2.2,28.35.576,7.445A14.57,14.57,0,0,0,1500.865,2119.528Z" transform="translate(-1482.432 -2049.489)"/></g><g class="b" transform="translate(4.763 2.629)"><path class="c" d="M1513.82,2120.18l67.263-5.234a14.569,14.569,0,0,0,13.356-15.611l-2.787-35.793a14.579,14.579,0,0,0-12.694-13.287c-3.622,2.834-5.921,4.646-5.921,4.646-1.039,28.986,1.881,50.188-42.929,50.7a78.711,78.711,0,0,1-32.475-6.221l.577,7.445A14.571,14.571,0,0,0,1513.82,2120.18Z" transform="translate(-1497.632 -2050.254)"/></g><g transform="translate(0 0.002)"><path class="c" d="M1485.207,2107.584a17.062,17.062,0,0,1-16.976-15.719l-2.785-35.8a17.059,17.059,0,0,1,15.667-18.31l67.258-5.233a17.083,17.083,0,0,1,18.31,15.668l2.785,35.8A17.059,17.059,0,0,1,1553.8,2102.3l-67.258,5.233C1486.094,2107.567,1485.648,2107.584,1485.207,2107.584ZM1549.7,2037.5q-.467,0-.941.036l-67.258,5.233a12.028,12.028,0,0,0-11.046,12.91l2.785,35.8a12.058,12.058,0,0,0,12.911,11.047l67.258-5.233a12.028,12.028,0,0,0,11.047-12.91l-2.785-35.8A12.031,12.031,0,0,0,1549.7,2037.5Z" transform="translate(-1465.394 -2032.473)"/></g><g transform="translate(18.23 2.517)"><path class="a" d="M1588.783,2119.479a12.935,12.935,0,0,0,2.72.054l67.263-5.234a14.556,14.556,0,0,0,12.515-9.537,14.281,14.281,0,0,0,.831-6.073l-1.231-15.9-.406-5.247-1.14-14.646a14.571,14.571,0,0,0-15.611-13.356l-14.534,1.135a14.567,14.567,0,0,1,12.911,13.3l1.51,19.334,1.279,16.469a14.577,14.577,0,0,1-13.356,15.611Z" transform="translate(-1588.783 -2049.495)"/></g><g class="b" transform="translate(18.23 30.563)"><path class="c" d="M1588.783,2281.253a12.935,12.935,0,0,0,2.72.055l67.263-5.234a14.554,14.554,0,0,0,13.346-15.61l-1.637-21.149c-1.4,3.868-4.083,8.692-8.909,9.552-2.647.478-5.422-1.238-7.955-3.786l1.279,16.469a14.577,14.577,0,0,1-13.356,15.611Z" transform="translate(-1588.783 -2239.315)"/></g><g transform="translate(17.927)"><path class="c" d="M1588.643,2107.571a16.05,16.05,0,0,1-1.914-.115l.106-5,52.755-4.1a12.05,12.05,0,0,0,11.04-12.907l-2.785-35.8a12.026,12.026,0,0,0-10.676-11.005l.079-5,14.528-1.133a17.084,17.084,0,0,1,18.311,15.671l2.785,35.795a17.076,17.076,0,0,1-15.661,18.312l-67.263,5.23C1589.516,2107.553,1589.08,2107.571,1588.643,2107.571Zm58.594-69.668a17.01,17.01,0,0,1,5.618,11.357l2.785,35.8a16.909,16.909,0,0,1-4.053,12.39c-.073.085-.145.168-.219.251l5.454-.423a12.051,12.051,0,0,0,11.04-12.909h0l-2.786-35.8a12.059,12.059,0,0,0-12.911-11.049Z" transform="translate(-1586.729 -2032.457)"/></g><g transform="translate(56.422 24.435)"><path class="f" d="M1847.3,2210.655c.111,1.323,2.863,11.848,2.863,11.848l7.538-.63c5.19-.434,8.949-6.16,8.395-12.789s-5.211-11.652-10.4-11.218l-7.538.63S1847.12,2208.5,1847.3,2210.655Z" transform="translate(-1847.279 -2197.839)"/></g><g class="b" transform="translate(56.422 24.435)"><path class="c" d="M1847.3,2210.655c.111,1.323,2.863,11.848,2.863,11.848l7.538-.63c5.19-.434,8.949-6.16,8.395-12.789s-5.211-11.652-10.4-11.218l-7.538.63S1847.12,2208.5,1847.3,2210.655Z" transform="translate(-1847.279 -2197.839)"/></g><g transform="translate(54.54 22.55)"><path class="c" d="M1837.885,2213.64l-.4-1.533c-.656-2.506-2.8-10.79-2.918-12.168h0c-.189-2.265.752-11.468.86-12.509l.161-1.554,9.095-.759a10.321,10.321,0,0,1,8.478,3.556,15.711,15.711,0,0,1,3.958,9.382c.64,7.654-3.9,14.3-10.115,14.824Zm.437-14.018c.075.732,1.223,5.4,2.41,10l5.957-.5c4.146-.347,7.14-5.171,6.674-10.754a11.937,11.937,0,0,0-2.966-7.134,6.649,6.649,0,0,0-5.4-2.364l-5.977.5C1838.646,2193.189,1838.217,2198.358,1838.321,2199.623Z" transform="translate(-1834.54 -2185.082)"/></g><g transform="translate(47.902 24.305)"><ellipse class="f" cx="9.431" cy="12.046" rx="9.431" ry="12.046" transform="translate(0 1.571) rotate(-4.777)"/></g><g class="b" transform="translate(48.852 32.151)"><path class="c" d="M1814.89,2254.228c.556,6.625-3.2,12.355-8.392,12.789s-9.853-4.59-10.4-11.224a14.682,14.682,0,0,1,.01-2.633c1.716,4.442,5.425,7.4,9.455,7.056,4.482-.375,7.9-4.7,8.383-10.148A15.109,15.109,0,0,1,1814.89,2254.228Z" transform="translate(-1796.041 -2250.068)"/></g><g transform="translate(48.852 25.062)"><path class="a" d="M1814.889,2213.336a12.813,12.813,0,0,1,.048,1.34c-1.465-5.108-5.474-8.64-9.859-8.271-4.835.408-8.436,5.408-8.439,11.457a15.275,15.275,0,0,1-.545-2.96c-.556-6.625,3.2-12.355,8.392-12.79S1814.332,2206.7,1814.889,2213.336Z" transform="translate(-1796.04 -2202.086)"/></g><g transform="translate(46.966 23.18)"><path class="c" d="M1795,2217.179c-5.9,0-11.05-5.636-11.663-12.971h0a15.711,15.711,0,0,1,2.346-9.909,10.321,10.321,0,0,1,7.77-4.915c6.224-.521,11.8,5.285,12.436,12.938a15.715,15.715,0,0,1-2.346,9.909,10.323,10.323,0,0,1-7.77,4.915C1795.517,2217.168,1795.259,2217.179,1795,2217.179Zm-7.907-13.286c.467,5.583,4.227,9.831,8.367,9.5a6.644,6.644,0,0,0,4.933-3.228,11.936,11.936,0,0,0,1.741-7.527c-.467-5.583-4.234-9.844-8.367-9.5a6.644,6.644,0,0,0-4.933,3.228,11.935,11.935,0,0,0-1.741,7.526Z" transform="translate(-1783.279 -2189.351)"/></g><g transform="translate(22.721 5.255)"><path class="c" d="M1638.294,2135.325a1.885,1.885,0,0,1-1.873-1.694l-2.214-21.785a3.71,3.71,0,0,0-1.97-2.916l-6.687-3.513a7.452,7.452,0,0,1-3.982-6.023l-2.384-29.333a1.884,1.884,0,1,1,3.756-.306l2.384,29.332a3.7,3.7,0,0,0,1.978,2.992l6.687,3.512a7.471,7.471,0,0,1,3.968,5.873l2.214,21.785a1.885,1.885,0,0,1-1.685,2.066C1638.421,2135.322,1638.357,2135.325,1638.294,2135.325Z" transform="translate(-1619.177 -2068.025)"/></g></g><g transform="translate(1047.839 772.079)"><path class="a" d="M2142.752,2076.389s8.926-.18,11.62,10.121c1.717,6.568-1.98,14.048-1.98,14.048s-24.594,13.843-66.761,14.053c0,0-13.371-11.765-1.053-23.744C2084.576,2090.867,2123.01,2087.635,2142.752,2076.389Z" transform="translate(-2079.362 -2076.388)"/></g><g class="b" transform="translate(1047.834 781.662)"><path class="c" d="M2152.366,2155.841s-24.593,13.84-66.763,14.052c0,0-8.723-7.672-5.594-16.933l.052.147a12.078,12.078,0,0,0,11.855,7.953c38.226-1.475,60.326-13.912,60.326-13.912a27.568,27.568,0,0,0,1.951-5.9c.052.175.105.357.152.538C2156.06,2148.356,2152.366,2155.841,2152.366,2155.841Z" transform="translate(-2079.332 -2141.252)"/></g><g transform="translate(1045.316 769.917)"><path class="c" d="M2074.519,2104.6a10.254,10.254,0,0,1-8.358-4.294c-4.908-6.878-5.165-14.133-.725-20.428a10.278,10.278,0,0,1,7.3-4.279c8.035-.868,35.536-4.349,52.04-12.7h0a10.227,10.227,0,0,1,8.533-.4c3.115,1.287,7.194,4.224,8.939,10.9,1.159,4.433.22,9.094-.771,12.225a10.275,10.275,0,0,1-5.475,6.178c-7.735,3.592-29.187,12.03-61.233,12.793C2074.685,2104.6,2074.6,2104.6,2074.519,2104.6Zm55-37.821a5.5,5.5,0,0,0-2.477.6h0c-16.792,8.5-43.2,12.069-53.768,13.211a5.25,5.25,0,0,0-3.732,2.179c-3.205,4.543-2.967,9.46.709,14.612a5.245,5.245,0,0,0,4.4,2.187c31.1-.741,51.786-8.867,59.236-12.327a5.237,5.237,0,0,0,2.8-3.138c.792-2.5,1.556-6.165.7-9.436-.982-3.756-3-6.288-6-7.527A4.876,4.876,0,0,0,2129.521,2066.784Zm-3.611-1.637h0Z" transform="translate(-2062.284 -2061.758)"/></g><g transform="translate(871.542 656.769)"><path class="a" d="M943.543,1381.677c-2.855-7.429,30.141-19.608,44.437-23.919,32.464-9.791,39.672-34.593,29.227-49.08-19.61-27.2-90.17-5.445-110.98,14.967-7.42,7.278-23.485,25.153-19.477,53.327" transform="translate(-886.117 -1295.934)"/></g><g class="b" transform="translate(920.977 678.668)"><path class="c" d="M1273.143,1484.079c-13.349,4.017-42.985,14.9-44.549,22.373-26.471-12.736,21.1-26.979,34.847-30.706,27.1-7.354,41.315-20.263,42.906-31.594C1309.182,1458.328,1299.466,1476.14,1273.143,1484.079Z" transform="translate(-1220.713 -1444.152)"/></g><g class="b" transform="translate(928.796 740.969)"><path class="c" d="M1277.118,1867.32l-3.481-.93a2.477,2.477,0,0,1,.061-.566A29.821,29.821,0,0,0,1277.118,1867.32Z" transform="translate(-1273.636 -1865.824)"/></g><g transform="translate(869.015 654.256)"><path class="c" d="M928.968,1369.692a2.514,2.514,0,0,1-2.346-1.612,5.468,5.468,0,0,1,.31-4.484c5.084-10.377,44.089-22.243,45.747-22.743,15.681-4.729,26.823-13.783,30.568-24.84a22.2,22.2,0,0,0-2.655-20.364c-4.751-6.589-13.13-10.44-24.9-11.446-28.031-2.4-67.938,12.669-82.279,26.737-15.157,14.867-21.465,32.086-18.749,51.179a2.513,2.513,0,0,1-4.976.708c-2.953-20.762,3.844-39.427,20.206-55.474,15.4-15.109,56.425-30.7,86.226-28.156,13.3,1.135,22.9,5.682,28.551,13.514,5.093,7.063,6.309,16.144,3.338,24.915-4.273,12.616-16.621,22.836-33.877,28.04-18.519,5.585-40.1,14.874-42.685,20.142a.856.856,0,0,0-.132.47,2.514,2.514,0,0,1-2.345,3.415Z" transform="translate(-869.015 -1278.922)"/></g><g transform="translate(1117.955 653.852)"><path class="c" d="M2592.941,1338.3a2.208,2.208,0,0,1-1.149-.323c-27.25-16.57-37.378-57.33-37.8-59.057a2.216,2.216,0,0,1,4.308-1.043c.1.405,10.127,40.708,35.791,56.313a2.216,2.216,0,0,1-1.153,4.11Z" transform="translate(-2553.933 -1276.185)"/></g><g transform="translate(893.398 676.818)"><path class="c" d="M1076.677,1491h-.016c-14.338-.1-27.217-7.435-35.335-20.121-7.787-12.168-9.461-26.711-4.37-37.954a2.216,2.216,0,1,1,4.038,1.829c-4.479,9.89-2.921,22.818,4.066,33.736,7.294,11.4,18.824,17.987,31.632,18.078a2.216,2.216,0,0,1-.015,4.432Z" transform="translate(-1034.047 -1431.627)"/></g><g transform="translate(915.757 858.321)"><path class="c" d="M1259.854,2695.251a2.216,2.216,0,0,1-2.149-1.684c-4.671-18.84-52.338-27.35-70.31-29.04a2.216,2.216,0,0,1,.414-4.414c2.766.26,67.819,6.652,74.2,32.387a2.216,2.216,0,0,1-1.618,2.685A2.241,2.241,0,0,1,1259.854,2695.251Z" transform="translate(-1185.385 -2660.104)"/></g><g transform="translate(1082.447 868.407)"><path class="c" d="M2319.576,2758.75c-1.436,0-2.768-.059-3.976-.179a2.216,2.216,0,1,1,.44-4.411c17.191,1.715,59.909-9.624,63.475-24.1a2.216,2.216,0,0,1,4.3,1.061c-2.7,10.955-19.811,18.074-29.771,21.343C2342.213,2756.345,2328.783,2758.75,2319.576,2758.75Z" transform="translate(-2313.603 -2728.37)"/></g><g transform="translate(910.868 913.434)"><path class="c" d="M1154.144,3034.1c.5-.138.85-.215,1.256-.3s.778-.142,1.168-.213c.771-.121,1.543-.222,2.308-.281a44.894,44.894,0,0,1,4.581-.171,60.15,60.15,0,0,1,9.006.869,56.885,56.885,0,0,1,8.7,2.164c.713.211,1.407.491,2.1.77s1.385.549,2.067.849a43.791,43.791,0,0,1,3.985,2.06c-1.514-.036-2.983-.171-4.44-.319-1.47-.092-2.909-.272-4.35-.4l-4.3-.389c-.714-.053-1.422-.152-2.134-.194l-2.133-.132c-2.839-.145-5.666-.216-8.463-.127-1.4.033-2.79.113-4.163.224-.69.048-1.367.132-2.042.2l-.994.127c-.312.039-.683.1-.888.133l-.2.032a2.509,2.509,0,0,1-1.067-4.9Z" transform="translate(-1152.295 -3033.131)"/></g><g transform="translate(1128.554 908.253)"><path class="c" d="M2625.669,3016.092a21.665,21.665,0,0,1,5.685-8.73,31.472,31.472,0,0,1,8.837-5.96,38.925,38.925,0,0,1,5.055-1.8,25.929,25.929,0,0,1,2.6-.662l2.639-.452a19.98,19.98,0,0,1,2.654-.271q1.329-.093,2.66-.151c1.768,0,3.531.132,5.289.248a2.506,2.506,0,0,1-.114,5.007l-.266,0c-1.612.026-3.22-.033-4.821-.039q-1.194.078-2.389.125a18.342,18.342,0,0,0-2.378.186l-2.365.284a8.36,8.36,0,0,0-1.168.209l-1.163.237a44.655,44.655,0,0,0-4.595,1.2,41.356,41.356,0,0,0-8.573,4.192A37.72,37.72,0,0,0,2625.669,3016.092Z" transform="translate(-2625.669 -2998.064)"/></g></g></svg>