<svg xmlns="http://www.w3.org/2000/svg" xmlns:xlink="http://www.w3.org/1999/xlink" width="388.554" height="570.223" viewBox="0 0 388.554 570.223"><defs><style>.a{fill:url(#a);}.b{fill:#342d56;}.c{fill:url(#i);}.ac,.ai,.al,.d,.e,.h,.i,.n,.r,.y,.z{mix-blend-mode:multiply;}.ac,.ai,.al,.am,.d,.e,.g,.h,.i,.m,.n,.o,.r,.y,.z{isolation:isolate;}.d{fill:url(#j);}.e{fill:url(#k);}.f{fill:url(#l);}.ab,.am,.g,.m{fill:#fff;}.g{opacity:0.5;}.am,.g,.m,.o{mix-blend-mode:overlay;}.h{fill:url(#q);}.i{fill:url(#r);}.j{fill:url(#w);}.k{fill:#fffcf2;}.l{fill:url(#x);}.m{opacity:0.4;}.n{fill:#deb99e;}.o{fill:#ccc08b;}.p{fill:#eb6600;}.q{fill:url(#y);}.r{fill:#dbd8eb;}.s{fill:url(#z);}.t{fill:url(#aa);}.u{fill:url(#ab);}.v{fill:url(#ac);}.w{fill:url(#ad);}.x{fill:url(#af);}.y{fill:url(#ag);}.z{fill:url(#ah);}.aa{fill:url(#ai);}.ac{fill:url(#ak);}.ad{fill:#2f2854;}.ae{fill:url(#am);}.af{fill:#37305c;}.ag{fill:url(#an);}.ah{fill:url(#ap);}.ai{fill:url(#aq);}.aj{fill:url(#at);}.ak{fill:url(#au);}.al{fill:#cfcae6;}</style><linearGradient id="a" x1="0.5" y1="0.188" x2="0.5" y2="1.082" gradientUnits="objectBoundingBox"><stop offset="0" stop-color="#f2d200"/><stop offset="1" stop-color="#f27900"/></linearGradient><linearGradient id="i" y1="0.5" x2="1" y2="0.5" gradientUnits="objectBoundingBox"><stop offset="0" stop-color="#fff"/><stop offset="1" stop-color="#beb7e8"/></linearGradient><linearGradient id="j" x1="1.744" y1="0.182" x2="0.684" y2="0.561" xlink:href="#i"/><linearGradient id="k" x1="0.942" y1="0.446" x2="-0.867" y2="0.667" xlink:href="#i"/><linearGradient id="l" y1="0.5" x2="1" y2="0.5" gradientUnits="objectBoundingBox"><stop offset="0" stop-color="#584d94"/><stop offset="1" stop-color="#312b52"/></linearGradient><linearGradient id="q" x1="-0.024" y1="0.5" x2="0.985" y2="0.5" xlink:href="#i"/><linearGradient id="r" x1="-220.849" y1="0.446" x2="-222.658" y2="0.667" xlink:href="#i"/><linearGradient id="w" x1="-0.814" y1="0.149" x2="0.856" y2="0.68" xlink:href="#a"/><linearGradient id="x" x1="-0.888" y1="0.336" x2="0.743" y2="0.571" gradientUnits="objectBoundingBox"><stop offset="0" stop-color="#f27900" stop-opacity="0.2"/><stop offset="1" stop-color="#f27900"/></linearGradient><linearGradient id="y" x1="0.399" y1="0.47" x2="1.18" y2="0.531" xlink:href="#i"/><linearGradient id="z" x1="0.423" y1="0.091" x2="0.574" y2="0.866" xlink:href="#l"/><linearGradient id="aa" x1="-0.199" y1="-0.216" x2="0.993" y2="1.005" gradientUnits="objectBoundingBox"><stop offset="0" stop-color="#4f9bfc"/><stop offset="1" stop-color="#363dad"/></linearGradient><linearGradient id="ab" x1="-0.187" y1="-0.151" x2="0.988" y2="1.114" gradientUnits="objectBoundingBox"><stop offset="0" stop-color="#f2ea00"/><stop offset="1" stop-color="#f29500"/></linearGradient><linearGradient id="ac" x1="1.243" y1="0.617" x2="-0.028" y2="0.496" xlink:href="#i"/><linearGradient id="ad" x1="0.149" y1="0.018" x2="1.039" y2="0.952" xlink:href="#l"/><linearGradient id="af" x1="-0.187" y1="-0.151" x2="0.988" y2="1.114" xlink:href="#ab"/><linearGradient id="ag" x1="1.324" y1="0.602" x2="-0.07" y2="0.493" xlink:href="#i"/><linearGradient id="ah" x1="-0.483" y1="-0.056" x2="0.632" y2="0.856" xlink:href="#i"/><linearGradient id="ai" x1="-0.763" y1="0.427" x2="2.846" y2="0.64" xlink:href="#i"/><linearGradient id="ak" x1="1.118" y1="0.701" x2="0.083" y2="0.495" xlink:href="#i"/><linearGradient id="am" x1="0.138" y1="0.136" x2="0.895" y2="1.498" xlink:href="#l"/><linearGradient id="an" x1="0.5" y1="-0.233" x2="0.5" y2="1.185" xlink:href="#l"/><linearGradient id="ap" x1="0.499" y1="1.152" x2="0.503" y2="0.252" xlink:href="#l"/><linearGradient id="aq" x1="0.5" y1="0.188" x2="0.5" y2="1.082" xlink:href="#i"/><linearGradient id="at" x1="-0.018" y1="0.5" x2="1.068" y2="0.5" gradientUnits="objectBoundingBox"><stop offset="0" stop-color="#fcfcfe"/><stop offset="1" stop-color="#beb7e8"/></linearGradient><linearGradient id="au" x1="1.263" y1="0.5" x2="0.015" y2="0.5" xlink:href="#i"/></defs><g transform="matrix(0.998, -0.07, 0.07, 0.998, -1131.751, -272.256)"><path class="a" d="M1274.158,719.218c0,7.917-14.335,52.634-14.335,52.634s-14.335-44.717-14.335-52.634c0-18.667,6.418-21.3,14.335-21.3S1274.158,700.718,1274.158,719.218Z"/><path class="a" d="M1310.268,719.218c0,7.917-14.336,52.634-14.336,52.634s-14.334-44.717-14.334-52.634c0-18.667,6.418-21.3,14.334-21.3S1310.268,700.718,1310.268,719.218Z"/><path class="a" d="M1310.268,706c0,7.917-14.336,59.6-14.336,59.6S1281.6,713.92,1281.6,706a14.335,14.335,0,1,1,28.67,0Z"/><path class="a" d="M1274.158,706c0,7.917-14.335,59.6-14.335,59.6s-14.335-51.68-14.335-59.6a14.335,14.335,0,0,1,28.67,0Z"/><path class="a" d="M1270.783,702.392c0,5.027-10.96,37.833-10.96,37.833s-10.96-32.806-10.96-37.833,4.907-9.1,10.96-9.1S1270.783,697.367,1270.783,702.392Z"/><path class="a" d="M1306.893,702.392c0,5.027-10.961,37.833-10.961,37.833s-10.959-32.806-10.959-37.833,4.906-9.1,10.959-9.1S1306.893,697.367,1306.893,702.392Z"/><path class="a" d="M1266.408,698.76c0,3.02-6.585,22.731-6.585,22.731s-6.585-19.711-6.585-22.731,2.948-5.467,6.585-5.467S1266.408,695.741,1266.408,698.76Z"/><path class="a" d="M1302.518,698.76c0,3.02-6.586,22.731-6.586,22.731s-6.584-19.711-6.584-22.731,2.947-5.467,6.584-5.467S1302.518,695.741,1302.518,698.76Z"/><rect class="b" width="84.651" height="10.096" transform="translate(1235.552 476.848)"/><rect class="b" width="84.651" height="10.096" transform="translate(1235.552 555.389)"/><path class="c" d="M1328.932,429.817c-.324-.76-1.953-.6-1.953-.6s-1.627-.164-1.953.6-12.046,34.4-12.046,36.029V677.135h28V465.846C1340.979,464.218,1329.258,430.577,1328.932,429.817Z"/><path class="d" d="M1312.98,503.186V677.135h28V465.846c0-.935-3.87-12.44-7.225-22.205C1338.567,466.507,1332.16,490.993,1312.98,503.186Z"/><path class="e" d="M1340.979,673.636V604.9c-5.3-5.642-10.207-11.377-13.485-16.612-2.668-4.261-4.691-10.311-6.257-17.136V483.422a101.857,101.857,0,0,0-4.631-29.2c-2.03,6.057-3.627,11.02-3.627,11.62V677.135h8.258v-2.892h16.523A23.826,23.826,0,0,0,1340.979,673.636Z"/><rect class="f" width="27.999" height="1.493" transform="translate(1312.98 468.482)"/><rect class="f" width="28" height="1.494" transform="translate(1312.979 523.067)"/><rect class="f" width="28" height="1.493" transform="translate(1312.979 577.653)"/><rect class="f" width="27.999" height="1.493" transform="translate(1312.98 632.238)"/><path class="g" d="M1337.571,534.793a2.825,2.825,0,0,1-2.826,2.825h0a2.825,2.825,0,0,1-2.825-2.825V518.057a2.826,2.826,0,0,1,2.825-2.826h0a2.826,2.826,0,0,1,2.826,2.826Zm0-26.986a2.826,2.826,0,0,0-2.826-2.826h0a2.826,2.826,0,0,0-2.825,2.826v2.511a2.825,2.825,0,0,0,2.825,2.825h0a2.825,2.825,0,0,0,2.826-2.825Z"/><path class="c" d="M1230.73,429.817c-.325-.76-1.953-.6-1.953-.6s-1.628-.164-1.954.6-12.045,34.4-12.045,36.029V677.135h28V465.846C1242.776,464.218,1231.056,430.577,1230.73,429.817Z"/><path class="h" d="M1214.778,503.186V677.135h28V465.846c0-.935-3.87-12.44-7.224-22.205C1240.365,466.507,1233.958,490.993,1214.778,503.186Z"/><path class="i" d="M1214.778,673.636V604.9c5.3-5.642,10.206-11.377,13.484-16.612,2.668-4.261,4.69-10.311,6.258-17.136V483.422a101.853,101.853,0,0,1,4.63-29.2c2.03,6.057,3.627,11.02,3.627,11.62V677.135h-8.257v-2.892H1218A23.8,23.8,0,0,1,1214.778,673.636Z"/><rect class="f" width="27.998" height="1.493" transform="translate(1214.778 468.482)"/><rect class="f" width="27.999" height="1.494" transform="translate(1214.777 523.067)"/><rect class="f" width="27.999" height="1.493" transform="translate(1214.777 577.653)"/><rect class="f" width="27.998" height="1.493" transform="translate(1214.778 632.238)"/><path class="g" d="M1225.744,536.56a2.825,2.825,0,0,1-2.826,2.825h0a2.825,2.825,0,0,1-2.826-2.825V519.825a2.826,2.826,0,0,1,2.826-2.826h0a2.826,2.826,0,0,1,2.826,2.826Zm0-26.985a2.826,2.826,0,0,0-2.826-2.826h0a2.826,2.826,0,0,0-2.826,2.826v2.511a2.826,2.826,0,0,0,2.826,2.825h0a2.826,2.826,0,0,0,2.826-2.825Z"/><path class="j" d="M1277.878,391.726c-23.313,13.816-31.948,47.2-31.948,67.925V673.242h63.895V459.651C1309.825,438.927,1301.191,405.542,1277.878,391.726Z"/><path class="k" d="M1277.878,391.726s-.967.75-2.687,2.021l-1.422,1.054c-.472.432-.984.9-1.531,1.4s-1.121,1.023-1.73,1.579c-.624.534-1.171,1.228-1.8,1.877l-1.919,2.073-1.874,2.373c-1.341,1.583-2.472,3.467-3.764,5.319-.632.936-1.157,1.966-1.752,2.964-.578,1.01-1.2,2.011-1.7,3.09l-1.609,3.206q-.72,1.656-1.442,3.32c-.238.555-.5,1.1-.717,1.664l-.634,1.693c-.409,1.133-.872,2.241-1.232,3.377-.726,2.268-1.494,4.485-2.046,6.691-.634,2.182-1.1,4.328-1.582,6.358-.415,2.041-.8,3.977-1.111,5.773-.239,1.8-.587,3.449-.723,4.925-.155,1.474-.35,2.759-.409,3.823-.151,2.126-.261,3.348-.261,3.348s-.047-1.219-.09-3.363c-.03-1.073.057-2.369.091-3.864.016-1.5.21-3.172.36-5.008.2-1.828.461-3.81.808-5.892.405-2.071.751-4.277,1.355-6.5.508-2.251,1.209-4.531,1.916-6.85.357-1.159.818-2.293,1.225-3.451l.632-1.732c.218-.576.479-1.136.717-1.7l1.483-3.384q.843-1.641,1.677-3.265a34.244,34.244,0,0,1,1.787-3.137c.638-1.006,1.2-2.04,1.878-2.983a55.772,55.772,0,0,1,4.054-5.3l2.025-2.334q1.085-1.035,2.093-1.994c.686-.622,1.274-1.283,1.956-1.791s1.31-1,1.91-1.456l1.669-1.271,1.51-.926C1276.816,392.334,1277.878,391.726,1277.878,391.726Z"/><path class="k" d="M1277.878,391.726s-.967.75-2.687,2.021l-1.422,1.054c-.472.432-.984.9-1.531,1.4s-1.121,1.023-1.73,1.579c-.624.534-1.171,1.228-1.8,1.877l-1.919,2.073-1.874,2.373c-1.341,1.583-2.472,3.467-3.764,5.319-.632.936-1.157,1.966-1.752,2.964-.578,1.01-1.2,2.011-1.7,3.09l-1.609,3.206q-.72,1.656-1.442,3.32c-.238.555-.5,1.1-.717,1.664l-.634,1.693c-.409,1.133-.872,2.241-1.232,3.377-.726,2.268-1.494,4.485-2.046,6.691-.634,2.182-1.1,4.328-1.582,6.358-.415,2.041-.8,3.977-1.111,5.773-.239,1.8-.587,3.449-.723,4.925-.155,1.474-.35,2.759-.409,3.823-.151,2.126-.261,3.348-.261,3.348s-.047-1.219-.09-3.363c-.03-1.073.057-2.369.091-3.864.016-1.5.21-3.172.36-5.008.2-1.828.461-3.81.808-5.892.405-2.071.751-4.277,1.355-6.5.508-2.251,1.209-4.531,1.916-6.85.357-1.159.818-2.293,1.225-3.451l.632-1.732c.218-.576.479-1.136.717-1.7l1.483-3.384q.843-1.641,1.677-3.265a34.244,34.244,0,0,1,1.787-3.137c.638-1.006,1.2-2.04,1.878-2.983a55.772,55.772,0,0,1,4.054-5.3l2.025-2.334q1.085-1.035,2.093-1.994c.686-.622,1.274-1.283,1.956-1.791s1.31-1,1.91-1.456l1.669-1.271,1.51-.926C1276.816,392.334,1277.878,391.726,1277.878,391.726Z"/><path class="l" d="M1277.878,673.242h31.947V459.651c0-20.724-8.634-54.109-31.947-67.925,25.138,32.468,19.617,81.5-31.948,107.5V673.242Z"/><path class="m" d="M1255.29,441.714a3.47,3.47,0,0,1-3.206-4.292,91.058,91.058,0,0,1,4.971-14.686,3.462,3.462,0,0,1,6.339,2.784,84.129,84.129,0,0,0-4.59,13.567A3.464,3.464,0,0,1,1255.29,441.714Zm11.958-24.068q.22-.327.444-.652a3.462,3.462,0,0,0-5.7-3.925q-.245.357-.486.717a3.461,3.461,0,1,0,5.746,3.86Z"/><path class="n" d="M1264.088,673.242h45.737V519.512c-1.387-4.745-2.745-5.529-2.76-5.538a141.679,141.679,0,0,0-7.358-40.321c-.159-.479-.32-.965-.48-1.432-2.561-7.47-5.235-13.867-7.1-16.855a8.036,8.036,0,0,0-12.974,0c-1.864,2.988-4.538,9.385-7.1,16.855-.16.467-.321.953-.481,1.432a142.92,142.92,0,0,0-7.486,46.652Z"/><rect class="o" width="63.896" height="1.189" transform="translate(1245.93 462.371)"/><rect class="p" width="63.896" height="1.189" transform="translate(1245.93 462.965)"/><rect class="o" width="63.896" height="1.189" transform="translate(1245.93 506.072)"/><rect class="p" width="63.896" height="1.189" transform="translate(1245.93 506.667)"/><rect class="o" width="63.896" height="1.19" transform="translate(1245.93 549.773)"/><rect class="p" width="63.896" height="1.19" transform="translate(1245.93 550.368)"/><path class="q" d="M1256.456,510.3s-2.758,1.532-4.444,13.943-2.451,55.16-12.717,71.556-36.467,37.692-40.911,45.66-6.742,29.112-6.588,30.031,34.739,10.266,37.233,10.266h29.062V510.3Z"/><path class="r" d="M1193.156,660.352h64.935v1.3h-22.317v20.1h-1.081v-20.1h-19.039V678.6l-1.081-.286V661.651h-21.625C1193.015,661.223,1193.084,660.792,1193.156,660.352Z"/><path class="s" d="M1197.59,641.455c4.107-7.292,27.349-26.571,38.765-41.393h4.867c-9.809,16.363-34.39,37.5-38.576,45.431-3.446,6.53-5.528,21.907-6.088,27.749-2.868-.888-5.587-1.545-5.623-1.756C1190.78,670.567,1193.1,649.423,1197.59,641.455Z"/><path class="t" d="M1246.3,640.636a11.691,11.691,0,1,1-11.691-11.69A11.692,11.692,0,0,1,1246.3,640.636Z"/><path class="u" d="M1234.609,633.062l2.089,4.835,5.246.493-3.954,3.481,1.151,5.141-4.532-2.685-4.532,2.685,1.151-5.141-3.953-3.481,5.244-.493Z"/><path class="v" d="M1299.3,510.3s2.758,1.532,4.443,13.943,2.453,55.16,12.718,71.556,36.468,37.692,40.911,45.66,6.742,29.112,6.588,30.031-34.738,10.266-37.232,10.266h-29.062V510.3Z"/><path class="r" d="M1362.6,660.352h-64.934v1.3h22.316v20.1h1.082v-20.1H1340.1V678.6l1.081-.286V661.651h21.626C1362.74,661.223,1362.672,660.792,1362.6,660.352Z"/><path class="w" d="M1358.166,641.455c-4.107-7.292-27.35-26.571-38.765-41.393h-4.868c9.809,16.363,34.39,37.5,38.577,45.431,3.445,6.53,5.527,21.907,6.087,27.749,2.868-.888,5.587-1.545,5.624-1.756C1364.975,670.567,1362.654,649.423,1358.166,641.455Z"/><path class="t" d="M1332.837,640.636a11.691,11.691,0,1,1-11.69-11.69A11.691,11.691,0,0,1,1332.837,640.636Z"/><path class="x" d="M1321.147,633.062l2.089,4.835,5.245.493-3.953,3.481,1.15,5.141-4.531-2.685-4.533,2.685,1.152-5.141-3.953-3.481,5.244-.493Z"/><path class="y" d="M1322.606,604.141a80.64,80.64,0,0,1-6.146-8.346c-10.265-16.4-11.032-59.145-12.718-71.556S1299.3,510.3,1299.3,510.3h-1.634V681.752h29.062c1.086,0,17.174-4.224,24.939-6.3Z"/><path class="z" d="M1323.346,681.752,1310.4,656.747c-.522-10.27-6.4-14.892-7.881-15.893V517.536c-1.539-6.307-3.219-7.24-3.219-7.24h-1.634v130.34h-10.709v38.818h10.709v2.3Z"/><path class="aa" d="M1291.944,469.975H1287.3l-2.537,2.538h-13.772l-2.538-2.538h-4.643a142.915,142.915,0,0,0-7.487,46.653V674.756c0,3.268,3.473,4.7,6.129,4.7h30.85c2.655,0,6.129-1.43,6.129-4.7V516.628A142.885,142.885,0,0,0,1291.944,469.975Z"/><path class="h" d="M1256.324,523.808V674.756c0,3.268,3.473,4.7,6.129,4.7h30.85c2.655,0,6.129-1.43,6.129-4.7V516.628a142.885,142.885,0,0,0-7.488-46.653c-.16-.479-.321-.965-.481-1.432-2.56-7.47-5.234-13.867-7.1-16.855C1291.444,471.692,1286.6,509.4,1256.324,523.808Z"/><path class="ab" d="M1256.324,523.808s.066,1.825.182,5.02c.081,3.2.262,7.759.336,13.234.092,5.477.24,11.866.279,18.711.057,6.846.089,14.148.065,21.449,0,7.3-.055,14.6-.112,21.449-.1,6.845-.19,13.235-.269,18.711-.029,2.738-.116,5.248-.161,7.473s-.1,4.164-.139,5.761c-.1,3.195-.155,5.02-.155,5.02s-.057-1.825-.158-5.019c-.039-1.6-.086-3.537-.141-5.762s-.134-4.735-.165-7.473c-.081-5.476-.176-11.866-.277-18.71-.059-6.846-.115-14.148-.121-21.45-.027-7.3,0-14.6.055-21.448.036-6.846.181-13.235.271-18.711.071-5.476.251-10.04.33-13.234C1256.258,525.633,1256.324,523.808,1256.324,523.808Z"/><path class="ab" d="M1277.2,543.522s.019,1.186.052,3.261.074,5.041.095,8.6.068,7.708.079,12.156.025,9.19.019,13.934-.016,9.488-.032,13.935-.054,8.6-.076,12.156c-.009,1.778-.034,3.409-.046,4.856s-.029,2.705-.039,3.742c-.029,2.076-.045,3.262-.045,3.262l-.044-3.261c-.011-1.038-.025-2.3-.04-3.743s-.038-3.078-.047-4.856c-.024-3.557-.05-7.709-.079-12.156s-.032-9.191-.034-13.935,0-9.487.015-13.934.052-8.6.077-12.156.072-6.523.094-8.6S1277.2,543.522,1277.2,543.522Z"/><path class="ac" d="M1264.906,679.454h28.4a8.171,8.171,0,0,0,2.855-.53l-24.588-38.288h-6.664Z"/><path class="f" d="M1291.463,468.543c-2.56-7.47-5.234-13.867-7.1-16.855a8.035,8.035,0,0,0-12.973,0c-1.864,2.988-4.538,9.385-7.1,16.855-.16.467-.321.953-.481,1.432h4.643l2.538,2.538h13.772l2.537-2.538h4.643C1291.784,469.5,1291.623,469.01,1291.463,468.543Z"/><path class="ad" d="M1275.115,472.513h9.649l2.537-2.538h4.643c-.16-.479-.321-.965-.481-1.432-2.56-7.47-5.234-13.867-7.1-16.855C1284.364,451.688,1285.658,464.243,1275.115,472.513Z"/><path class="ae" d="M1288.654,487.184c-1.737-1.507-7.738-5.694-10.776-5.694s-9.04,4.187-10.777,5.694-3.013,2.885-3.013,4.061v3.7c0,.689.945.841,1.608.356a33.906,33.906,0,0,0,2.861-2.093,2.805,2.805,0,0,0,.331-1.584c0-1.329.243-1.493.562-1.813a22.31,22.31,0,0,1,2.2-1.481c.447-.256.69-.025.69.435V490.2a.938.938,0,0,0,.919.97h9.245a.938.938,0,0,0,.919-.97v-1.429c0-.46.243-.691.691-.435a22.305,22.305,0,0,1,2.2,1.481c.319.32.562.484.562,1.813a2.813,2.813,0,0,0,.331,1.584,33.906,33.906,0,0,0,2.861,2.093c.664.485,1.609.333,1.609-.356v-3.7C1291.668,490.069,1290.391,488.692,1288.654,487.184Z"/><path class="af" d="M1288.654,487.184c-1.737-1.507-7.738-5.694-10.776-5.694s-9.04,4.187-10.777,5.694-3.013,2.885-3.013,4.061v.875c0-1.176,1.276-2.553,3.013-4.061s7.738-5.694,10.777-5.694,9.039,4.187,10.776,5.694,3.014,2.885,3.014,4.061v-.875C1291.668,490.069,1290.391,488.692,1288.654,487.184Z"/><path class="ag" d="M1.142,0H3.25A1.142,1.142,0,0,1,4.392,1.142V3.249A1.143,1.143,0,0,1,3.249,4.392H1.143A1.143,1.143,0,0,1,0,3.249V1.142A1.142,1.142,0,0,1,1.142,0Z" transform="translate(1272.515 500.59)"/><path class="ag" d="M1.142,0H3.25A1.142,1.142,0,0,1,4.392,1.142V3.249A1.143,1.143,0,0,1,3.249,4.392H1.143A1.143,1.143,0,0,1,0,3.249V1.142A1.142,1.142,0,0,1,1.142,0Z" transform="translate(1278.849 500.59)"/><path class="ah" d="M1309.752,692.6a3.39,3.39,0,0,1-3.451,4.238h-20.737a3.389,3.389,0,0,1-3.451-4.238l4.264-20.625a5.555,5.555,0,0,1,5.2-4.237h8.706a5.556,5.556,0,0,1,5.2,4.237Z"/><path class="ai" d="M1291.6,667.735a5.553,5.553,0,0,0-5.2,4.237L1284.01,683.5h0l24.969,5.272-3.473-16.8a5.556,5.556,0,0,0-5.2-4.237Z"/><path class="ah" d="M1273.642,692.6a3.389,3.389,0,0,1-3.45,4.238h-20.737A3.389,3.389,0,0,1,1246,692.6l4.264-20.625a5.555,5.555,0,0,1,5.2-4.237h8.706a5.557,5.557,0,0,1,5.2,4.237Z"/><path class="ai" d="M1255.47,667.735a5.555,5.555,0,0,0-5.2,4.237l-2.384,11.531h0l24.968,5.272-3.472-16.8a5.557,5.557,0,0,0-5.2-4.237Z"/><path class="aj" d="M1256.35,640.636s-8.274,4.7-8.274,17.57v21.248h23.494V640.636Z"/><path class="ak" d="M1299.405,640.636s8.275,4.7,8.275,17.57v21.248h-23.494V640.636Z"/><rect class="al" width="43.108" height="0.865" transform="translate(1256.324 516.592)"/><rect class="al" width="0.865" height="117.258" transform="translate(1277.445 516.592)"/><rect class="al" width="43.108" height="0.865" transform="translate(1256.324 555.389)"/><rect class="al" width="43.107" height="0.865" transform="translate(1256.324 594.188)"/><rect class="al" width="43.108" height="0.865" transform="translate(1256.324 632.985)"/><path class="am" d="M1265.617,481.48a2.5,2.5,0,0,1-2.456-2.982,72.254,72.254,0,0,1,3.037-10.817,2.5,2.5,0,0,1,4.7,1.717,67.076,67.076,0,0,0-2.827,10.065A2.5,2.5,0,0,1,1265.617,481.48Zm7.711-17.843.174-.342a2.5,2.5,0,1,0-4.442-2.3l-.2.391a2.5,2.5,0,1,0,4.468,2.246Z"/><path class="g" d="M1295.932,603.564a2.825,2.825,0,0,1-2.825,2.825h0a2.825,2.825,0,0,1-2.826-2.825V586.829a2.826,2.826,0,0,1,2.826-2.826h0a2.825,2.825,0,0,1,2.825,2.826Zm0-26.985a2.825,2.825,0,0,0-2.825-2.826h0a2.826,2.826,0,0,0-2.826,2.826v2.511a2.825,2.825,0,0,0,2.826,2.825h0a2.825,2.825,0,0,0,2.825-2.825Z"/><path class="g" d="M1210.751,657.1a3.5,3.5,0,0,1-3.165-4.989c2.9-6.166,9.232-12.684,16.568-20.23l2.259-2.328a3.5,3.5,0,1,1,5.031,4.868l-2.27,2.339c-6.611,6.8-12.854,13.223-15.252,18.328A3.5,3.5,0,0,1,1210.751,657.1Zm27.956-30.405q.613-.681,1.219-1.368a3.5,3.5,0,1,0-5.248-4.633q-.584.661-1.173,1.317a3.5,3.5,0,0,0,5.2,4.684Z"/><path class="g" d="M1337.706,650.241c-2.587-5.011-9.067-11.2-15.927-17.742l-2.357-2.254a3.5,3.5,0,0,1,4.845-5.052l2.345,2.241c7.613,7.267,14.189,13.542,17.314,19.595a3.5,3.5,0,1,1-6.22,3.212Zm-23.188-26.384a3.5,3.5,0,0,0,2.379-5.935q-.613-.632-1.221-1.273a3.5,3.5,0,0,0-5.071,4.826q.632.663,1.269,1.323A3.5,3.5,0,0,0,1314.518,623.857Z"/></g></svg>