<svg xmlns="http://www.w3.org/2000/svg" xmlns:xlink="http://www.w3.org/1999/xlink" width="1334.904" height="889.936" viewBox="0 0 1334.904 889.936"><defs><style>.a{fill:none;}.b{clip-path:url(#a);}.c{fill:#f2b131;}.d{fill:#ffe843;}.e{fill:#bf1053;}.f{fill:#33b1bf;}.g{fill:#ec3675;}.h{fill:#00adb5;}.i{fill:#3c3658;}.j{fill:#08f9f2;}.k{fill:#fff;}.l{fill:#d88c05;}.m{fill:#ffe757;}.n{fill:#c67b02;}.o{fill:#ce1d61;}.p{fill:#ff5c9b;}.q,.r,.s,.t,.u,.v{mix-blend-mode:soft-light;}.q,.r,.s,.t,.u,.v,.w{isolation:isolate;}.q{fill:url(#b);}.r{fill:url(#c);}.s{fill:url(#d);}.t{fill:url(#e);}.u{fill:url(#f);}.v{fill:url(#h);}.w{opacity:0.5;mix-blend-mode:hard-light;fill:url(#i);}</style><clipPath id="a"><rect class="a" width="1334.904" height="889.936"/></clipPath><linearGradient id="b" x1="0.986" y1="0.122" x2="0.177" y2="0.769" gradientUnits="objectBoundingBox"><stop offset="0" stop-color="#fff"/><stop offset="0.216" stop-color="#fff" stop-opacity="0.761"/><stop offset="0.604" stop-color="#fff" stop-opacity="0.357"/><stop offset="0.874" stop-color="#fff" stop-opacity="0.098"/><stop offset="1" stop-color="#fff" stop-opacity="0"/></linearGradient><linearGradient id="c" x1="0.951" y1="0.006" x2="0.369" y2="0.565" xlink:href="#b"/><linearGradient id="d" x1="1.004" y1="-0.408" x2="0.486" y2="0.383" xlink:href="#b"/><linearGradient id="e" x1="0.951" y1="0.09" x2="0.236" y2="0.869" xlink:href="#b"/><linearGradient id="f" x1="0" y1="0.5" x2="1" y2="0.5" xlink:href="#b"/><linearGradient id="h" x1="0.918" y1="-0.088" x2="0.33" y2="0.636" xlink:href="#b"/><radialGradient id="i" cx="0.5" cy="0.5" r="0.535" gradientTransform="translate(0.104 0.902) scale(0.934 0.934)" gradientUnits="objectBoundingBox"><stop offset="0" stop-color="#fff"/><stop offset="0.072" stop-color="#fcf03d"/><stop offset="0.106" stop-color="#fbe33a" stop-opacity="0.922"/><stop offset="0.205" stop-color="#f8c335" stop-opacity="0.706"/><stop offset="0.309" stop-color="#f6a730" stop-opacity="0.518"/><stop offset="0.414" stop-color="#f48f2c" stop-opacity="0.357"/><stop offset="0.521" stop-color="#f37c29" stop-opacity="0.227"/><stop offset="0.63" stop-color="#f26d27" stop-opacity="0.129"/><stop offset="0.744" stop-color="#f16225" stop-opacity="0.055"/><stop offset="0.863" stop-color="#f15c24" stop-opacity="0.016"/><stop offset="1" stop-color="#f15a24" stop-opacity="0"/></radialGradient></defs><g class="b"><g transform="translate(-141.528 180.266)"><g transform="translate(1036.4 18.93)"><g transform="translate(0 72.936)"><path class="c" d="M550.653,191.141a29.586,29.586,0,0,0,8.431-17.653,16.989,16.989,0,0,0-3.471-13.043l-.009.005.007-.005h0l0,0c.728.938,1.449,1.961,2.2,3.077-.7-1.048-1.353-2.134-2.106-3.147l0,0c-.753-1.013-1.607-1.947-2.41-2.921.838,1.016,1.6,1.983,2.28,2.933a16.963,16.963,0,0,0-11.455-7.016,28.927,28.927,0,0,0-33.381,20.769c-1.207,4.4-1.354,9.022-2.152,13.518s-2.39,9.083-5.81,12.108l.005,0-.009.005c3.88-2.406,8.732-2.616,13.267-2.088s9,1.71,13.566,1.819A29.31,29.31,0,0,0,550.653,191.141Z" transform="translate(-502.773 -152.894)"/><path class="d" d="M540.933,177.107a15.92,15.92,0,0,0,4.537-9.5,9.141,9.141,0,0,0-1.869-7.018l0,0,0,0h0l0,0c.393.505.78,1.055,1.182,1.657-.377-.564-.728-1.148-1.132-1.693h0c-.406-.545-.865-1.047-1.3-1.572.452.548.862,1.068,1.226,1.579a9.128,9.128,0,0,0-6.164-3.775,15.569,15.569,0,0,0-17.963,11.176c-.65,2.371-.728,4.855-1.157,7.274a11.088,11.088,0,0,1-3.127,6.516l0,0-.005,0a11.086,11.086,0,0,1,7.139-1.125c2.44.283,4.843.92,7.3.979A15.767,15.767,0,0,0,540.933,177.107Z" transform="translate(-493.106 -150.062)"/></g><g transform="translate(16.663)"><rect class="e" width="24.134" height="9.092" transform="matrix(0.597, 0.802, -0.802, 0.597, 33.133, 68.941)"/><g transform="translate(0 33.382)"><path class="f" d="M557.49,152.129l-.139-.187a13.516,13.516,0,0,1-10.727-6.438,13.342,13.342,0,0,1-.678-12.409c-1.378-2.047-4.177-2.761-6.6-2.278a15.1,15.1,0,0,0-6.425,3.513c-9.622,7.947-15.835,19.34-20.027,31.094a9.332,9.332,0,0,0-.753,3.642,3.355,3.355,0,0,0,1.906,2.985,30.316,30.316,0,0,1,10.355-10.882c3.563-2.227,7.757-3.718,11.936-3.264s8.259,3.168,9.5,7.185a44.948,44.948,0,0,0,8.207-6.219,15.352,15.352,0,0,0,4.572-9.031C558.227,150.324,557.881,151.646,557.49,152.129Z" transform="translate(-512.135 -130.672)"/><path class="f" d="M561.188,156.108l.141.187a13.512,13.512,0,0,0,3.086,12.124,13.349,13.349,0,0,0,11.692,4.213c1.565,1.906,1.447,4.793.29,6.972a15.085,15.085,0,0,1-5.21,5.146c-10.377,6.936-23.071,9.617-35.535,10.259a9.388,9.388,0,0,1-3.7-.324A3.353,3.353,0,0,1,529.636,192a30.32,30.32,0,0,0,13.4-6.794c3.157-2.777,5.79-6.365,6.554-10.5s-.664-8.821-4.158-11.158a44.933,44.933,0,0,1,8.314-6.076,15.366,15.366,0,0,1,9.964-1.789C563.13,155.921,561.765,155.873,561.188,156.108Z" transform="translate(-498.486 -111.344)"/></g><path class="g" d="M595.2,178.981a292.824,292.824,0,0,1-49.6,23l-15.857-21.307a293.985,293.985,0,0,1,36.272-40.912c9.243-8.62,19.212-16.754,30.738-21.955a65.339,65.339,0,0,1,13.016-3.852c10.8-2.2,24.178-3.086,32.212-.271a.173.173,0,0,1-.036.044l.044-.034c.39,8.5-4.3,21.068-9.506,30.779a65.374,65.374,0,0,1-7.427,11.363C616.777,165.4,606.123,172.613,595.2,178.981Z" transform="translate(-498.403 -111.916)"/><rect class="f" width="2.95" height="51.479" transform="matrix(0.597, 0.802, -0.802, 0.597, 56.779, 64.546)"/><g transform="translate(88.469 17.399)"><path class="h" d="M582.111,144.358a11.678,11.678,0,1,1,2.4-16.339A11.678,11.678,0,0,1,582.111,144.358Z" transform="translate(-560.577 -120.428)"/><path class="i" d="M564.716,144.95a14.567,14.567,0,1,1,20.383,2.988A14.585,14.585,0,0,1,564.716,144.95Zm20.921-15.57a11.512,11.512,0,1,0-2.362,16.108A11.523,11.523,0,0,0,585.637,129.38Z" transform="translate(-561.84 -121.691)"/><g transform="translate(4.41 4.059)"><path class="j" d="M580.049,134.863a.938.938,0,0,0-.4-.319,1.1,1.1,0,0,0-.76.144,11.5,11.5,0,0,1-5.61.938,5.508,5.508,0,0,1-2.061-.518,5.779,5.779,0,0,1-1.084-.758,13.919,13.919,0,0,1-2.958-3.508c-.091-.155-.2-.326-.377-.356a.56.56,0,0,0-.288.048,3.9,3.9,0,0,0-1.931,1.575,1.332,1.332,0,0,0-.253.8,1.579,1.579,0,0,0,.255.637,17.32,17.32,0,0,0,2.677,3.8,9.857,9.857,0,0,0,5.9,2.668,13.255,13.255,0,0,0,6.447-1.061C581.563,138.129,581.257,136.312,580.049,134.863Z" transform="translate(-564.318 -118.896)"/><path class="k" d="M569.457,124.31a1.69,1.69,0,0,0-.968.651,1.557,1.557,0,0,0,.3,1.661,5.259,5.259,0,0,0,3.707,1.815,4.034,4.034,0,0,0,2.6-.461,2.658,2.658,0,0,0,1.064-1.625c.123-.947-1-1.431-1.7-1.751A6.893,6.893,0,0,0,569.457,124.31Z" transform="translate(-561.173 -123.972)"/><path class="k" d="M568.114,127.88a.9.9,0,0,0,.164.42,2.874,2.874,0,0,0,3.049,1.21.629.629,0,0,0,.416-.251.713.713,0,0,0,.061-.352,1.776,1.776,0,0,0-.114-.762,1.38,1.38,0,0,0-.292-.39C570.852,127.213,568.011,126.241,568.114,127.88Z" transform="translate(-561.359 -121.633)"/></g></g><path class="c" d="M597.42,144.477l-22.715-30.519c10.8-2.2,24.178-3.086,32.212-.271a.173.173,0,0,1-.036.044l.044-.034C607.316,122.2,602.628,134.766,597.42,144.477Z" transform="translate(-463.338 -111.916)"/><path class="l" d="M589.792,139.509l-6.361-8.549c-.082-.11,6.358-6.938,6.934-7.611q3.417-3.989,6.545-8.212c1-1.358,2.1-1.554,1.96.443a36.47,36.47,0,0,1-.573,4.389,44.759,44.759,0,0,1-2.567,8.5A63.935,63.935,0,0,1,589.792,139.509Z" transform="translate(-456.534 -110.214)"/><path class="m" d="M582.276,116.389a11.245,11.245,0,0,0-2.953,1.33.8.8,0,0,0-.415.564.853.853,0,0,0,.164.449c.543.9,1.285,1.908,2.335,1.872a3.008,3.008,0,0,0,.961-.256l11.566-4.517a33.73,33.73,0,0,0,3.14-1.351,1.7,1.7,0,0,0,.806-.675c.66-1.347-2.262-.536-2.8-.456q-2.157.318-4.291.758A75.689,75.689,0,0,0,582.276,116.389Z" transform="translate(-460.061 -111.044)"/><path class="n" d="M588.38,122.8c-.443.546-.885,1.093-1.337,1.632q-1.287,1.538-2.666,2.994a.425.425,0,0,0-.135.215.4.4,0,0,0,.045.217,4.542,4.542,0,0,0,1.015,1.5,29.917,29.917,0,0,0,5.1-6.116,28.362,28.362,0,0,0,1.874-3.462c.2-.447.58-1.335-.185-.97a4.911,4.911,0,0,0-1.109.849A30.892,30.892,0,0,0,588.38,122.8Z" transform="translate(-455.904 -106.605)"/><path class="o" d="M619.6,126.457s-4.795,17.112-39.389,35.907-43.356,21.752-43.356,21.752l3.544,4.761s43.819-15.41,67.678-35.17c0,0,14.545-11.078,16.508-20.552Z" transform="translate(-492.857 -100.576)"/><path class="p" d="M582.79,114.843a5.419,5.419,0,0,0-2.606.361,57.272,57.272,0,0,0-17.639,9.293c.269.4.885.281,1.34.114l12.593-4.661c2.077-.767,4.158-1.525,6.23-2.3.646-.242,1.673-.416,1.723-1.269C584.479,115.571,583.458,114.968,582.79,114.843Z" transform="translate(-472.821 -109.673)"/></g></g><path class="q" d="M880.916,166.093c-33.214,19.048-63.769,45.828-101.591,51.794-34.939,5.514-71.033-7.837-105.74-1.016-25.071,4.927-46.8,19.851-69.641,31.3a269.022,269.022,0,0,1-143.169,27.342c-36.735-3.218-73.87-14-109.877-6.032-59.519,13.166-97.315,72.661-152.916,97.649-36.188,16.263-77.449,16.738-116.955,13.073-21.994-2.04-44.132-5.272-66.072-2.705s-44.226,11.863-56.9,29.953c-11.639,16.617-13.6,37.943-14.809,58.195A1655.19,1655.19,0,0,0-40.018,818.744c135.482,31.869,272.411,63.913,411.592,64.2,70.789.148,141.309-7.942,211.636-16.019-7.846-37.165-13.141-82.467,15.823-107.041,18.635-15.812,45.721-17.078,66.537-29.888,48.873-30.073,43.311-106.645,84.361-146.745,31.6-30.868,85.414-34.4,110.26-70.919,16.918-24.87,14.969-57.436,20.808-86.941a161.632,161.632,0,0,1,59.215-95.609c18.112-13.976,41.2-26.972,44.634-49.591,1.5-9.869-1.248-19.949-.317-29.889,2.926-31.256,37.062-66.765,1.022-93.577C956.367,135.015,908.6,150.222,880.916,166.093Z" transform="translate(94.971 -66.451)"/><path class="r" d="M895.041,167.483C872.622,180.449,854.435,200,831.5,212.036a113.857,113.857,0,0,1-62.776,12.491c-36.64-3.325-71.674-24.4-108.029-18.762-41.667,6.465-69.269,44.8-100.059,73.61-34.782,32.54-80.059,55.692-127.677,56.771-40.909.926-80.509-14.13-121.291-17.5a215.649,215.649,0,0,0-145.713,42.033c-21.225,15.937-39.686,35.966-63.388,47.914-35.77,18.03-79.364,15-116.631.3-6.792-2.679-13.538-5.781-19.114-10.5-17.678-14.947-19.141-41.208-19.23-64.358C-21.347,375.016,37.825,395.53,84.6,374.2c16.247-7.41,30.1-19.057,44.447-29.7,31.66-23.485,67.495-42.882,106.509-48.521,84.683-12.24,175.625,40.665,253.379,4.953,42.382-19.466,69.933-61.338,108.763-87.173a167.549,167.549,0,0,1,115.738-26.027c36.672,5.341,73.651,22.907,109.243,12.585,34.259-9.937,57.922-43.666,92.487-52.48,23.315-5.943,52.951,1.326,68.4,20.5-14.924-.982-26.047-10.341-40.645-12.228C926.522,154,909.134,159.331,895.041,167.483Z" transform="translate(100.658 -66.547)"/><path class="s" d="M923.912,254.42C898.574,271.2,867.3,278.156,843.7,297.313c-29.16,23.678-41.961,62.6-44.386,100.084-1.086,16.775-.438,33.921-5.293,50.014-8.467,28.061-32.518,48.818-58.257,62.842s-54.016,22.9-79.834,36.774A233.413,233.413,0,0,0,547.225,674.386c-6.1,17.5-10.143,35.841-18.719,52.268-16.759,32.1-49.539,53.6-84.266,63.865s-71.57,10.535-107.755,9.1a1211.5,1211.5,0,0,1-143.168-14.244c-30.222-4.836-60.669-10.839-91.19-8.552-20.7,1.552-41.11,6.908-61.867,6.644s-43.116-7.548-54.133-25.142c-13.575-21.679-5.525-49.578-2.269-74.949,8.164-63.641-17.115-129.279-2.132-191.667C-13.061,470-2.319,448.663,15.985,435.883,43.311,416.8,79.854,420.838,113,424.3c43.454,4.539,90.1,6.06,127.781-16.044,27.757-16.281,47.3-43.559,73.277-62.552a149.139,149.139,0,0,1,93.32-28.36c38.362,1.582,77.145,17.97,114.067,7.438,42.09-12.005,68.271-55.352,108.766-71.96,42.461-17.414,93.349-2.549,135.091-21.624,37.251-17.023,62.032-58.953,102.474-65.432,28.765-4.608,62.447,10.491,87.862-8.68-7.239,18.142,3.631,30.845,1.08,49.084C953.985,225.714,940.041,243.734,923.912,254.42Z" transform="translate(123.495 -57.759)"/><path class="t" d="M693.381,241.829c-1.089,13.842,4.45,28.111.466,41.412-4.955,16.54-22.384,25.351-37.716,33.3-21.976,11.391-43.221,24.934-59.907,43.217s-28.574,41.781-29.363,66.521c-.749,23.459,8.312,47.081,3.408,70.034-4.717,22.072-21.835,39.718-41.192,51.324s-41.186,18.279-62.135,26.677c-39.636,15.885-79.751,42.1-91.377,83.191-7.531,26.613-2.28,57.066-16.759,80.632-14.643,23.831-45.26,33.371-61.973,55.8,13.967,2.469,27.109,8.919,41.225,10.286s30.742-4.581,34.715-18.2c1.944-6.664.477-13.767-.253-20.671-2.627-24.881,4.564-49.635,11.676-73.621,2.9-9.782,5.826-19.623,10.393-28.749,13.313-26.6,39.218-44.555,65.686-58.125s54.751-24.064,78.864-41.475,44.2-43.829,44.479-73.571c.219-23.213-11.535-45.882-8.109-68.84,4.88-32.7,37.425-52.675,66.293-68.8s60.783-38.16,62.691-71.17c.5-8.7-1.246-17.382-1.313-26.1-.242-31.045,25.4-67.279,10.549-97.43-5.646,12.107-.03,27.476-5.03,41C703.4,212.814,694.609,226.236,693.381,241.829Z" transform="translate(373.021 -57.458)"/><path class="u" d="M326.218,716.526c16.973-27.366,27.024-58.341,40.042-87.792a466.546,466.546,0,0,1,74.5-117.279c14.675-16.879,30.927-32.965,50.842-43.146,16.576-8.474,35.012-12.514,52.4-19.157,31.064-11.865,59.7-33.353,73.7-63.511,12.6-27.125,12.345-58.179,17.491-87.641s18.785-61,46.574-72.058c-27.138,2.875-42.95,31.981-50.048,58.33-10.98,40.761-14.518,87.459-45.727,115.886-23.028,20.976-55.637,26.513-85.233,36.228-77.033,25.287-141.8,85.6-172.489,160.646-12.343,30.18-20.152,63.7-42.831,87.127-31.9,32.96-83.1,36.155-123.876,57.169-4.955,2.554,31.609,31.477,35.241,33.223,14.5,6.974,34.314,11.5,50.191,6.771C278.565,771.927,309.233,743.913,326.218,716.526Z" transform="translate(267.174 -4.06)"/><path class="u" d="M865.811,193.3c-15.161,14.97-27.123,33.686-45.36,44.7-48.824,29.489-113.205-9.561-168.139,5.786C596.059,259.5,568.9,325.556,516.7,351.763c-43.4,21.793-95.033,12.133-143.579,13.588a303.563,303.563,0,0,0-102.772,21.271c-23.678,9.408-46.6,22.163-63.614,41.128-8.99,10.019-16.129,21.538-24.423,32.141A186.41,186.41,0,0,1,67.6,528.141,186.41,186.41,0,0,1-63.118,501.113c3.542,20.365,8.006,42.423,23.653,55.931,8.342,7.2,19.03,11.112,29.743,13.693,43,10.359,88.187,1.36,130.819-10.432,29.085-8.045,59.6-18.585,78.227-42.324,16.87-21.494,21.221-50.459,36.441-73.151,21.586-32.18,61.891-46.893,100.488-50.322s77.43,2.369,116.165,1.349,79.69-10.19,106.878-37.8c22.9-23.256,33.745-57.292,59.747-77.019C649.607,257.853,691.82,260.8,730.1,263.351s81.621,1.737,108.254-25.874c9.755-10.115,16.238-22.978,25.712-33.355,18.594-20.36,48.818-29.274,75.483-22.261C924.517,156.151,880.061,179.227,865.811,193.3Z" transform="translate(92.304 -47.478)"/><path class="v" d="M-79.516,476.513c57.743,6.523,115.818,13.057,173.833,9.748,36.8-2.1,74.408-8.536,105.906-27.686,24.064-14.629,43.413-36.034,59.218-59.343,7.807-11.516,14.933-23.679,24.879-33.408,18.484-18.08,44.979-25.876,70.791-27.392s51.572,2.579,77.314,5.012c41.1,3.885,86.329,2.285,118.2-23.962,26.4-21.741,39.211-57.086,66.729-77.389a84.384,84.384,0,0,1,70.3-13.556c-23.436-6.466-48.194,7.312-64.205,25.6s-26.139,40.948-40.535,60.539a170.534,170.534,0,0,1-106.751,66.243c-49.318,8.648-102.688-4.482-148.472,15.789-50.1,22.184-75.719,77.1-114.321,115.985C146.928,579.63,34.312,594.67-47.363,547.519L-59.206,475.5c-1.568,2.627,2.625,6.119,4.925,4.1C-61.408,478.172-72.655,474.117-79.516,476.513Z" transform="translate(79.516 -4.06)"/><ellipse class="w" cx="126.655" cy="118.266" rx="126.655" ry="118.266" transform="translate(938.913)"/><ellipse class="w" cx="126.655" cy="118.266" rx="126.655" ry="118.266" transform="translate(938.913)"/></g></g></svg>