<svg xmlns="http://www.w3.org/2000/svg" width="138.588" height="181.621" viewBox="0 0 138.588 181.621"><defs><style>.a{fill:#ffb200;}.b{fill:#d66b09;}.c{fill:#371a45;}.d{fill:#ffc943;}.e{fill:#ffec90;}.f{opacity:0.35;}.g{opacity:0.41;}.h{fill:#fff;}.i{fill:#32b1d1;}.j{fill:#73befd;}.k{fill:#1f9fff;}.l{opacity:0.7;}.m{fill:#293856;}.n{fill:#371a46;}.o{fill:#111a28;}.p{fill:#f9195a;}.q{opacity:0.5;}.r{opacity:0.3;}.s{fill:#102770;}.t{fill:#fce5e5;}</style></defs><g transform="translate(0 0)"><g transform="translate(0 0)"><g transform="translate(0 84.67)"><g transform="translate(38.561 52.785)"><path class="a" d="M1658.523,2632.624a47.439,47.439,0,0,1-62.971,40.442,47.734,47.734,0,0,1-12.235-6.429,254.467,254.467,0,0,0,75.207-34.013Z" transform="translate(-1583.316 -2632.624)"/></g><g transform="translate(38.561 52.785)"><path class="b" d="M1622.308,2652.7a237.458,237.458,0,0,0,36.214-20.076,47.028,47.028,0,0,1-.885,5.739c-7.6,5.523-19.75,12.342-33.894,18.739-13.548,6.127-26.177,10.623-35.274,12.8a47.5,47.5,0,0,1-5.153-3.268A237.466,237.466,0,0,0,1622.308,2652.7Z" transform="translate(-1583.316 -2632.624)"/></g><g transform="translate(19.089 1.043)"><path class="a" d="M1380.462,1880.551c-7.715,6.239-22.955,14.971-41.156,23.205s-34.827,13.909-44.608,15.583a48.107,48.107,0,0,1-2.764-5.23c-.04-.087-.077-.169-.116-.258-.358-.8-.693-1.61-1-2.427a47.454,47.454,0,0,1-1.792-5.762l-.055-.235a47.517,47.517,0,0,1,9.024-40.358h0c.456-.58.93-1.149,1.417-1.707a47.217,47.217,0,0,1,16.188-12.012q1.332-.6,2.682-1.117a47.3,47.3,0,0,1,36.058.962c.068.032.14.061.208.095q1.561.7,3.07,1.512a47.336,47.336,0,0,1,10.1,7.272,46.731,46.731,0,0,1,5.283,5.9c.174.229.345.464.519.7.142.192.279.387.416.582a47.111,47.111,0,0,1,3.143,5.151c.356.669.693,1.349,1.017,2.039.087.19.177.379.261.572A47.876,47.876,0,0,1,1380.462,1880.551Z" transform="translate(-1287.707 -1847.123)"/></g><g transform="translate(23.201 28.371)"><path class="b" d="M1436.411,2261.993q.134.282.264.569a47.644,47.644,0,0,1,2.1,5.53c-7.714,6.239-22.953,14.973-41.157,23.206s-34.826,13.909-44.605,15.581a47.607,47.607,0,0,1-2.766-5.229c-.039-.086-.077-.17-.114-.256,9.273-1.025,26.195-6.517,44.752-14.909C1414.174,2277.761,1429.945,2268.293,1436.411,2261.993Z" transform="translate(-1350.133 -2261.993)"/></g><g transform="translate(19.082 13.418)"><path class="b" d="M1288.3,2073.351q-.363,0-.695-.017l.113-2.174c6.542.335,23.542-5.051,41.352-13.106,18.766-8.487,34.591-18.189,37.63-23.071l1.848,1.15c-3.293,5.29-19.158,15.12-38.581,23.9C1312.171,2068.086,1295.647,2073.351,1288.3,2073.351Z" transform="translate(-1287.605 -2034.983)"/></g><g transform="translate(21.029 4.302)"><path class="b" d="M1317.478,1927.937l-.32-2.153c7.314-1.086,19.971-5.431,33.033-11.338,13.688-6.19,25.542-13.029,30.937-17.847l1.45,1.624c-5.548,4.955-17.615,11.931-31.49,18.206C1337.855,1922.414,1324.977,1926.823,1317.478,1927.937Z" transform="translate(-1317.158 -1896.599)"/></g><g transform="translate(20.347 19.954)"><path class="b" d="M1306.876,2174.687h-.077l.011-2.176h.072c7.525,0,25.029-5.632,43.615-14.038,19.567-8.849,36.007-18.828,39.98-24.267l1.757,1.284c-4.238,5.8-20.651,15.835-40.84,24.966C1332.551,2168.978,1314.686,2174.687,1306.876,2174.687Z" transform="translate(-1306.799 -2134.206)"/></g><g transform="translate(50.592 65.898)"><path class="b" d="M1766.207,2859.559l-.039-.54-.2-.508.079-.031.086-.007c6.444-.465,18.708-4.428,31.244-10.1,12.605-5.7,23.375-12.1,28.106-16.689l.758.781c-4.816,4.676-15.7,11.151-28.416,16.9C1784.983,2855.174,1772.869,2859.079,1766.207,2859.559Z" transform="translate(-1765.964 -2831.687)"/></g><g transform="translate(36.122 50.641)"><path class="c" d="M1576.716,2646.385a48.591,48.591,0,0,1-28.615-9.3l-1.819-1.325,2.182-.549a253.43,253.43,0,0,0,74.866-33.859l1.853-1.276-.206,2.241a48.45,48.45,0,0,1-48.262,44.069Zm-25.5-9.709a46.387,46.387,0,0,0,71.4-32.292,258.107,258.107,0,0,1-71.4,32.292Z" transform="translate(-1546.282 -2600.075)"/></g><g transform="translate(1.058 18.942)"><path class="d" d="M1149.945,2123.878c2.863,6.331-6.576,17.32-23.262,28.811a254.48,254.48,0,0,1-75.207,34.013c-19.648,4.942-34.132,4.771-37-1.56-2.6-5.749,4.943-15.337,18.842-25.656a47.369,47.369,0,0,0,1.791,5.763c-3.843,3.142-5.735,5.635-5.077,7.088.669,1.48,3.9,1.688,8.959.823,9.779-1.672,26.4-7.349,44.605-15.582s33.443-16.966,41.157-23.206c3.99-3.229,5.966-5.79,5.3-7.271-.656-1.452-3.779-1.679-8.674-.869a47.359,47.359,0,0,0-3.145-5.151C1135.163,2117.462,1147.344,2118.129,1149.945,2123.878Z" transform="translate(-1013.973 -2118.846)"/></g><g transform="translate(11.808 22.727)"><path class="e" d="M1184.71,2231.813c-3.6,0-6.342-.745-7.241-2.735-1.29-2.851,1.69-7.178,8.857-12.862l1.014,1.279c-6.138,4.868-9.272,8.947-8.384,10.911,1.063,2.349,8.862,3.109,27.347-2.479a278.968,278.968,0,0,0,60.416-27.324c16.405-10.19,20.986-16.55,19.923-18.9-.888-1.965-6.021-2.3-13.73-.91l-.291-1.606c9-1.628,14.218-1.008,15.508,1.843,2.517,5.566-11.794,15.52-20.549,20.958a280.606,280.606,0,0,1-60.8,27.5C1200.438,2229.4,1191.184,2231.813,1184.71,2231.813Z" transform="translate(-1177.177 -2176.302)"/></g><g transform="translate(5.603 20.2)"><path class="e" d="M1094.23,2202.379c-5.862,0-9.605-1.348-10.823-4.042-2.526-5.585,6.4-13.927,14.328-19.942l.986,1.3c-10.235,7.762-15.4,14.48-13.827,17.968,1.988,4.4,14.2,4.109,31.872-.749a262.634,262.634,0,0,0,68.086-30.793c15.318-10.063,23.6-19.044,21.612-23.44-1.578-3.488-10.035-4.043-22.624-1.482l-.325-1.6c9.753-1.984,21.91-3.176,24.436,2.409,2.413,5.337-5.679,14.623-22.2,25.477a264.27,264.27,0,0,1-68.55,31C1107.762,2201.083,1099.977,2202.379,1094.23,2202.379Z" transform="translate(-1082.97 -2137.948)"/></g><g transform="translate(0 17.869)"><path class="c" d="M1013.27,2176.025c-7.922,0-13.047-1.9-14.749-5.66-2.773-6.132,4.036-15.7,19.174-26.937l1.278-.949.375,1.547a46.5,46.5,0,0,0,1.751,5.635l.271.71-.589.482c-5.359,4.382-4.81,5.781-4.784,5.838s.734,1.429,7.822.219c9.989-1.708,26.983-7.649,44.348-15.5s33.05-16.692,40.929-23.065c5.587-4.522,5.026-5.958,5-6.017s-.714-1.393-7.542-.263l-.75.124-.354-.673a46.432,46.432,0,0,0-3.075-5.036l-.915-1.3,1.557-.333c18.436-3.946,30.117-2.741,32.89,3.391h0c3.034,6.709-5.577,17.685-23.624,30.114a255.509,255.509,0,0,1-75.547,34.167C1027.4,2174.859,1019.476,2176.025,1013.27,2176.025Zm4.429-29.964c-13.007,9.892-19.442,18.6-17.257,23.435,2.5,5.521,16.206,5.894,35.778.971a253.431,253.431,0,0,0,74.866-33.859c16.622-11.447,25.4-21.987,22.9-27.509h0c-2.185-4.832-12.976-5.752-28.994-2.517.7,1.067,1.355,2.165,1.965,3.282,5.323-.8,8.21-.287,9.06,1.593.9,2-.875,4.7-5.594,8.524-8.13,6.576-23.6,15.3-41.386,23.347s-34.554,13.9-44.862,15.66c-5.987,1.022-9.194.569-10.1-1.428-.85-1.88.673-4.385,4.788-7.856C1018.429,2148.508,1018.039,2147.289,1017.7,2146.061Z" transform="translate(-997.915 -2102.561)"/></g><g class="f" transform="translate(38.561 52.785)"><path class="c" d="M1658.523,2632.624a47.439,47.439,0,0,1-62.971,40.442,47.734,47.734,0,0,1-12.235-6.429,254.467,254.467,0,0,0,75.207-34.013Z" transform="translate(-1583.316 -2632.624)"/></g><g class="g" transform="translate(24.434 1.044)"><path class="h" d="M1456.256,1880.565q-1.347,1.09-2.991,2.275c-.442-1.247-.941-2.489-1.495-3.714-.088-.191-.176-.379-.264-.567q-.483-1.041-1.014-2.042a47.647,47.647,0,0,0-3.145-5.152c-.137-.2-.278-.389-.418-.582a46.8,46.8,0,0,0-5.8-6.6,47.451,47.451,0,0,0-72.28,8.547,47.423,47.423,0,0,1,80.469-6.035c.143.193.281.389.418.585a47.176,47.176,0,0,1,3.145,5.149q.531,1.005,1.014,2.042c.091.188.179.376.263.57A47.8,47.8,0,0,1,1456.256,1880.565Z" transform="translate(-1368.847 -1847.139)"/></g><g transform="translate(18.028)"><path class="c" d="M1279.122,1905.7l-.373-.609a48.873,48.873,0,0,1-2.827-5.345c-.41-.906-.793-1.828-1.141-2.742a48.478,48.478,0,0,1,88.184-39.881c.457.864.9,1.762,1.305,2.666h0a48.777,48.777,0,0,1,2.147,5.652l.211.682-.555.449c-8.13,6.576-23.6,15.3-41.385,23.347s-34.554,13.9-44.862,15.66Zm40.956-72.308a46.326,46.326,0,0,0-43.327,62.862c.333.875.7,1.758,1.092,2.624a46.863,46.863,0,0,0,2.335,4.5c10.072-1.86,26.679-7.706,43.641-15.377s32.32-16.282,40.367-22.617a46.93,46.93,0,0,0-1.836-4.724h0c-.391-.865-.812-1.724-1.249-2.552a46.248,46.248,0,0,0-41.023-24.715Z" transform="translate(-1271.595 -1831.287)"/></g><g class="f" transform="translate(1.056 30.311)"><path class="c" d="M1149.538,2291.44c-2.616,6.2-10.871,14.21-22.875,22.475a254.487,254.487,0,0,1-75.207,34.013c-19.648,4.941-34.132,4.769-37-1.56-1.739-3.842,1.054-9.4,7.251-15.746-1.022,2.417-1.188,4.561-.385,6.337,2.864,6.332,17.348,6.5,37,1.56a254.32,254.32,0,0,0,75.206-34.013A109.159,109.159,0,0,0,1149.538,2291.44Z" transform="translate(-1013.951 -2291.44)"/></g></g><g transform="translate(54.849 44.967)"><path class="h" d="M1839.682,1271.463c10.337.787,28.469.814,30.036-9.376a33.773,33.773,0,0,0,.354-4.325c.237-10.181-3.055-23.735-7.1-27.055-2.31-1.894-6.606-2.463-11.321-2.012-9.37.9-20.4,5.807-20.829,12.315C1830.409,1247.273,1829.346,1270.676,1839.682,1271.463Z" transform="translate(-1830.579 -1228.549)"/></g><g class="f" transform="translate(54.849 45.113)"><path class="c" d="M1839.682,1273.538c10.337.787,28.469.814,30.036-9.376a33.775,33.775,0,0,0,.354-4.325,4.658,4.658,0,0,1-7.212-2.822c-2.22-17.094-8.251-23.882-11.209-26.244-9.37.9-20.4,5.807-20.829,12.315C1830.409,1249.349,1829.346,1272.752,1839.682,1273.538Z" transform="translate(-1830.579 -1230.771)"/></g><g transform="translate(53.784 43.922)"><path class="c" d="M1832.288,1258.012c-2.621,0-5.256-.122-7.789-.315-10.307-.785-10.585-20.119-9.833-31.573.259-3.943,3.814-7.594,10.01-10.281,7.8-3.383,19.142-4.638,23.86-.768h0c5.326,4.369,8.631,22.508,7.119,32.355C1854.372,1255.8,1843.472,1258.012,1832.288,1258.012Zm7.172-43.239a36.57,36.57,0,0,0-13.945,3c-5.356,2.322-8.544,5.415-8.745,8.485-.44,6.707-1.173,28.644,7.889,29.334,10.192.776,27.5.7,28.913-8.484,1.508-9.822-2.065-26.872-6.373-30.406h0C1845.615,1215.406,1842.8,1214.773,1839.46,1214.773Z" transform="translate(-1814.411 -1212.688)"/></g><g transform="translate(84.22 62.527)"><path class="h" d="M2277.727,1496.858l4.674-1.63a1.859,1.859,0,0,1,2.432,1.365c.8,3.765,1.949,11.547-1.866,12.962-4.624,1.715-6-3.593-6.485-10.823A1.858,1.858,0,0,1,2277.727,1496.858Z" transform="translate(-2276.478 -1495.124)"/></g><g class="f" transform="translate(84.23 64.315)"><path class="c" d="M2276.63,1524.078c.465,7.231,1.832,12.543,6.46,10.837,1.9-.7,2.575-2.98,2.674-5.558a3.322,3.322,0,0,1-1.752,1.552c-4.143,1.525-5.675-2.573-6.279-8.641A1.841,1.841,0,0,0,2276.63,1524.078Z" transform="translate(-2276.626 -1522.269)"/></g><g transform="translate(83.175 61.478)"><path class="c" d="M2266.511,1496.062a3.953,3.953,0,0,1-2.2-.645c-2.16-1.405-3.264-4.845-3.692-11.5a2.918,2.918,0,0,1,1.956-2.935l4.678-1.619a2.913,2.913,0,0,1,3.8,2.15c1.178,5.6,1.69,12.6-2.563,14.163A5.753,5.753,0,0,1,2266.511,1496.062Zm1.7-14.753a.808.808,0,0,0-.266.046l-4.678,1.619a.8.8,0,0,0-.542.808c.134,2.088.543,8.441,2.738,9.87a2.489,2.489,0,0,0,2.306.047c2.534-.933,2.3-6.682,1.229-11.751a.791.791,0,0,0-.389-.531A.815.815,0,0,0,2268.21,1481.309Zm-5.289.669h0Z" transform="translate(-2260.615 -1479.202)"/></g><g transform="translate(81.495 47.266)"><path class="c" d="M2242.2,1265.343a8.9,8.9,0,0,1-1.639.651c-.562.174-1.144.295-1.725.418s-1.168.232-1.76.329-1.191.181-1.81.229a.148.148,0,0,1-.16-.135.152.152,0,0,1,.053-.126,15.078,15.078,0,0,1,1.5-1.068c.516-.321,1.039-.624,1.572-.9a16.128,16.128,0,0,1,1.624-.771,8.207,8.207,0,0,1,1.723-.5,1,1,0,0,1,.633,1.87Z" transform="translate(-2235.109 -1263.455)"/></g><g transform="translate(45.586 43.391)"><path class="h" d="M1714.089,1244.741l-3.811-1.158a18.518,18.518,0,0,0-13.052.776,13.478,13.478,0,0,0-3.909,2.618c-4.129,4.095-4.245,12.317-1.441,15.649,1.105,1.314,2.294,2.773,2.294,2.773-.785,1.125-6.2,10.254-1.842,13.884,3.813,3.178,10.849,2.656,14.556-2.342a15.5,15.5,0,0,0,2.808-10.028c-.163-3.406-1.893-8,.925-9.2,4.2-1.787,8.019-.8,14.1-5.442,7.111-5.436,8.224-17.145,5.065-27.045-2.272-7.119-16.1-20.6-16.1-20.6l4.363,40.034Z" transform="translate(-1689.964 -1204.623)"/></g><g transform="translate(28.222 56.898)"><path class="h" d="M1446.377,1418.754l-13.915,12.668-.145-.232-5.963-9.6c7.04-3,11.417-11.91,11.417-11.91l.559.59Z" transform="translate(-1426.355 -1409.68)"/></g><g class="f" transform="translate(34.185 57.489)"><path class="c" d="M1530.935,1427.124l-13.915,12.668-.145-.232c4.016-6.166,5.562-16.953,6.013-20.921Z" transform="translate(-1516.875 -1418.64)"/></g><g transform="translate(26.679 55.074)"><path class="c" d="M1410.36,1407.184l-7.422-11.955,1.131-.482c6.6-2.812,10.842-11.318,10.884-11.4l.668-1.36,10.386,10.955ZM1406,1396.163l4.815,7.756L1423,1392.828l-6.865-7.242C1414.689,1388.084,1411.129,1393.477,1406,1396.163Z" transform="translate(-1402.939 -1381.984)"/></g><g transform="translate(17.365 57.956)"><path class="h" d="M1276.669,1435.241s-8.339-7.5-13.651-9.513l-1.485,3.484,11.137,10.966Z" transform="translate(-1261.533 -1425.728)"/></g><g transform="translate(16.311 56.901)"><path class="c" d="M1257.724,1426.284a1.054,1.054,0,0,1-.74-.3l-11.137-10.966a1.055,1.055,0,0,1-.23-1.164l1.485-3.484a1.055,1.055,0,0,1,1.343-.572c5.434,2.058,13.636,9.4,13.982,9.715a1.054,1.054,0,0,1,.114,1.447l-4,4.937a1.054,1.054,0,0,1-.76.389Zm-9.886-12.267,9.8,9.648,2.629-3.247c-1.991-1.72-7.524-6.34-11.636-8.257Z" transform="translate(-1245.533 -1409.725)"/></g><g transform="translate(25.205 47.046)"><path class="h" d="M1396.016,1260.116c4.189,16.7-.768,31.985-.768,31.985-16.221,5.826-7.371,21.818-7.371,21.818s-11.184,6.471-5.911,12.937c4.591,5.63,20.012-.839,20.758-9.053,0,0-2.653-8.339,1.46-11.195" transform="translate(-1380.552 -1260.116)"/></g><g class="f" transform="translate(19.147 85.713)"><path class="c" d="M1381.287,1880.551c-17.572,14.465-67.776,36.205-85.764,38.788-9.419-14.966-9.26-35.5.6-50.506q.27-.418.55-.831,1.012-1.5,2.145-2.933h0c1.062-.659,1.815-1.03,1.815-1.03s-.155-.242-.4-.677a47.216,47.216,0,0,1,16.188-12.012q1.332-.6,2.682-1.117a47.3,47.3,0,0,1,36.058.962c.069.032.14.061.208.095q1.561.7,3.07,1.512a15.98,15.98,0,0,1-1.865,1.425c-7.109,4.645-11.575,3.655-16.491,5.441-1.686.614-1.984,2.113-1.842,3.889-.2,1.987.638,4.648.759,6.832,0,.042,0,.084.005.126a13.554,13.554,0,0,1-3.294,8.384c-4.187,4.824-12,5.478-16.555,2.656-.163-.1-.321-.206-.477-.316a4.519,4.519,0,0,1-1.913-3.246c.353-3.259,2.464-6.835,3.544-8.426.232-.343.416-.593.524-.73,0,0-.237-.255-.609-.648-.279-.3-.638-.68-1.028-1.094-.337-.356-.7-.732-1.049-1.1a6.44,6.44,0,0,1-.938-1.262,18.124,18.124,0,0,0,.8,3.188c-.854,8.052-17.074,17.735-23.953,10.932-.253,17.182,17.625,31.31,35.547,24.106,19.116-7.686,40.432-18.273,50.56-25.6Q1380.788,1878.946,1381.287,1880.551Z" transform="translate(-1288.59 -1847.123)"/></g><g transform="translate(25.205 43.39)"><path class="h" d="M1442.422,1236.218c-.089,6.5-2.187,12.547-6.737,16.028-6.076,4.645-9.891,3.655-14.094,5.441-1.441.614-1.694,2.113-1.573,3.889-.171,1.987.546,4.648.648,6.832,0,.042,0,.084.005.126a14.964,14.964,0,0,1-2.814,8.384c-3.578,4.824-10.26,5.478-14.146,2.656-.14-.1-.277-.206-.408-.316a4.71,4.71,0,0,1-1.634-3.246,23.172,23.172,0,0,1,3.027-8.426c.2-.343.356-.593.448-.73,0,0-.2-.256-.519-.648-.24-.3-.545-.68-.88-1.093-.287-.356-.6-.733-.9-1.1a6.537,6.537,0,0,1-.8-1.262,20.563,20.563,0,0,0,.68,3.188c-.746,8.215-16.167,14.684-20.76,9.053a5.873,5.873,0,0,1-1.375-3.041c-.64-5.309,7.288-9.9,7.288-9.9s-4.411-7.968-1.3-14.705c1.3-2.806,3.9-5.4,8.669-7.112a56.012,56.012,0,0,0,1.895-9.246c.185-1.444.34-3.02.44-4.7a63.605,63.605,0,0,0-.224-10.4l27.287-11.293.039.04.05.05.063.063c.024.026.05.053.082.082.14.142.337.343.588.6,1.165,1.2,3.436,3.586,5.894,6.421,3.873,4.466,8.2,10.041,9.388,13.846.34,1.088.63,2.2.867,3.323A36.087,36.087,0,0,1,1442.422,1236.218Z" transform="translate(-1380.557 -1204.6)"/></g><g transform="translate(30.401 85.326)"><path class="c" d="M1475.919,1850.916a.79.79,0,0,1-.754-.552c-2.85-9.012-14.711-7.446-14.83-7.43a.79.79,0,1,1-.221-1.565c.133-.017,13.31-1.753,16.558,8.519a.791.791,0,0,1-.754,1.029Z" transform="translate(-1459.434 -1841.247)"/></g><g transform="translate(40.668 47.045)"><path class="h" d="M1616.649,1267.736l-1.341-7.638A55.249,55.249,0,0,1,1616.649,1267.736Z" transform="translate(-1615.308 -1260.097)"/></g><g transform="translate(24.15 45.993)"><path class="c" d="M1372.4,1315.085a7.727,7.727,0,0,1-6.216-2.509,6.55,6.55,0,0,1-1.542-5.5c.733-4,5.046-7.256,6.9-8.49-1.04-2.245-3.358-8.3-1.235-13.935,1.406-3.733,4.471-6.524,9.113-8.3.772-2.7,4.261-16.35.606-30.923a1.054,1.054,0,1,1,2.045-.513,64.667,64.667,0,0,1-.788,32.566l-.16.492-.487.175c-4.312,1.549-7.122,3.984-8.352,7.24-2.274,6.018,1.51,13.007,1.548,13.077l.5.9-.892.517c-.059.034-5.984,3.516-6.725,7.577a4.475,4.475,0,0,0,1.1,3.782c1.5,1.836,4.826,2.242,8.687,1.061,4.7-1.438,9.659-5.094,10.183-9.347-.418-1.434-2.415-9.144,1.929-12.161a1.054,1.054,0,1,1,1.2,1.731c-2.841,1.973-1.726,7.895-1.056,10.01l.064.2-.019.212c-.5,5.508-6.409,9.754-11.687,11.368A16.276,16.276,0,0,1,1372.4,1315.085Zm7.883-37.93h0Z" transform="translate(-1364.533 -1244.116)"/></g><g transform="translate(33.813 60.263)"><path class="h" d="M1547.933,1480.59l-3.151,2.677-33.547-15.3a42.715,42.715,0,0,1,8.463-3.159,161.814,161.814,0,0,1,18.1-4.047l1.768,3.457Z" transform="translate(-1511.235 -1460.76)"/></g><g transform="translate(31.531 59.094)"><path class="c" d="M1512.6,1467.923l-36-16.422,1.75-1.026c.266-.156,6.737-3.855,26.913-7.333l.764-.132,10.87,21.261Zm-31.188-16.544,30.844,14.07,2.005-1.7-9.4-18.393C1491.609,1447.68,1484.525,1450.1,1481.407,1451.38Z" transform="translate(-1476.596 -1443.01)"/></g><g transform="translate(62.506 106.8)"><path class="h" d="M1946.83,2167.241" transform="translate(-1946.83 -2167.241)"/></g><g transform="translate(64.251 54.884)"><path class="i" d="M1973.32,1379.1" transform="translate(-1973.32 -1379.096)"/></g><g transform="translate(35.262 63.75)"><path class="j" d="M1542.828,1538.419l23.169-5.875-9.6-18.851-23.169,5.058Z" transform="translate(-1533.233 -1513.693)"/></g><g transform="translate(35.262 63.75)"><path class="j" d="M1542.828,1538.419l23.169-5.875-9.6-18.851-23.169,5.058Z" transform="translate(-1533.233 -1513.693)"/></g><g class="f" transform="translate(25.242 66.384)"><path class="c" d="M1422.846,1572.532l-17.78,4.508c-.211,4.105-.577,11.1-.8,14.16-.287-.356-.6-.732-.9-1.1a6.538,6.538,0,0,1-.8-1.262,20.57,20.57,0,0,0,.68,3.188c-.746,8.215-16.167,14.684-20.76,9.053a5.874,5.874,0,0,1-1.375-3.041c3.689,5.309,14.231.306,16.075-1.375,2.008-1.829,2.277-2.806,1.02-9.712a11.186,11.186,0,0,1,1.644-8.592l-.177.045h-3.5l-7.541-2.7-1.528-2.263c1.3-2.806,3.9-5.4,8.669-7.111a56.015,56.015,0,0,0,1.895-9.246l15.583-3.4Z" transform="translate(-1381.115 -1553.68)"/></g><g transform="translate(35.262 63.749)"><path class="k" d="M1566,1532.533l-23.168,5.873-.638-1.3-8.958-18.362,23.168-5.059,2.205,4.332Z" transform="translate(-1533.235 -1513.68)"/></g><g class="l" transform="translate(35.262 63.749)"><path class="h" d="M1536.6,1521.949l6.814,16.309-.585.147-.638-1.3-8.958-18.362,23.168-5.059.393.769-19.022,5.112A1.767,1.767,0,0,0,1536.6,1521.949Z" transform="translate(-1533.235 -1513.68)"/></g><g class="f" transform="translate(44.221 68.081)"><path class="c" d="M1693.041,1593.961l-23.168,5.873-.638-1.3c.4-5.3,11.348-8.013,11.348-8.013-1.884-6.685,3.217-10.086,5.067-11.077Z" transform="translate(-1669.235 -1579.44)"/></g><g transform="translate(34.274 62.762)"><path class="c" d="M1528.816,1525.4a.988.988,0,0,1-.888-.555l-9.6-19.668a.988.988,0,0,1,.677-1.4l23.169-5.057a.99.99,0,0,1,1.091.517l9.6,18.851a.988.988,0,0,1-.638,1.406l-23.169,5.875A.985.985,0,0,1,1528.816,1525.4Zm-8.156-19.959,8.692,17.816,21.192-5.374-8.688-17.069Z" transform="translate(-1518.233 -1498.698)"/></g><g transform="translate(30.844 68.808)"><path class="k" d="M1470.58,1590.473l-4.418.034,10.509,19.634h3.5Z" transform="translate(-1466.162 -1590.473)"/></g><g class="l" transform="translate(30.844 68.808)"><path class="h" d="M1471.5,1592.38l-4.329.034-1.017-1.9,4.419-.034Z" transform="translate(-1466.155 -1590.48)"/></g><g transform="translate(29.856 67.819)"><path class="c" d="M1466.164,1597.118h-3.5a.988.988,0,0,1-.871-.522l-10.509-19.634a.988.988,0,0,1,.863-1.454l4.418-.034a1,1,0,0,1,.9.555l9.6,19.668a.988.988,0,0,1-.888,1.421Zm-2.912-1.976h1.331l-8.629-17.687-2.16.017Z" transform="translate(-1451.162 -1575.473)"/></g><g transform="translate(17.364 61.438)"><path class="k" d="M1285.5,1505.636l-7.541-2.7-3.051-4.516-1.871-2.767-4.809-7.109-6.719-9.941,13.48,7.4,10.442,19.5Z" transform="translate(-1261.515 -1478.6)"/></g><g class="l" transform="translate(17.364 61.438)"><path class="h" d="M1285.5,1505.636l-1.391-.5-10.255-17.825-10.634-6.184-1.71-2.529,13.48,7.4,10.442,19.5Z" transform="translate(-1261.515 -1478.6)"/></g><g transform="translate(16.377 60.451)"><path class="c" d="M1271.509,1492.631a1,1,0,0,1-.333-.058l-7.539-2.705a.989.989,0,0,1-.485-.376L1246.7,1465.16a.988.988,0,0,1,1.294-1.419l13.479,7.4a.988.988,0,0,1,.4.4l10.509,19.634a.988.988,0,0,1-.871,1.454Zm-6.9-4.514,4.819,1.729-9.159-17.112-9.637-5.292Z" transform="translate(-1246.533 -1463.619)"/></g><g transform="translate(30.844 66.095)"><path class="c" d="M1466.162,1552.04s.077-2.448,2.071-2.733c1.649-.236,2.807,2.6,2.807,2.6Z" transform="translate(-1466.162 -1549.293)"/></g><g transform="translate(45.586 46.027)"><path class="h" d="M1731.454,1273.431c0,.063,0,.127,0,.19-.09,6.5-2.187,12.547-6.737,16.028-6.076,4.645-9.891,3.655-14.094,5.441-1.441.614-1.694,2.113-1.573,3.889.113,1.7.567,3.649.648,5.314.024.522.029,1.073.005,1.644a14.966,14.966,0,0,1-2.814,8.384c-3.707,5-10.742,5.52-14.555,2.34a4.71,4.71,0,0,1-1.634-3.246c-.005-.042-.008-.087-.011-.129-.313-3.446,1.863-7.789,2.967-9.675.232-.4.416-.685.519-.833,0,0-1.188-1.457-2.295-2.772-2.8-3.333-2.687-11.554,1.441-15.651a13.458,13.458,0,0,1,3.91-2.616,17.92,17.92,0,0,1,6.9-1.6,19.031,19.031,0,0,1,6.155.819l3.813,1.159,3.947-.084-1.95-17.893a5.858,5.858,0,0,0,1.562-4.711l-.5-2.422-2.39-11.538-.174-.833a67.248,67.248,0,0,1,6.685,6.06c3.459,3.57,7.285,8.331,8.89,13.19a.057.057,0,0,0,.008.026c.253.9.466,1.815.643,2.735A34.262,34.262,0,0,1,1731.454,1273.431Z" transform="translate(-1689.969 -1244.64)"/></g><g class="f" transform="translate(46.307 74.818)"><path class="c" d="M1741.679,1681.72c0,.063,0,.127,0,.19-.09,6.5-2.187,12.547-6.737,16.028-6.076,4.645-9.891,3.655-14.094,5.441-1.441.614-1.694,2.113-1.573,3.889.113,1.7.567,3.649.648,5.315.024.522.029,1.072.005,1.644a14.963,14.963,0,0,1-2.814,8.384c-3.707,5-10.742,5.52-14.555,2.34a4.71,4.71,0,0,1-1.634-3.246c-.005-.042-.008-.087-.011-.129,4.018,3.359,10.882,4.524,14.687-2.561,4.35-8.107-.585-11.425-.685-15.308s7.08-2.911,17.419-7.654C1738.459,1693.245,1740.793,1686.639,1741.679,1681.72Z" transform="translate(-1700.915 -1681.72)"/></g><g transform="translate(44.537 43.087)"><path class="c" d="M1699.107,1240.758c-.892-.114-1.771-.27-2.645-.443-.438-.084-.874-.174-1.307-.272-.419-.08-.835-.164-1.253-.231a21.81,21.81,0,0,0-5.019-.251,18.554,18.554,0,0,0-4.865,1.023,14.046,14.046,0,0,0-4.291,2.357,6.842,6.842,0,0,0-.847.833c-.127.149-.273.281-.387.443l-.346.484-.174.242-.148.262-.3.523c-.178.362-.346.733-.5,1.109a14.329,14.329,0,0,0-.882,4.837,11.483,11.483,0,0,0,.9,4.731,6.525,6.525,0,0,0,.575.962l.158.223c.051.074.137.168.2.251l.426.515,1.7,2.059.5.6-.453.664c-.145.212-.311.484-.463.743s-.3.532-.45.8c-.292.542-.566,1.095-.819,1.654a20.834,20.834,0,0,0-1.233,3.427,9.346,9.346,0,0,0-.311,3.4,4.22,4.22,0,0,0,.448,1.457,3.3,3.3,0,0,0,.965,1.106,8.609,8.609,0,0,0,6.46,1.515,9.657,9.657,0,0,0,5.943-3.239c.18-.227.376-.434.545-.675s.343-.48.491-.734a12.685,12.685,0,0,0,.829-1.563,14.171,14.171,0,0,0,1-3.413,16.9,16.9,0,0,0,.192-3.594c-.066-1.171-.3-2.419-.48-3.716a18.868,18.868,0,0,1-.186-2.024,6.608,6.608,0,0,1,.276-2.258,3.7,3.7,0,0,1,.636-1.171,3.4,3.4,0,0,1,1.075-.863c.1-.046.21-.105.29-.136l.241-.094.482-.187c.323-.114.649-.216.974-.317,1.3-.376,2.589-.6,3.809-.868a21.386,21.386,0,0,0,3.509-1.032,18.3,18.3,0,0,0,3.214-1.68c.52-.318,1.008-.692,1.506-1.05.244-.182.462-.372.695-.557.215-.2.441-.395.65-.6a15.974,15.974,0,0,0,3.727-6.082,24.845,24.845,0,0,0,1.317-7.208,32.8,32.8,0,0,0-.56-7.392,34.616,34.616,0,0,0-.884-3.613l-.135-.445c-.046-.144-.1-.273-.145-.411-.088-.271-.218-.543-.332-.815s-.262-.541-.391-.812l-.439-.8a49.273,49.273,0,0,0-4.314-6.131c-3.186-3.937-6.9-7.4-9.738-11.749a.36.36,0,0,1,.49-.5,23.426,23.426,0,0,1,3.113,2.343c.978.843,1.887,1.756,2.779,2.685,1.783,1.861,3.389,3.885,5.006,5.9a52.677,52.677,0,0,1,4.494,6.408l.48.879c.147.305.3.6.441.915s.279.624.391.961c.058.164.122.333.173.493l.144.472a36.778,36.778,0,0,1,.938,3.833,34.92,34.92,0,0,1,.594,7.87,26.934,26.934,0,0,1-1.437,7.824,18.077,18.077,0,0,1-4.232,6.877c-.242.243-.5.468-.754.7-.266.214-.532.442-.8.642-.54.388-1.068.791-1.639,1.142a20.413,20.413,0,0,1-3.573,1.865,23.508,23.508,0,0,1-3.839,1.133c-1.277.278-2.514.5-3.668.832-.285.089-.57.178-.849.276l-.412.16-.206.08c-.069.027-.094.046-.144.067a1.337,1.337,0,0,0-.679.832,4.614,4.614,0,0,0-.167,1.532,16.8,16.8,0,0,0,.168,1.793c.166,1.235.415,2.5.5,3.888a18.987,18.987,0,0,1-.217,4.05,15.033,15.033,0,0,1-3.354,7.422,11.769,11.769,0,0,1-7.234,3.946,11.645,11.645,0,0,1-4.192-.15,9.733,9.733,0,0,1-3.87-1.791l-.219-.163-.217-.2a3.644,3.644,0,0,1-.413-.426,3.95,3.95,0,0,1-.364-.471,4.267,4.267,0,0,1-.31-.506,6.329,6.329,0,0,1-.681-2.184,11.373,11.373,0,0,1,.358-4.193,22.913,22.913,0,0,1,1.357-3.781q.411-.907.882-1.781.235-.438.488-.87c.173-.292.337-.567.553-.883l.047,1.269-1.688-2.04-.422-.51c-.072-.09-.137-.159-.215-.266l-.231-.316a8.612,8.612,0,0,1-.786-1.317,11.773,11.773,0,0,1-.514-1.385c-.066-.234-.143-.467-.2-.7l-.142-.708a6.092,6.092,0,0,1-.109-.709l-.084-.711c-.018-.474-.058-.949-.047-1.422a16.422,16.422,0,0,1,1.021-5.575c.181-.444.372-.886.581-1.32l.353-.637.178-.318.209-.3.422-.6c.141-.2.32-.376.479-.565s.324-.378.5-.546.354-.335.536-.495a15.765,15.765,0,0,1,4.925-2.845,17.752,17.752,0,0,1,2.721-.768,19.6,19.6,0,0,1,2.8-.325,17.438,17.438,0,0,1,5.546.674c.449.119.885.286,1.319.445.416.159.827.328,1.238.5.823.342,1.64.7,2.445,1.1a.356.356,0,0,1-.2.672Z" transform="translate(-1674.035 -1200)"/></g><g class="f" transform="translate(57.608 46.027)"><path class="c" d="M1901.389,1269.063a10.231,10.231,0,0,1-.535,2.706c-2.453,7.1-11.053,11.3-17.706,11.3-4,0-6.577-.674-8.545-2.922a10.623,10.623,0,0,1-.993-1.349c-2.313-3.683-1.146-8.576,3.752-10.871a5.584,5.584,0,0,1,1.262-.287l-1.365-2.666-.456-.893s.648.148,1.568.345a36.8,36.8,0,0,0,5.992,1.009,5.225,5.225,0,0,0,2.205-1.286,5.858,5.858,0,0,0,1.563-4.711l1.323-2.511-3.378-11.261-1.009-1.019a67.232,67.232,0,0,1,6.685,6.06c3.459,3.57,7.285,8.331,8.89,13.19a.058.058,0,0,0,.008.026,15.526,15.526,0,0,1,.643,2.735A11.954,11.954,0,0,1,1901.389,1269.063Z" transform="translate(-1872.465 -1244.64)"/></g><g transform="translate(57.344 43.392)"><path class="h" d="M1897.389,1229.062a10.233,10.233,0,0,1-.535,2.706c-2.453,7.1-11.053,11.3-17.706,11.3-4.714,0-7.443-.935-9.538-4.271-2.313-3.683-1.146-8.576,3.752-10.871a5.587,5.587,0,0,1,1.262-.287l-1.365-2.667-.456-.893s.648.148,1.568.345a36.778,36.778,0,0,0,5.992,1.009c1.5-.432,3.984-1.929,3.768-6l-.5-2.421-2.39-11.538-.174-.833a67.228,67.228,0,0,1,6.685,6.06C1892.44,1215.543,1897.8,1222.573,1897.389,1229.062Z" transform="translate(-1868.465 -1204.64)"/></g><g class="f" transform="translate(57.398 58.493)"><path class="c" d="M1898.145,1443.2a10.234,10.234,0,0,1-.535,2.706c-2.453,7.1-11.053,11.3-17.706,11.3-4.714,0-7.443-.935-9.538-4.271a7.386,7.386,0,0,1-1.091-3.033c1.992,2.453,4.606,3.18,8.758,3.18,6.653,0,15.253-4.2,17.706-11.3a10.233,10.233,0,0,0,.535-2.706,13.713,13.713,0,0,0-.759-5.2A17.15,17.15,0,0,1,1898.145,1443.2Z" transform="translate(-1869.275 -1433.88)"/></g><g transform="translate(56.3 43.084)"><path class="c" d="M1866.477,1199.989a13.9,13.9,0,0,1,2.276,1.253,21.523,21.523,0,0,1,2.056,1.536,39.89,39.89,0,0,1,3.7,3.553q1.727,1.9,3.3,3.955a40.853,40.853,0,0,1,2.909,4.292,24.4,24.4,0,0,1,2.176,4.794,14.73,14.73,0,0,1,.741,5.353,9.205,9.205,0,0,1-.165,1.376,9.891,9.891,0,0,1-.332,1.351c-.034.111-.059.226-.1.333l-.128.317-.258.632a9.883,9.883,0,0,1-.6,1.22,16.6,16.6,0,0,1-3.359,4.186,20.2,20.2,0,0,1-4.359,3.014,23.663,23.663,0,0,1-4.92,1.9,20.289,20.289,0,0,1-5.262.688,23.815,23.815,0,0,1-2.634-.145,12.85,12.85,0,0,1-2.682-.576,8.7,8.7,0,0,1-2.52-1.339,10.138,10.138,0,0,1-3.257-4.549,8.09,8.09,0,0,1,.186-5.673,8.949,8.949,0,0,1,1.531-2.421c.159-.177.333-.337.5-.506.085-.082.167-.168.255-.247l.274-.222c.185-.145.363-.3.554-.435l.585-.384a5.41,5.41,0,0,1,.6-.346l.307-.161.154-.08.077-.04.038-.02.064-.028a4.222,4.222,0,0,1,.815-.238c.243-.049.458-.084.71-.116l-.815,1.526-1.82-3.559-1.023-2,2.2.494c1.239.279,2.49.55,3.735.8.623.126,1.245.243,1.861.349.309.053.613.095.913.135.139.011.3.029.42.034l.171,0h.021l-.01,0a.125.125,0,0,0-.03,0,.115.115,0,0,0-.054.02,4.471,4.471,0,0,0,1.324-.721,4.956,4.956,0,0,0,1.029-1.072,7.829,7.829,0,0,0,.744-1.41c.23-.524.38-1.1.618-1.732l.013-.034a.369.369,0,0,1,.689,0,4.568,4.568,0,0,1,.3,1.018c.024.176.057.354.071.534s.007.363.005.546a5.108,5.108,0,0,1-.587,2.177,5.279,5.279,0,0,1-1.513,1.78,6.089,6.089,0,0,1-2.091,1,2.873,2.873,0,0,1-.293.043l-.15.011-.07,0-.039,0-.309-.021c-.2-.019-.357-.046-.536-.069-.335-.05-.666-.1-.988-.161-.648-.112-1.286-.232-1.92-.36-1.271-.254-2.526-.526-3.79-.81l1.173-1.507,1.82,3.559.684,1.338-1.5.189c-.165.021-.366.052-.535.087a2.542,2.542,0,0,0-.4.106l-.48.252a3.939,3.939,0,0,0-.491.28l-.471.307c-.153.107-.29.231-.437.345l-.217.174c-.069.062-.131.129-.2.193-.128.131-.265.255-.388.39a6.853,6.853,0,0,0-1.155,1.823,5.983,5.983,0,0,0-.135,4.2,7.51,7.51,0,0,0,1.024,1.947,6.808,6.808,0,0,0,3.438,2.618c6.013,1.686,13.039-.238,17.76-4.45a14.493,14.493,0,0,0,2.931-3.645,7.982,7.982,0,0,0,.515-1.039l.219-.536.11-.268c.035-.089.053-.181.08-.272a7.8,7.8,0,0,0,.269-1.1,7.211,7.211,0,0,0,.135-1.127,12.635,12.635,0,0,0-.646-4.583,22.331,22.331,0,0,0-1.991-4.377,40.02,40.02,0,0,0-6.03-7.76q-1.717-1.787-3.471-3.553c-.584-.59-1.156-1.195-1.714-1.82s-1.112-1.265-1.621-1.954l-.005-.007a.363.363,0,0,1,.432-.551Z" transform="translate(-1852.618 -1199.961)"/></g><g transform="translate(16.446 0)"><g transform="translate(1.055 1.054)"><path class="h" d="M1272.145,612.984c29.292,27.578,69.033-11.725,43.846-41.165C1286.677,542.877,1245.635,583.542,1272.145,612.984Z" transform="translate(-1263.607 -561.891)"/></g><g transform="translate(1.055 1.054)"><path class="h" d="M1272.145,612.984c29.292,27.578,69.033-11.725,43.846-41.165C1286.677,542.877,1245.635,583.542,1272.145,612.984Z" transform="translate(-1263.607 -561.891)"/></g><g class="f" transform="translate(25.564 43.39)"><path class="c" d="M1670.293,1210.663q-.293.6-.617,1.194a30.715,30.715,0,0,1-12.763,12.526c-.366.19-.735.374-1.109.548l-1.768-3.457a161.817,161.817,0,0,0-18.1,4.047,63.443,63.443,0,0,0-.266-9.628l27.286-11.293.04.04.05.05.063.063c.024.026.05.053.082.082.14.142.337.343.588.6l-.174-.833A67.205,67.205,0,0,1,1670.293,1210.663Z" transform="translate(-1635.674 -1204.6)"/></g><g transform="translate(1.055 1.054)"><path class="h" d="M1272.145,612.984c29.292,27.578,69.033-11.725,43.846-41.165C1286.677,542.877,1245.635,583.542,1272.145,612.984Z" transform="translate(-1263.607 -561.891)"/></g><g transform="translate(0.303 0.302)"><path class="c" d="M1283.227,612.437c-7.928,0-15.607-3.294-22.267-9.564l-.043-.044c-6.322-7.021-9.309-15.168-8.64-23.561a31.292,31.292,0,0,1,9.776-20.065,30.667,30.667,0,0,1,20.381-8.713c8.39-.2,16.494,3.3,23.415,10.136l.043.046c6.015,7.031,8.8,15.11,8.064,23.364a31.235,31.235,0,0,1-9.721,19.739,30.636,30.636,0,0,1-20.064,8.647C1283.857,612.432,1283.541,612.437,1283.227,612.437ZM1262.013,601.8c14.649,13.773,31.239,10.372,41.186.887,9.719-9.267,14.352-26.052,1.573-41.014-14.582-14.376-31.825-10.8-41.68-1.384C1253.138,569.795,1248.558,586.835,1262.013,601.8Z" transform="translate(-1252.185 -550.481)"/></g><g class="f" transform="translate(1.351 18.49)"><path class="c" d="M1276.339,860.251c24.885,24.26,62.49-3.151,48.882-33.656,1.029,10.844-2.411,12.274-6.343,19.07-11.748,21.971-41.525,16.8-50.781-3.057A30.079,30.079,0,0,0,1276.339,860.251Z" transform="translate(-1268.097 -826.596)"/></g><path class="m" d="M1278.935,608.457c-8.006,0-15.756-3.322-22.474-9.647l-.061-.062c-6.379-7.084-9.393-15.31-8.717-23.788a31.593,31.593,0,0,1,9.869-20.259,30.968,30.968,0,0,1,20.583-8.8c8.484-.2,16.654,3.331,23.635,10.223l.06.065c6.069,7.094,8.882,15.25,8.136,23.587a31.537,31.537,0,0,1-9.813,19.931,30.938,30.938,0,0,1-20.263,8.731C1279.571,608.452,1279.252,608.457,1278.935,608.457Zm-21-11.152c14.5,13.627,30.919,10.264,40.761.88,9.617-9.17,14.2-25.778,1.56-40.588-14.436-14.222-31.5-10.684-41.25-1.371C1249.16,565.631,1244.629,582.494,1257.937,597.306Z" transform="translate(-1247.59 -545.897)"/><path class="c" d="M1278.935,608.457c-8.006,0-15.756-3.322-22.474-9.647l-.061-.062c-6.379-7.084-9.393-15.31-8.717-23.788a31.593,31.593,0,0,1,9.869-20.259,30.968,30.968,0,0,1,20.583-8.8c8.484-.2,16.654,3.331,23.635,10.223l.06.065c6.069,7.094,8.882,15.25,8.136,23.587a31.537,31.537,0,0,1-9.813,19.931,30.938,30.938,0,0,1-20.263,8.731C1279.571,608.452,1279.252,608.457,1278.935,608.457Zm-21-11.152c14.5,13.627,30.919,10.264,40.761.88,9.617-9.17,14.2-25.778,1.56-40.588-14.436-14.222-31.5-10.684-41.25-1.371C1249.16,565.631,1244.629,582.494,1257.937,597.306Z" transform="translate(-1247.59 -545.897)"/><g transform="translate(1.61 9.151)"><path class="n" d="M1286.02,732.645c33.625,10.815,51.006-29.5,23.966-44.5C1278.678,673.171,1256.215,712.578,1286.02,732.645Z" transform="translate(-1272.029 -684.825)"/></g><g class="f" transform="translate(4.768 17.066)"><path class="o" d="M1361,804.976c8.958,17.7-7.609,42.395-34.8,33.648a37.428,37.428,0,0,1-6.223-5.206,33.149,33.149,0,0,0,10.834,11.463C1361.411,854.727,1378.557,822.211,1361,804.976Z" transform="translate(-1319.97 -804.976)"/></g><g transform="translate(0.363 5.382)"><path class="c" d="M1282.3,684.246q-.422,0-.843-.015c-7.009-.241-13.825-3.452-19.712-9.286l0,0c-9.671-9.731-12.614-28.485-1.581-40.9l.1-.1a31.65,31.65,0,0,1,44.394,6.418,27.988,27.988,0,0,1,4.412,21,28.813,28.813,0,0,1-10.086,16.767A26.456,26.456,0,0,1,1282.3,684.246Zm-19.393-10.468c12.943,12.825,26.961,9.674,35.032,3.077,9.277-7.581,14.094-22.233,5.35-35.568a30.011,30.011,0,0,0-41.946-6.1C1250.982,646.91,1253.78,664.591,1262.909,673.778Z" transform="translate(-1253.097 -627.596)"/></g><g transform="translate(0.554 8.096)"><path class="c" d="M1282.039,720.554a36.989,36.989,0,0,1-11.315-1.867l-.142-.046-.124-.083c-7.214-4.857-11.955-11.193-13.712-18.325a25.4,25.4,0,0,1,2.618-18.759,24.941,24.941,0,0,1,14.368-11.538c6.752-2.07,14.268-1.277,21.736,2.294l.057.029c6.368,3.534,10.766,8.674,12.719,14.863a24.907,24.907,0,0,1-1.025,17.387,26.381,26.381,0,0,1-13.443,13.611A28.5,28.5,0,0,1,1282.039,720.554Zm-10.528-3.828c17.069,5.424,29.257-2.635,33.773-13.056,4.1-9.456,2.359-22.257-10.755-29.553-15.487-7.39-27.9-1.107-33.336,8.4C1255.608,692.291,1256.643,706.641,1271.511,716.726Z" transform="translate(-1255.999 -668.809)"/></g><g transform="translate(50.358 20.434)"><path class="h" d="M2027.6,865.486c1.218,14.133-12.844,16.544-15.367,3.169C2010.412,853.888,2025.444,851.309,2027.6,865.486Z" transform="translate(-2012.081 -856.11)"/></g><g class="f" transform="translate(50.415 23.312)"><path class="c" d="M2021.993,918.267c-4.21.754-8.428-3.606-9.043-9.512,4.03,5.391,8.006-6.012,7.779-8.958C2032.038,899.972,2029.755,917.049,2021.993,918.267Z" transform="translate(-2012.95 -899.797)"/></g><g transform="translate(49.307 19.383)"><path class="c" d="M2005.286,863.633c-3.708,0-7.71-2.888-8.995-9.7l-.01-.066c-1.006-8.161,2.96-13.049,7.4-13.66,4.01-.552,8.871,2.405,10.058,10.2l.008.068c.706,8.188-3.389,12.522-7.493,13.084A7.113,7.113,0,0,1,2005.286,863.633Zm-6.917-10.054c1.146,6.018,4.637,8.3,7.6,7.9,3.142-.431,6.256-3.988,5.682-10.781-.979-6.362-4.664-8.815-7.681-8.4C2000.557,842.768,1997.544,846.793,1998.369,853.579Z" transform="translate(-1996.123 -840.146)"/></g><g transform="translate(54.879 22.774)"><path class="h" d="M2092.429,899.3c.976,11.454-9.529,13.438-11.572,2.62C2079.309,889.831,2090.727,887.687,2092.429,899.3Z" transform="translate(-2080.713 -891.633)"/></g><g transform="translate(53.827 21.722)"><path class="c" d="M2072,895.184c-2.887,0-6.041-2.384-7.1-7.989l-.01-.062c-.879-6.864,2.231-10.945,5.757-11.428,3.142-.433,6.955,2.052,7.9,8.522l.008.063c.581,6.823-2.627,10.405-5.853,10.846A5.213,5.213,0,0,1,2072,895.184Zm-5.022-8.349c.894,4.683,3.375,6.495,5.442,6.213,2.337-.319,4.472-3.357,4.04-8.547-.746-5.027-3.386-7-5.526-6.707C2068.445,878.136,2066.289,881.351,2066.981,886.835Z" transform="translate(-2064.744 -875.658)"/></g><g class="l" transform="translate(38.729 23.258)"><path class="h" d="M1843.247,903.376c-.249,5.967-7.035,5.789-7.689.6C1835.1,897.374,1843.1,897.454,1843.247,903.376Z" transform="translate(-1835.539 -898.977)"/></g><g class="l" transform="translate(41.95 35.333)"><path class="h" d="M1887.62,1084.2c-.227,2.276-3.2,2.256-3.179-.24C1884.668,1081.684,1887.637,1081.7,1887.62,1084.2Z" transform="translate(-1884.441 -1082.289)"/></g><g class="l" transform="translate(4.479 12.868)"><path class="h" d="M1317.736,768.217c-9.066-20.941,12.887-29.345,20.893-26.4C1324.356,746.387,1320.132,756.932,1317.736,768.217Z" transform="translate(-1315.58 -741.249)"/></g><g class="f" transform="translate(54.443 26.971)"><path class="c" d="M2074.729,964.079a10.19,10.19,0,0,1-.566-4.8c3.8,6.98,10.5,1.846,10.926-3.934C2089.453,965.979,2079.5,973.887,2074.729,964.079Z" transform="translate(-2074.092 -955.348)"/></g><g transform="translate(46.344 20.669)"><path class="c" d="M1953.719,863.854a1.8,1.8,0,0,1-.385-.042c-1.426-.313-2.009-2.248-2.154-2.834a1.054,1.054,0,0,1,2.046-.508h0a3.938,3.938,0,0,0,.518,1.194,1.911,1.911,0,0,0,.172-.19,1.054,1.054,0,0,1,1.647,1.316A2.37,2.37,0,0,1,1953.719,863.854Z" transform="translate(-1951.149 -859.671)"/></g></g><g class="f" transform="translate(23.993 70.212)"><path class="c" d="M1379.516,1630.062l-7.541-2.7-3.051-4.516-1.871-2.767-4.809-7.109c-.037-.377-.068-.764-.09-1.167a12.956,12.956,0,0,1,7.18,5.127c1.307,1.931,1.552,4.092,1,5.2,2.1,2.4,3.55,5.565,9.114,7.807Z" transform="translate(-1362.155 -1611.8)"/></g><g transform="translate(21.836 67.576)"><path class="h" d="M1329.415,1571.782a12.958,12.958,0,0,1,7.18,5.129c1.828,2.7,1.578,5.854-.022,5.936S1329.884,1580.638,1329.415,1571.782Z" transform="translate(-1329.415 -1571.782)"/></g><g class="f" transform="translate(21.927 68.742)"><path class="c" d="M1337.862,1599.379c-1.526.079-6.234-2.005-7.067-9.9,1.652,4.766,5,6.137,6.245,6.073.667-.034,1.1-.6,1.244-1.454C1339.664,1596.628,1339.335,1599.3,1337.862,1599.379Z" transform="translate(-1330.795 -1589.48)"/></g><g transform="translate(20.71 66.244)"><path class="c" d="M1320.509,1565.011c-2.45,0-7.633-2.937-8.116-12.066l-.074-1.388,1.356.3a13.954,13.954,0,0,1,7.823,5.567c1.421,2.1,1.862,4.672,1.071,6.259a2.251,2.251,0,0,1-1.912,1.321C1320.609,1565.01,1320.559,1565.011,1320.509,1565.011Zm-5.868-10.585c.9,6.969,5,8.477,5.874,8.477h.034c.05,0,.1-.1.134-.156a4.874,4.874,0,0,0-.93-4.137A11.976,11.976,0,0,0,1314.641,1554.426Z" transform="translate(-1312.319 -1551.557)"/></g><g transform="translate(70.47 61.838)"><path class="c" d="M2080.52,1498.433a.791.791,0,0,1-.712-1.132c1.685-3.514-.72-6.427-2.3-7.852-3.036-2.731-7.1-3.792-8.576-2.883a.791.791,0,1,1-.831-1.345c2.508-1.547,7.435.329,10.464,3.053,3.254,2.926,4.228,6.466,2.672,9.711A.791.791,0,0,1,2080.52,1498.433Z" transform="translate(-2067.723 -1484.661)"/></g><g transform="translate(48.563 83.225)"><path class="c" d="M1751.277,1825.836a.814.814,0,0,1-.13-.011.791.791,0,0,1-.651-.909c1.258-7.6-2.289-11.056-4.515-12.44-3.076-1.912-7.188-2.067-9.566-.36a.79.79,0,1,1-.922-1.284c2.914-2.092,7.676-1.966,11.323.3,4.359,2.71,6.269,7.827,5.24,14.041A.791.791,0,0,1,1751.277,1825.836Z" transform="translate(-1735.164 -1809.345)"/></g><g transform="translate(48.324 102.537)"><path class="c" d="M1732.8,2102.685c.263.161.585.368.885.544s.615.356.928.521a11.378,11.378,0,0,0,1.946.817,6.606,6.606,0,0,0,2.092.274l.543-.03.54-.1c.091-.018.185-.03.276-.052l.267-.085.552-.167.015,0a.113.113,0,0,1,.1.2c-.156.122-.313.246-.477.366l-.247.182c-.086.053-.178.1-.268.145-.181.1-.366.191-.555.28l-.593.2a6.456,6.456,0,0,1-2.516.2,8.077,8.077,0,0,1-2.429-.675,5.95,5.95,0,0,1-.56-.282,5.889,5.889,0,0,1-.536-.324,6.026,6.026,0,0,1-1-.8.791.791,0,0,1,.97-1.235Z" transform="translate(-1731.53 -2102.53)"/></g><g transform="translate(31.338 99.248)"><path class="c" d="M1475.155,2053.034c0-.011.03.029.048.048l.071.079c.043.055.1.109.153.165a4.69,4.69,0,0,0,.342.323,6.48,6.48,0,0,0,.782.575,7.432,7.432,0,0,0,1.883.813,11.734,11.734,0,0,0,2.163.375l1.139.054c.382-.007.77-.007,1.165,0h.008a.114.114,0,0,1,.037.221c-.369.139-.746.27-1.128.392-.385.1-.779.186-1.176.271a9.483,9.483,0,0,1-2.469.085,6.474,6.474,0,0,1-2.48-.729,5.12,5.12,0,0,1-1.091-.794,4,4,0,0,1-.464-.514,3.57,3.57,0,0,1-.2-.294c-.033-.053-.062-.1-.093-.161s-.056-.1-.1-.2a.79.79,0,0,1,1.413-.708Z" transform="translate(-1473.658 -2052.598)"/></g></g><g transform="translate(92.936 4.708)"><g transform="translate(0 0)"><g transform="translate(0.855 0.855)"><path class="p" d="M2423.956,658.942a.855.855,0,0,1-.739-1.286l2.084-3.57a2.027,2.027,0,0,0-.237-2.39,12.789,12.789,0,0,1,9.246-21.353l.252,0a12.792,12.792,0,0,1,12.79,13,12.847,12.847,0,0,1-12.792,12.585h-.111a12.809,12.809,0,0,1-3.208-.436,1.916,1.916,0,0,0-.5-.066,1.972,1.972,0,0,0-.993.27l-5.365,3.132A.854.854,0,0,1,2423.956,658.942Z" transform="translate(-2421.771 -630.341)"/></g><path class="c" d="M2422.437,619.073a11.937,11.937,0,1,1,0,23.874h-.1a11.929,11.929,0,0,1-2.994-.406,2.777,2.777,0,0,0-.719-.095,2.828,2.828,0,0,0-1.425.387l-5.365,3.132,2.084-3.57a2.892,2.892,0,0,0-.341-3.394,11.934,11.934,0,0,1,8.628-19.925l.235,0m0-1.71-.269,0a13.643,13.643,0,0,0-9.864,22.781,1.175,1.175,0,0,1,.133,1.385l-2.084,3.57a1.71,1.71,0,0,0,2.339,2.339l5.364-3.132a1.121,1.121,0,0,1,.563-.154,1.062,1.062,0,0,1,.276.036,13.67,13.67,0,0,0,3.423.465h.117a13.706,13.706,0,0,0,13.646-13.426,13.647,13.647,0,0,0-13.645-13.867Z" transform="translate(-2408.79 -617.363)"/></g><g class="q" transform="translate(3.411 1.71)"><path class="h" d="M2469.942,644.264a11.937,11.937,0,0,1,12.171,12.128,11.809,11.809,0,0,1-1.694,5.91,11.913,11.913,0,0,0-9.85-18.978,11.957,11.957,0,0,0-10,5.822A11.933,11.933,0,0,1,2469.942,644.264Z" transform="translate(-2460.568 -643.322)"/></g><g class="r" transform="translate(1.71 5.312)"><path class="s" d="M2448.464,715.764a11.927,11.927,0,0,1-2.994-.407,2.487,2.487,0,0,0-.44-.058,6.173,6.173,0,0,1-4.453-2.487c-.267-.348-.572-.66-.873-.993A11.882,11.882,0,0,1,2438.168,698a11.9,11.9,0,0,0-.375,16.292,2.9,2.9,0,0,1,.383,3.407l-2.1,3.59,5.365-3.132a2.83,2.83,0,0,1,2.158-.288,11.93,11.93,0,0,0,13.5-5.729A11.912,11.912,0,0,1,2448.464,715.764Z" transform="translate(-2434.751 -697.999)"/></g><g transform="translate(8.38 8.845)"><path class="h" d="M2536.915,752.447h0a3.131,3.131,0,0,1,4.416.219l.19.19.19-.19a3.131,3.131,0,0,1,4.417-.219h0a3.123,3.123,0,0,1,0,4.416l-.19.19-3.834,3.834a.823.823,0,0,1-1.164,0l-3.834-3.834-.19-.19A3.123,3.123,0,0,1,2536.915,752.447Z" transform="translate(-2536 -751.635)"/></g><g class="q" transform="translate(9.451 10.869)"><path class="t" d="M2552.513,782.833a1.128,1.128,0,0,1,1.324-.381c.22.16-.152.443-.527.96s-.612,1.071-.832.911A1.335,1.335,0,0,1,2552.513,782.833Z" transform="translate(-2552.271 -782.364)"/></g><g class="q" transform="translate(11.364 10.073)"><path class="t" d="M2581.969,770.479a.352.352,0,0,1-.624.243c-.089-.125-.01-.332.2-.413S2581.95,770.326,2581.969,770.479Z" transform="translate(-2581.309 -770.279)"/></g></g></g></svg>