<svg xmlns="http://www.w3.org/2000/svg" width="464.95" height="305.613" viewBox="0 0 464.95 305.613"><defs><style>.a{fill:#fff;}.b{opacity:0.35;}.c{fill:#371a45;}.d{fill:#008cff;}.e{fill:#afb2b1;}.f{opacity:0.2;}.g{fill:#fce85b;}.h{fill:#220f2d;}.i{opacity:0.5;}.j{opacity:0.4;}.k{fill:#ffda22;}.l{opacity:0.6;}.m{fill:#fa0;}</style></defs><g transform="translate(-716.668 -1294.123)"><g transform="translate(859.939 1489.667)"><g transform="translate(0 0)"><path class="a" d="M1538.646,2340.318a85.936,85.936,0,0,1-21.178,42.126c-13.71,14.748-35.844,15.749-34.187,29.648h112.053Z" transform="translate(-1483.193 -2340.318)"/></g></g><g transform="translate(859.942 1489.664)"><g transform="translate(0)"><path class="a" d="M1595.346,2412.081H1483.3c-1.658-13.9,20.472-14.9,34.182-29.648a86,86,0,0,0,16.817-26.968,81.08,81.08,0,0,0,3.993-13.149c.271-1.292.372-2.01.372-2.01l16.262,20.593,4.575,5.793,33.4,42.29Z" transform="translate(-1483.209 -2340.305)"/></g></g><g class="b" transform="translate(893.028 1518.742)"><g transform="translate(0 0)"><path class="c" d="M1739.276,2538.573h-79.051c6.05-3.174,11.476-8.394,18.171-12.662,10.484-6.683,11.439-24.12,9.717-30.036Z" transform="translate(-1660.225 -2495.875)"/></g></g><g transform="translate(857.228 1486.962)"><g transform="translate(0 0)"><path class="c" d="M1583.54,2403.032H1471.487a2.707,2.707,0,0,1-2.688-2.387c-1.185-9.951,7.354-14.419,16.4-19.148,6.137-3.21,13.092-6.848,18.5-12.663a84.013,84.013,0,0,0,20.481-40.66,2.708,2.708,0,0,1,4.8-1.3l56.688,71.774a2.707,2.707,0,0,1-2.124,4.385Zm-109.318-5.414h103.73l-49.657-62.873a89.671,89.671,0,0,1-20.638,37.774c-6.038,6.5-13.432,10.363-19.954,13.775C1479.892,2390.381,1475.012,2393.159,1474.223,2397.619Z" transform="translate(-1468.688 -2325.847)"/></g></g><g transform="translate(914.758 1399.724)"><g transform="translate(0 0)"><path class="a" d="M2039.4,1893.3c-2.26,4.622-7.546,7.58-15.667,7.627-10.314.054-10.537,1.462-10.469,1.773a.3.3,0,0,0,.027.061s1.766,2.754,4.155,7.289c.007.013.014.034.021.047q.152.274.3.569a.2.2,0,0,0,.027.054c7.174,13.813,19.213,42.615,7.011,61.861-14.949,23.564-83.484,35.15-107.325,41.4-19.558,5.13-55.8,7.39-86.13,3.749a166.965,166.965,0,0,1-18.875-3.282c-19.037-4.555-28.261-28.268-32.552-45.944a156.359,156.359,0,0,1-3.181-17.44c-.189-1.583-.264-2.484-.264-2.484s50.411-42.906,121.043-47.44a183.9,183.9,0,0,1,36.2,1.218c21.494,2.876,35.191,8.453,35.191,8.453,3.343-9.644-7.864-24.918-.955-38.71,8.121-16.215,57.49-20.417,70.3,6.057C2041.055,1883.918,2041.393,1889.25,2039.4,1893.3Z" transform="translate(-1776.487 -1859.107)"/></g></g><g transform="translate(1155.741 1450.711)"><g transform="translate(0 0)"><path class="a" d="M3065.788,2131.9q.152.274.3.569A3.113,3.113,0,0,1,3065.788,2131.9Z" transform="translate(-3065.788 -2131.896)"/></g></g><g class="b" transform="translate(1141.042 1429.685)"><g transform="translate(0 0)"><path class="c" d="M3023.778,2023.633c-2.26,4.622-7.546,7.58-15.667,7.627-10.314.054-10.537,1.462-10.469,1.773a171.474,171.474,0,0,0-10.5-13.575s4.284-.907,14.394,4.751C3007.178,2027.362,3018.71,2029.575,3023.778,2023.633Z" transform="translate(-2987.146 -2019.404)"/></g></g><g class="b" transform="translate(911.029 1441.751)"><g transform="translate(0 0)"><path class="c" d="M2008.591,2155.4c-42.5,39.607-152.206,54.865-212.327,41.868-16.23-3.886-25.323-21.687-30.31-37.8a23.081,23.081,0,0,0-9.347-12.388l-.07-.046c2.53-7.272,4.354-11.2,3.729-15.633,0,0,50.411-42.906,121.043-47.44-17.737,57.9-64.163,92.288-115.026,68.683,5.36,13.521,13.921,26.4,27.429,29.628,32.49,7.776,81.162,5.786,105-.467,7.8-2.044,8.473-58.417,16.56-46.587,39.177,57.327,86.8,17.995,92.213,8.838,4.642-7.85,4.135-18.367,3.7-26.427C2014.62,2130.281,2015.568,2144.405,2008.591,2155.4Z" transform="translate(-1756.536 -2083.958)"/></g></g><g transform="translate(913.932 1397.025)"><g transform="translate(0 0)"><path class="c" d="M1784.491,1977.845a74.322,74.322,0,0,0,8.94,12.294,41.916,41.916,0,0,0,5.44,4.945,29.41,29.41,0,0,0,6.192,3.559,32.692,32.692,0,0,0,6.967,1.926l3.747.748,3.787.594c5.041.833,10.146,1.365,15.25,1.876a285.529,285.529,0,0,0,61.6-1.032,145.252,145.252,0,0,0,15.05-2.727l1.851-.438,1.916-.488,3.819-.927,7.616-1.764c10.137-2.308,20.232-4.615,30.225-7.26a307.477,307.477,0,0,0,29.488-9.18,141.2,141.2,0,0,0,14.023-6.089,67.41,67.41,0,0,0,12.6-8.027c.978-.75,1.793-1.625,2.678-2.445.427-.421.788-.884,1.188-1.322a10.846,10.846,0,0,0,1.1-1.366c.332-.474.681-.933,1.006-1.416l.878-1.545a12.075,12.075,0,0,0,.8-1.589c.237-.545.51-1.073.722-1.63a37.641,37.641,0,0,0,2.34-14.254,65.085,65.085,0,0,0-2.061-14.787,104.9,104.9,0,0,0-4.8-14.4,135.249,135.249,0,0,0-6.6-13.771c-.61-1.117-1.245-2.218-1.888-3.306l-.487-.808-.244-.4-.121-.195-.056-.089a3.094,3.094,0,0,1-.362-.77,3.031,3.031,0,0,1-.112-1.218,3.472,3.472,0,0,1,.256-.925,4.039,4.039,0,0,1,.356-.6,2.7,2.7,0,0,1,.339-.388c.108-.106.22-.208.336-.3.1-.075.168-.12.256-.179a4.411,4.411,0,0,1,.487-.289,7.985,7.985,0,0,1,1.427-.538,25.114,25.114,0,0,1,4.369-.66c1.369-.1,2.719-.156,4.052-.172,1.4,0,2.486-.092,3.693-.137a23.346,23.346,0,0,0,3.393-.606,12.474,12.474,0,0,0,5.608-2.932,9.032,9.032,0,0,0,2.658-5.274,15.043,15.043,0,0,0-.634-6.5c-.193-.546-.33-1.1-.561-1.642l-.7-1.617c-.245-.533-.555-1.032-.827-1.552l-.419-.773-.493-.728a25.345,25.345,0,0,0-4.635-5.3,35.763,35.763,0,0,0-12.615-6.9,54.061,54.061,0,0,0-14.588-2.417c-1.241-.075-2.486-.014-3.729-.02-1.241.076-2.486.093-3.721.238a53.712,53.712,0,0,0-7.338,1.152,42.244,42.244,0,0,0-7,2.186,28.064,28.064,0,0,0-6.2,3.417l-1.3,1.082c-.376.4-.784.775-1.145,1.176-.305.427-.688.821-.948,1.26a12.614,12.614,0,0,0-.762,1.373,19.149,19.149,0,0,0-1.731,6.575c-.406,4.647.649,9.533,1.848,14.546.592,2.524,1.239,5.1,1.642,7.867a19.118,19.118,0,0,1-.479,8.983,2.69,2.69,0,0,1-3.411,1.683l-.109-.04-.059-.024c-1.821-.715-3.857-1.4-5.827-2.019-1.987-.633-4-1.2-6.023-1.752q-6.07-1.622-12.262-2.806c-4.121-.79-8.271-1.464-12.442-1.923l-6.256-.685-6.281-.406a193.668,193.668,0,0,0-25.161.424,199.9,199.9,0,0,0-24.9,3.81,212.633,212.633,0,0,0-47.608,16.46c-15.155,7.381-29.544,16.063-44.066,24.843l-.029.018a.909.909,0,0,1-1.141-1.392,81.536,81.536,0,0,1,9.591-8.735c1.682-1.352,3.427-2.616,5.169-3.887,1.773-1.223,3.54-2.461,5.36-3.614a179.781,179.781,0,0,1,22.706-12.329A236.389,236.389,0,0,1,1864,1890.924a205.163,205.163,0,0,1,25.588-3.913,199.026,199.026,0,0,1,25.9-.437l6.47.419,6.446.705c4.3.474,8.563,1.167,12.807,1.98s8.461,1.776,12.645,2.894c2.089.57,4.174,1.158,6.246,1.817,2.089.665,4.1,1.327,6.243,2.169l-3.579,1.62a13.994,13.994,0,0,0,.235-6.442c-.341-2.375-.953-4.854-1.55-7.385-1.19-5.055-2.456-10.486-1.974-16.257a24.6,24.6,0,0,1,2.225-8.416,18.3,18.3,0,0,1,1.128-2.03,23.02,23.02,0,0,1,1.393-1.85c.5-.566,1.045-1.08,1.572-1.616.556-.483,1.127-.941,1.694-1.408a33.392,33.392,0,0,1,7.4-4.107,47.644,47.644,0,0,1,7.859-2.459,59.193,59.193,0,0,1,8.048-1.265c1.348-.154,2.7-.179,4.056-.258,1.354,0,2.709-.058,4.064.021a59.448,59.448,0,0,1,16.068,2.674,41.126,41.126,0,0,1,14.531,7.983,30.725,30.725,0,0,1,5.586,6.394,29.3,29.3,0,0,1,3.657,7.717,20.386,20.386,0,0,1,.806,8.879,14.5,14.5,0,0,1-4.248,8.355,17.834,17.834,0,0,1-8,4.276,28.636,28.636,0,0,1-4.27.761c-1.388.068-2.9.161-4.095.159-1.264.015-2.511.072-3.734.157a20.847,20.847,0,0,0-3.33.477c-.2.056-.378.125-.4.134s.054-.021.069-.041l.052-.046a1.094,1.094,0,0,0,.159-.136c.065-.068.052-.065.174-.21a1.674,1.674,0,0,0,.226-.393,2.064,2.064,0,0,0,.188-.692,2.323,2.323,0,0,0-.091-.977c-.193-.525-.391-.77-.25-.555l.074.117.136.219.266.433.519.861c.679,1.149,1.342,2.3,1.978,3.462a140.719,140.719,0,0,1,6.867,14.327,110.3,110.3,0,0,1,5.043,15.152,70.415,70.415,0,0,1,2.221,16.022,43.024,43.024,0,0,1-2.715,16.308c-.251.656-.569,1.289-.852,1.934a15.941,15.941,0,0,1-.949,1.891l-1.052,1.841c-.4.6-.828,1.178-1.244,1.764a14.7,14.7,0,0,1-1.341,1.664c-.473.524-.922,1.082-1.418,1.573-1.013.952-1.988,1.972-3.072,2.81a72.7,72.7,0,0,1-13.627,8.708,146.538,146.538,0,0,1-14.559,6.325,312.772,312.772,0,0,1-30.02,9.351c-10.1,2.673-20.273,5-30.4,7.3l-7.571,1.753-3.755.912-1.861.474-1.941.461a150.641,150.641,0,0,1-15.61,2.833,300.3,300.3,0,0,1-31.385,2.347,270.546,270.546,0,0,1-31.458-.894c-5.239-.475-10.469-1.11-15.67-2.046l-3.9-.716-3.876-.878a32.179,32.179,0,0,1-20.539-13.2,53.318,53.318,0,0,1-7.455-14.124.906.906,0,0,1,1.625-.781Z" transform="translate(-1772.067 -1844.666)"/></g></g><g transform="translate(881.478 1555.004)"><g transform="translate(0)"><path class="d" d="M1657.307,2730.011l95.123-29.327a9.964,9.964,0,0,0,7.527-9.595h0l-161.527-1.208v41.612l42.588.452A63.845,63.845,0,0,0,1657.307,2730.011Z" transform="translate(-1598.43 -2689.882)"/></g></g><g class="b" transform="translate(881.476 1558.933)"><g transform="translate(0 0)"><path class="c" d="M1759.549,2710.9a9.945,9.945,0,0,1-7.124,6.871L1657.3,2747.1a63.8,63.8,0,0,1-16.289,1.932l-42.589-.452,2.687-5.808,42.588.725a63.672,63.672,0,0,0,16.3-1.829l95.314-28.539A9.789,9.789,0,0,0,1759.549,2710.9Z" transform="translate(-1598.42 -2710.902)"/></g></g><g transform="translate(879.141 1552.65)"><g transform="translate(0 0)"><path class="c" d="M1631.534,2724.047q-.351,0-.7,0l-44.9-.477v-46.277l166.215,1.242-.016,2.334a12.3,12.3,0,0,1-9.23,11.829l-95.185,29.344A66.229,66.229,0,0,1,1631.534,2724.047Zm15.61-4.274h0Zm-56.54-.83,40.276.428a61.134,61.134,0,0,0,15.634-1.849l95.18-29.342a7.63,7.63,0,0,0,5.381-5.013L1590.6,2682Z" transform="translate(-1585.93 -2677.289)"/></g></g><g transform="translate(881.478 1554.195)"><g transform="translate(0)"><path class="d" d="M1654.637,2716.567l104.812-28.879a.06.06,0,0,0-.013-.119l-161.005-2.014v32.637h41.893A63.835,63.835,0,0,0,1654.637,2716.567Z" transform="translate(-1598.43 -2685.555)"/></g></g><g transform="translate(904.174 1561.31)"><g transform="translate(0 0)"><path class="e" d="M1733.894,2740.6l67.167-14.58a.906.906,0,0,0-.162-1.8l-81.041-.6v19.042Z" transform="translate(-1719.858 -2723.623)"/></g></g><g transform="translate(901.838 1558.957)"><g transform="translate(0 0)"><path class="c" d="M1707.358,2735.132v-24.1l83.394.621a3.242,3.242,0,0,1,.563,6.432l-67.245,14.593Zm16.373-4.766h0Zm-11.7-14.627v13.983l11.282-1.656,54.528-11.836Zm78.684.586h0Zm-.313-2.823a.742.742,0,0,0-.075.016Z" transform="translate(-1707.358 -2711.032)"/></g></g><g transform="translate(879.141 1551.829)"><path class="c" d="M1630.16,2710.238h-44.23V2672.9l165.44,2.069.284,2.111a2.4,2.4,0,0,1-1.765,2.575L1645,2708.553A66.267,66.267,0,0,1,1630.16,2710.238Zm14.313-3.961h0Zm-53.87-.711h39.557a61.6,61.6,0,0,0,13.741-1.554l89.271-24.6L1590.6,2677.63Zm158.625-25.951h0Z" transform="translate(-1585.93 -2672.899)"/></g><g transform="translate(1104.618 1448.779)"><g transform="translate(0)"><path class="c" d="M2796,2121.76a39.448,39.448,0,0,1,5.114,2.542c1.628.93,3.188,1.965,4.714,3.042a66.9,66.9,0,0,1,8.5,7.288,62.831,62.831,0,0,1,7.194,8.551l1.552,2.314c.481.8.938,1.608,1.386,2.418l.674,1.21.593,1.258c.4.832.77,1.677,1.14,2.514a.388.388,0,0,1-.656.4l-.016-.019a82.782,82.782,0,0,0-7.142-8.025,85.377,85.377,0,0,0-7.965-6.974c-2.774-2.167-5.67-4.156-8.586-6.1-.746-.46-1.47-.952-2.2-1.429l-2.219-1.4-4.394-2.7-.123-.075a2.709,2.709,0,0,1,2.436-4.82Z" transform="translate(-2792.271 -2121.563)"/></g></g><g transform="translate(1140.311 1428.958)"><g transform="translate(0)"><path class="c" d="M2983.235,2015.518a21.011,21.011,0,0,1,4.321,2.706,35.926,35.926,0,0,1,3.672,3.371,46.831,46.831,0,0,1,3.294,3.771,27.15,27.15,0,0,1,2.75,4.309,2.341,2.341,0,0,1-4.031,2.358l-.018-.027c-1.716-2.5-3.453-5.147-5.21-7.828-.866-1.353-1.788-2.671-2.583-4.111A30.525,30.525,0,0,1,2983.235,2015.518Z" transform="translate(-2983.235 -2015.518)"/></g></g><g transform="translate(1002.876 1391.297)"><g transform="translate(0 0)"><path class="a" d="M2261.419,1822.44c10.846-9.538,61.606-13.339,85.1,1.466,21.575,13.6,27.117,57.977,14.01,55.085-29.455-6.5-52.782-9.427-96.282-1.838C2236.178,1881.054,2250.574,1831.977,2261.419,1822.44Z" transform="translate(-2247.934 -1814.024)"/></g></g><g class="b" transform="translate(1002.878 1408.935)"><g transform="translate(0 0)"><path class="c" d="M2360.533,1955.725c-29.459-6.5-52.78-9.427-96.281-1.841-15.01,2.091-17.873-10.984-15.633-25.053,1.61,7.085,6.246,11.708,15.633,10.4,12.988-2.267,31.292-30.847,31.292-30.847s.778,23.524,9.976,28.185c11.545,5.849,39.089.984,55.013,4.5,3.187.7,5.265-1.387,6.287-5.143C2368.81,1947.652,2366.813,1957.112,2360.533,1955.725Z" transform="translate(-2247.943 -1908.386)"/></g></g><g transform="translate(1000.24 1388.563)"><g transform="translate(0 0)"><path class="c" d="M2350.218,1869.946a8.1,8.1,0,0,1-1.744-.2c-31.607-6.972-53.92-9.022-95.234-1.814l-.092.015c-10.451,1.452-15.155-3.725-17.262-8.323-6.4-13.962,3.38-43.28,12.278-51.1,12.23-10.756,64.281-13.946,88.327,1.209,17.757,11.192,25.956,42.351,20.842,54.8C2355.9,1868.014,2353.314,1869.946,2350.218,1869.946Zm-51.761-11.881c17.719,0,33.168,2.425,51.183,6.4.641.142,1.713.379,2.685-1.988,3.806-9.266-2.606-38.007-18.721-48.164-22.765-14.349-72.279-10.154-81.865-1.723h0c-6.863,6.035-16.532,32.562-10.932,44.783,1.974,4.309,5.756,6.016,11.55,5.222C2270.4,1859.449,2285.074,1858.065,2298.457,1858.065Zm-48.506-47.51h0Z" transform="translate(-2233.829 -1799.397)"/></g></g><g transform="translate(1080.238 1411.833)"><g transform="translate(0 0)"><path class="a" d="M2665.679,1925.568c-5.414,7.089-4.857,29.186.079,30.656s22.372,2.946,26.194-.159,5.517-15.065,1.849-21.336C2690.1,1928.4,2669.66,1920.356,2665.679,1925.568Z" transform="translate(-2661.833 -1923.892)"/></g></g><g class="b" transform="translate(1080.238 1421.949)"><g transform="translate(0 0)"><path class="c" d="M2695.538,1991.72c-.555,3.7-1.854,6.944-3.587,8.351-3.823,3.106-21.257,1.631-26.2.162-3.587-1.069-4.859-13.034-3.215-22.218.7,5.59,2.6,10.165,5.062,9.975,3.885-.3,5.9-8.473,5.9-8.473s.981,10.145,4.852,13.968c4.832,4.778,13.975,1.028,16.418-.954A4.658,4.658,0,0,0,2695.538,1991.72Z" transform="translate(-2661.83 -1978.016)"/></g></g><g transform="translate(1078.379 1409.964)"><g transform="translate(0 0)"><path class="c" d="M2673.235,1951.62a71.079,71.079,0,0,1-16.1-1.734c-1.681-.5-2.987-2.146-3.88-4.893-2.24-6.885-2.026-22.306,2.849-28.689,1.371-1.794,3.865-2.591,7.4-2.376,7.757.478,20.528,6.094,23.823,11.727,4.187,7.159,2.242,20.052-2.284,23.73C2683,1951.045,2678.285,1951.62,2673.235,1951.62Zm-10.8-33.986c-1.668,0-2.9.337-3.356.94h0c-3.717,4.867-4.439,18.58-2.265,25.264.6,1.854,1.223,2.416,1.392,2.466,5.106,1.521,21.567,2.551,24.482.182,2.944-2.392,4.732-13.27,1.414-18.942-2.39-4.086-13.678-9.443-20.825-9.882C2662.984,1917.642,2662.7,1917.633,2662.433,1917.633Zm-4.841-.195h0Z" transform="translate(-2651.887 -1913.894)"/></g></g><g transform="translate(1089.27 1420.525)"><g transform="translate(0)"><path class="c" d="M2713.529,1970.682a122.6,122.6,0,0,0,.056,13.487,29.291,29.291,0,0,0,1.073,6.2,7.884,7.884,0,0,0,1.113,2.321,2.792,2.792,0,0,0,1.528,1.069l.343.1a1.853,1.853,0,0,1-.766,3.614,10.629,10.629,0,0,1-1.208-.193,6.965,6.965,0,0,1-1.169-.466,6.18,6.18,0,0,1-1.875-1.542,9.746,9.746,0,0,1-1.858-3.764,23.046,23.046,0,0,1-.551-7.307,48.958,48.958,0,0,1,.945-6.94,52.807,52.807,0,0,1,1.845-6.683.27.27,0,0,1,.524.1Z" transform="translate(-2710.156 -1970.395)"/></g></g><g transform="translate(1044.866 1398.163)"><g transform="translate(0 0)"><path class="c" d="M2482.808,1852.478c-1.066,4.567-2.326,9.142-2.912,13.514-.086.548-.114,1.079-.168,1.614l-.154,1.772-.3,3.549-.517,7.052c-.147,2.335-.234,4.662-.239,6.935a37.986,37.986,0,0,0,.492,6.553,9.394,9.394,0,0,0,2.09,4.835,6.689,6.689,0,0,0,4.607,1.637l.1,0a2.706,2.706,0,0,1-.1,5.409,14.254,14.254,0,0,1-4.364-.519,10.525,10.525,0,0,1-4.21-2.373,11.812,11.812,0,0,1-2.7-3.836,19.51,19.51,0,0,1-1.24-4.037,39.344,39.344,0,0,1-.611-7.681c-.006-2.493.175-4.929.364-7.348s.458-4.809.742-7.19l.432-3.563.224-1.783c.11-.645.2-1.3.344-1.923a38.8,38.8,0,0,1,2.262-7.156,43.051,43.051,0,0,1,3.374-6.558,1.369,1.369,0,0,1,2.488,1.045Z" transform="translate(-2472.588 -1850.754)"/></g></g><g transform="translate(1080.92 1446.115)"><g transform="translate(0 0)"><path class="a" d="M2708.082,2196.874a19.757,19.757,0,0,1-19.781,5.434,118.034,118.034,0,0,0,4.561-29.926,90.08,90.08,0,0,0-.751-13.88c-3.986-29.256-26.63-46.167-26.63-46.167s12.141-12.114,27.868,1.259c11.688,9.941,19.159,35.8,20.12,56.508C2714.038,2182.162,2712.386,2192.475,2708.082,2196.874Z" transform="translate(-2665.481 -2107.306)"/></g></g><g class="b" transform="translate(1103.74 1503.81)"><g transform="translate(0 0)"><path class="c" d="M2807.353,2447.861a19.756,19.756,0,0,1-19.781,5.434,118.037,118.037,0,0,0,4.561-29.926c1.956,4.7,4.554,9.393,6.808,8.493,3.188-1.279,2.565-12.337,2.849-15.748.088-1.069,3.526,4.717,4.4,14.042.535,5.658,4.311-3.187,6.551-9.068C2813.309,2433.148,2811.657,2443.462,2807.353,2447.861Z" transform="translate(-2787.572 -2415.988)"/></g></g><g transform="translate(1076.795 1443.421)"><g transform="translate(0 0)"><path class="c" d="M2675.795,2194.065a20.715,20.715,0,0,1-6.324-.916l-2.485-.862.792-2.51c.066-.211,6.61-21.306,3.707-42.629-3.775-27.724-25.355-44.2-25.573-44.366l-2.5-1.875,2.21-2.208c.139-.139,14.109-13.7,31.538,1.119,12.573,10.691,20.122,37.541,21.08,58.537.365,7.992.049,22.346-6.167,28.693A22.3,22.3,0,0,1,2675.795,2194.065Zm-2.042-5.522a17.074,17.074,0,0,0,14.453-5.284c3.441-3.514,5.17-12.732,4.626-24.658-.883-19.342-7.9-45.072-19.179-54.66-9.824-8.354-17.9-5.558-21.766-3.224,6.346,5.642,21.669,21.517,24.962,45.7C2679.306,2164.461,2675.515,2181.843,2673.752,2188.542Z" transform="translate(-2643.413 -2092.893)"/></g></g><g class="f" transform="translate(726.639 1327.091)"><g transform="translate(0)"><path class="g" d="M770.016,1594.13s136.441-123.715,137.122-123.619c-85.725,106.443,53.523,173.731,53.523,173.731l10.482,88.155Z" transform="translate(-770.016 -1470.511)"/></g></g><g transform="translate(830.289 1294.123)"><g transform="translate(2.67 2.669)"><g transform="translate(0.321 0.299)"><path class="a" d="M1355.978,1465.753a100.793,100.793,0,0,0,37.487,35.1,103.634,103.634,0,0,0,9.955,4.716c1.669.69,3.378,1.335,5.112,1.952a103.824,103.824,0,0,0,45.893,5.209q2.951-.339,5.865-.83c35.558-6.063,66.974-30.371,80.1-66.3a100.66,100.66,0,0,0-61.8-129.746,103.545,103.545,0,0,0-31.207-5.8c-1.214-.047-2.434-.058-3.653-.044q-4.89.021-9.718.5a105.093,105.093,0,0,0-41.955,13.51q-3.044,1.754-5.972,3.714a103.054,103.054,0,0,0-39.354,50.04A100.143,100.143,0,0,0,1355.978,1465.753Z" transform="translate(-1340.564 -1310)"/></g><path class="c" d="M1441.48,1512.368q-2.428,0-4.836-.114a104.68,104.68,0,0,1-29.609-5.755c-1.907-.68-3.584-1.32-5.128-1.958a104.626,104.626,0,0,1-9.983-4.73,101.45,101.45,0,0,1-37.6-35.2,100.161,100.161,0,0,1-9.271-88.243,102.7,102.7,0,0,1,30.97-43.836,103.889,103.889,0,0,1,8.5-6.35c1.918-1.287,3.933-2.54,5.989-3.725a105.386,105.386,0,0,1,42.075-13.549c3.212-.319,6.491-.488,9.746-.5,1.28-.015,2.514,0,3.666.045a103.8,103.8,0,0,1,31.293,5.812,101.108,101.108,0,0,1,58.5,52.464,100.034,100.034,0,0,1,3.478,77.667,104.109,104.109,0,0,1-80.33,66.495c-1.947.328-3.925.608-5.881.832A104.539,104.539,0,0,1,1441.48,1512.368Zm-86.647-48.074a100.848,100.848,0,0,0,37.375,34.992,104.017,104.017,0,0,0,9.926,4.7c1.536.635,3.2,1.272,5.1,1.948a103.539,103.539,0,0,0,45.759,5.193c1.945-.224,3.914-.5,5.849-.828a103.511,103.511,0,0,0,79.869-66.112,99.438,99.438,0,0,0-3.458-77.206,100.513,100.513,0,0,0-58.157-52.155,103.217,103.217,0,0,0-31.116-5.78c-1.145-.044-2.369-.057-3.641-.045-3.239.015-6.5.182-9.692.5a104.8,104.8,0,0,0-41.836,13.472c-2.045,1.178-4.049,2.424-5.955,3.7a103.281,103.281,0,0,0-8.449,6.314,102.106,102.106,0,0,0-30.79,43.582,99.566,99.566,0,0,0,9.215,87.72Z" transform="translate(-1338.845 -1308.401)"/></g><g class="b" transform="translate(6.973 48.592)"><path class="c" d="M1557.708,1644.063c-13.123,35.936-44.544,60.246-80.1,66.3q-2.915.495-5.861.831a104.09,104.09,0,0,1-45.9-5.2c-1.73-.623-3.439-1.264-5.111-1.951a104.977,104.977,0,0,1-9.954-4.722,100.857,100.857,0,0,1-48.919-60.545,100.758,100.758,0,0,0,36.215,33.124,102.563,102.563,0,0,0,9.954,4.722c1.666.69,3.375,1.33,5.111,1.951a103.727,103.727,0,0,0,45.891,5.208q2.955-.341,5.867-.834c35.558-6.058,66.973-30.365,80.1-66.3a100,100,0,0,0,2.174-62.544A100.138,100.138,0,0,1,1557.708,1644.063Z" transform="translate(-1361.864 -1554.097)"/></g><g transform="translate(0.667 0.667)"><path class="c" d="M1432.765,1505.661q-2.474,0-4.929-.116a106.667,106.667,0,0,1-30.176-5.865c-1.949-.695-3.656-1.346-5.231-2a106.442,106.442,0,0,1-10.169-4.818,103.451,103.451,0,0,1-38.341-35.9,102.146,102.146,0,0,1-9.456-89.995,105.355,105.355,0,0,1,40.231-51.16c1.956-1.313,4.01-2.59,6.106-3.8a107.4,107.4,0,0,1,42.876-13.807c3.275-.324,6.617-.5,9.935-.511,1.3-.016,2.567,0,3.752.046a105.784,105.784,0,0,1,31.877,5.923,103.1,103.1,0,0,1,59.649,53.5,102.021,102.021,0,0,1,3.549,79.209,106.116,106.116,0,0,1-81.874,67.781c-1.985.334-4,.619-5.99.847A106.56,106.56,0,0,1,1432.765,1505.661Zm-84.95-51.14a98.845,98.845,0,0,0,36.633,34.3,101.964,101.964,0,0,0,9.733,4.611c1.509.624,3.147,1.25,5.012,1.914a101.53,101.53,0,0,0,44.865,5.089c1.9-.219,3.838-.493,5.739-.812a101.5,101.5,0,0,0,78.322-64.824,97.455,97.455,0,0,0-3.387-75.664,98.526,98.526,0,0,0-57.01-51.122,101.221,101.221,0,0,0-30.512-5.668c-1.131-.043-2.322-.059-3.561-.044-3.19.014-6.386.179-9.517.49A102.791,102.791,0,0,0,1383.1,1316c-2.007,1.156-3.971,2.378-5.84,3.631a101.335,101.335,0,0,0-8.284,6.19,100.113,100.113,0,0,0-30.19,42.73,97.578,97.578,0,0,0,9.031,85.97Z" transform="translate(-1328.129 -1297.692)"/></g><g transform="translate(0 0)"><path class="c" d="M1429.861,1503.426q-2.49,0-4.961-.117a107.325,107.325,0,0,1-30.364-5.9c-1.963-.7-3.68-1.355-5.266-2.01a107.392,107.392,0,0,1-10.231-4.848,104.118,104.118,0,0,1-38.589-36.128h0a102.81,102.81,0,0,1-9.517-90.579,105.374,105.374,0,0,1,31.774-44.975,106.591,106.591,0,0,1,8.711-6.509c1.969-1.322,4.037-2.607,6.145-3.822a108.052,108.052,0,0,1,43.144-13.892c3.3-.327,6.659-.5,10-.515,1.307-.016,2.584,0,3.78.047a106.427,106.427,0,0,1,32.071,5.959,103.757,103.757,0,0,1,60.032,53.843,102.679,102.679,0,0,1,3.573,79.723,106.785,106.785,0,0,1-82.388,68.21c-2,.336-4.023.623-6.026.853A107.353,107.353,0,0,1,1429.861,1503.426Zm-84.385-52.161a98.178,98.178,0,0,0,36.385,34.064,101.455,101.455,0,0,0,9.669,4.581c1.5.62,3.128,1.242,4.982,1.9a100.855,100.855,0,0,0,44.568,5.055c1.891-.217,3.812-.489,5.7-.807a100.835,100.835,0,0,0,77.806-64.4,96.791,96.791,0,0,0-3.364-75.15,97.865,97.865,0,0,0-56.627-50.778,100.553,100.553,0,0,0-30.31-5.63q-1.691-.064-3.535-.043c-3.173.014-6.349.177-9.458.486a102.138,102.138,0,0,0-40.766,13.128c-1.994,1.149-3.946,2.362-5.8,3.608a100.757,100.757,0,0,0-8.229,6.149,99.444,99.444,0,0,0-29.99,42.446,96.915,96.915,0,0,0,8.969,85.386Z" transform="translate(-1324.558 -1294.123)"/></g><g transform="translate(3.042 26.322)"><path class="c" d="M1372.821,1587.462c62.613,37.748,142.844,2.989,143.052-68.971.141-48.957-48.3-86.557-95.942-83.351-34.671,2.333-67.592,19.578-79.011,73.668,0,0-1.315,24.689,6.357,40.59a229.746,229.746,0,0,0,17.861,30.068Z" transform="translate(-1340.834 -1434.949)"/></g><g transform="translate(33.473 68.657)"><path class="h" d="M1648.248,1702.658c-.206,71.958-80.439,106.716-143.049,68.973l-1.556-1.623c66.941,7.509,130.731-35.8,132.312-108.557A75.458,75.458,0,0,1,1648.248,1702.658Z" transform="translate(-1503.643 -1661.451)"/></g><g transform="translate(0 12.956)"><path class="c" d="M1413.869,1558.139c-.867,0-1.729-.01-2.6-.03l-.461-.046a107,107,0,0,1-16.274-4.3c-1.963-.7-3.68-1.355-5.266-2.01a107.393,107.393,0,0,1-10.231-4.848,104.117,104.117,0,0,1-38.589-36.128h0a102.81,102.81,0,0,1-9.517-90.579,105.373,105.373,0,0,1,31.774-44.975l.235-.194.269-.142c12.06-6.381,26.266-10.161,42.224-11.234,28.729-1.932,58.887,9.112,80.677,29.545,19.63,18.408,30.4,42.243,30.328,67.115-.081,27.064-9.86,50.859-28.281,68.815C1469.167,1547.643,1442.212,1558.139,1413.869,1558.139Zm-2.232-5.957c27.633.584,53.994-9.378,72.382-27.3,17.253-16.818,26.413-39.15,26.489-64.583.068-23.208-10.037-45.5-28.453-62.769-20.611-19.328-49.107-29.777-76.219-27.953-15,1.01-28.317,4.514-39.579,10.417a99.436,99.436,0,0,0-29.75,42.245,96.915,96.915,0,0,0,8.969,85.386h0a98.174,98.174,0,0,0,36.385,34.064,101.424,101.424,0,0,0,9.669,4.581c1.5.621,3.128,1.242,4.982,1.9A101,101,0,0,0,1411.637,1552.181Z" transform="translate(-1324.558 -1363.438)"/></g><g transform="translate(0.068 23.358)"><path class="c" d="M1414.491,1592.98a108.987,108.987,0,0,1-56.141-15.873l-.336-.2-8.224-8.6a230.192,230.192,0,0,1-18.124-30.51c-7.912-16.4-6.7-41-6.648-42.037l.06-.455c10.021-47.466,37.513-73.041,81.715-76.015,25.644-1.728,52.57,8.132,72.021,26.371,17.531,16.438,27.151,37.729,27.087,59.949-.093,32.193-15.933,59.543-43.459,75.037A97.533,97.533,0,0,1,1414.491,1592.98Zm-52.743-20.754c30.981,18.524,68.414,19.776,97.783,3.244,25.611-14.416,40.349-39.888,40.436-69.883.059-20.556-8.895-40.3-25.212-55.6-18.272-17.133-43.533-26.4-67.563-24.779-41.156,2.77-66.812,26.685-76.257,71.084-.1,2.452-.8,24.682,6.076,38.924a228.668,228.668,0,0,0,17.479,29.459Z" transform="translate(-1324.921 -1419.089)"/></g><g transform="translate(170.149 70.738)"><path class="a" d="M2288.148,1704.381c2.387,19.9-7.521,38.05-22.133,40.544s-28.393-11.615-30.78-31.511c-.017-.124-.03-.257-.04-.383-2.22-19.746,7.663-37.686,22.173-40.161,11.288-1.928,22.08,6.055,27.507,18.956A46.885,46.885,0,0,1,2288.148,1704.381Z" transform="translate(-2234.884 -1672.584)"/></g><g class="b" transform="translate(170.46 89.98)"><path class="c" d="M2289.5,1788.087c2.387,19.9-7.521,38.05-22.133,40.544s-28.393-11.615-30.78-31.511c-.017-.124-.03-.257-.04-.383,1.851,1.768,4.593,3.352,7.9,2.1,5.791-2.2,14.9-16.814,14.9-16.814s11.637-2.889,26.877-6.487A46.892,46.892,0,0,1,2289.5,1788.087Z" transform="translate(-2236.549 -1775.532)"/></g><g transform="translate(167.183 67.766)"><path class="c" d="M2249.713,1735.253a24.818,24.818,0,0,1-14.938-5.241c-8.3-6.193-13.907-16.827-15.388-29.174-2.568-21.411,8.46-41.069,24.583-43.821,6.528-1.114,13.042.582,18.837,4.908,8.3,6.193,13.906,16.827,15.388,29.175h0c2.568,21.411-8.46,41.069-24.583,43.82A23.142,23.142,0,0,1,2249.713,1735.253Zm-1.884-72.63a17,17,0,0,0-2.861.243c-13.054,2.228-21.887,18.945-19.69,37.265,1.27,10.583,6.146,19.976,13.045,25.125a18.4,18.4,0,0,0,14.289,3.814c13.054-2.228,21.887-18.945,19.689-37.265-1.269-10.584-6.146-19.977-13.045-25.126A19.039,19.039,0,0,0,2247.83,1662.622Z" transform="translate(-2219.016 -1656.684)"/></g><g transform="translate(183.408 79.65)"><g transform="translate(0 0)"><ellipse class="a" cx="21.806" cy="28.847" rx="21.806" ry="28.847" transform="matrix(1, -0.023, 0.023, 1, 0, 1.02)"/></g><g transform="translate(0.353 0.178)"><path class="c" d="M2330.157,1779.556a17.369,17.369,0,0,1-6.064-1.118c-11.755-4.362-18.768-20.483-15.633-35.934,1.748-8.615,6.324-15.543,12.555-19.009a17,17,0,0,1,14.562-1.165c11.755,4.362,18.768,20.482,15.632,35.934-1.748,8.614-6.323,15.543-12.554,19.009A17.366,17.366,0,0,1,2330.157,1779.556Zm-.643-57.721a16.754,16.754,0,0,0-8.2,2.2c-6.072,3.378-10.536,10.153-12.248,18.59-3.077,15.165,3.76,30.969,15.241,35.23a16.39,16.39,0,0,0,14.044-1.126c6.072-3.378,10.536-10.154,12.248-18.59h0c3.077-15.165-3.759-30.969-15.241-35.229A16.747,16.747,0,0,0,2329.514,1721.836Z" transform="translate(-2307.712 -1721.214)"/></g></g><g class="b" transform="translate(184.749 94.027)"><path class="c" d="M2315.133,1826.811a33.96,33.96,0,0,1-1.875-16.208c5.489,11.236,16.889,14.687,26.386,7.573,6.138-4.594,10.065-12.547,11.075-20.993.351.706.672,1.455.972,2.227,5.014,12.975.9,29.628-9.2,37.194S2320.146,1839.779,2315.133,1826.811Z" transform="translate(-2312.996 -1797.183)"/></g><g transform="translate(182.684 75.663)"><path class="c" d="M2326.1,1764.085a18.6,18.6,0,0,1-11.153-3.922c-6.722-5-11.462-14.248-12.679-24.746-2.091-18.033,6.243-33.941,18.973-36.216a18.042,18.042,0,0,1,14.152,3.654c6.722,5,11.462,14.248,12.679,24.746h0c2.09,18.033-6.244,33.941-18.974,36.216A17.055,17.055,0,0,1,2326.1,1764.085Zm-1.9-59.212a10.864,10.864,0,0,0-1.916.17c-9.328,1.667-15.8,15.264-14.123,29.691,1.032,8.9,4.892,16.628,10.324,20.667a12.257,12.257,0,0,0,9.568,2.575c9.328-1.667,15.8-15.264,14.123-29.691-1.032-8.9-4.892-16.628-10.325-20.667A12.819,12.819,0,0,0,2324.2,1704.873Z" transform="translate(-2301.948 -1698.935)"/></g><g class="i" transform="translate(15.877 39.472)"><path class="a" d="M1502.272,1510.488s-44.852,5.865-68.034,33.111l-.073.086a42.121,42.121,0,0,0-9.38,20.03,84.747,84.747,0,0,0-.946,22.789c1.466,18.564,5.673,26.968,5.673,26.968-11.476-8.912-18.386-19.542-19.762-34.992-.132-1.523-.21-3.1-.239-4.72-.008-.373-.007-.744,0-1.117-.009,0-.005-.011,0-.023a103.131,103.131,0,0,1,1.427-12.433c2.577-14.574,9.315-33.867,26.765-44.02C1470.335,1497.182,1503.669,1508.42,1502.272,1510.488Z" transform="translate(-1409.504 -1505.305)"/></g><g class="i" transform="translate(123.024 69.372)"><g transform="translate(0 0)"><ellipse class="a" cx="13.774" cy="15.822" rx="13.774" ry="15.822" transform="translate(0 9.511) rotate(-20.198)"/></g></g><g class="i" transform="translate(146.9 108.625)"><g transform="translate(0 0)"><ellipse class="a" cx="5.686" cy="6.536" rx="5.686" ry="6.536" transform="translate(0 4.901) rotate(-25.529)"/></g></g></g><g transform="translate(719.387 1446.683)"><g transform="translate(0 0)"><path class="d" d="M927.022,2260.7l-139.859-.972a12.487,12.487,0,0,1-11.658-8.283L773,2244.406l-40.934-114.767a14.437,14.437,0,0,1,13.693-19.29l135.644.875a14.446,14.446,0,0,1,13.512,9.588l43.941,123.225A12.468,12.468,0,0,1,927.022,2260.7Z" transform="translate(-731.213 -2110.349)"/></g></g><g transform="translate(761.173 1449.05)"><g class="b" transform="translate(0 0)"><path class="c" d="M962.558,2268.2l139.7.971a12.468,12.468,0,0,0,11.833-16.657l-43.941-123.225a14.423,14.423,0,0,0-4.406-6.279c6.056,23.53,15.452,72.252-1.429,100.289-20.383,33.84-87.133,32.777-109.538,31.4l2.506,7.034a12.47,12.47,0,0,0,5.63,6.667C962.8,2268.337,962.674,2268.274,962.558,2268.2Z" transform="translate(-954.778 -2123.013)"/></g></g><g class="j" transform="translate(720.321 1446.683)"><g transform="translate(0 0)"><path class="a" d="M741.575,2129.4l46.181,129.486a12.482,12.482,0,0,1-7.251-7.444l-43.44-121.8a14.437,14.437,0,0,1,13.693-19.29l135.644.875a14.449,14.449,0,0,1,12.775,7.879,7.832,7.832,0,0,0-1.256-.1l-148.287-.96A8.5,8.5,0,0,0,741.575,2129.4Z" transform="translate(-736.213 -2110.349)"/></g></g><g transform="translate(716.668 1443.974)"><g transform="translate(0 0)"><path class="c" d="M915.285,2251.615h-.105l-139.859-.974a15.225,15.225,0,0,1-14.19-10.078l-43.443-121.8a17.15,17.15,0,0,1,16.147-22.911h.116l135.642.876a17.2,17.2,0,0,1,16.042,11.388l43.946,123.221a15.178,15.178,0,0,1-14.3,20.276Zm-.068-5.415h.072a9.764,9.764,0,0,0,9.193-13.043l-43.946-123.221a11.772,11.772,0,0,0-10.977-7.793l-135.642-.876h-.079a11.736,11.736,0,0,0-11.05,15.678l43.443,121.8a9.8,9.8,0,0,0,9.128,6.484Z" transform="translate(-716.668 -2095.853)"/></g></g><g transform="translate(791.491 1499.604)"><g transform="translate(2.336 2.338)"><path class="k" d="M1167.787,2423.489l-4.906,5.089a3.807,3.807,0,0,0-.988,3.413l.219,1.068,1.191,5.856a3.819,3.819,0,0,1-5.411,4.2l-6.357-3.09a3.813,3.813,0,0,0-3.55.114l-6.151,3.48a3.817,3.817,0,0,1-5.663-3.847l.977-7a3.831,3.831,0,0,0-1.205-3.344l-5.215-4.769a3.822,3.822,0,0,1,1.524-6.491c.124-.034.255-.064.386-.088l6.96-1.237a3.826,3.826,0,0,0,2.8-2.178l2.352-5.162.576-1.269a3.821,3.821,0,0,1,6.848-.219l3.326,6.238a3.825,3.825,0,0,0,2.939,1.994l7.022.8A3.823,3.823,0,0,1,1167.787,2423.489Z" transform="translate(-1129.482 -2405.993)"/></g><g class="l" transform="translate(17.608 2.338)"><path class="a" d="M1234.22,2423.489l-4.906,5.089a3.777,3.777,0,0,0-.97,1.789c-.236-.138-.467-.288-.7-.437a3.328,3.328,0,0,1-1.236-1.174,2.172,2.172,0,0,1,.149-2.026,4.521,4.521,0,0,1,1.52-1.453c.957-.612,2.149-1.232,2.3-2.363a2.195,2.195,0,0,0-1.182-2.065,5.55,5.55,0,0,0-2.434-.586,27.21,27.21,0,0,0-3.575-.022,8.279,8.279,0,0,1-2.466-.064c-1.766-.44-2.922-2.142-3.541-3.847a43.676,43.676,0,0,0-1.711-5.167,2.7,2.7,0,0,0-.75-.975,3,3,0,0,0-1.111-.416,13.312,13.312,0,0,0-2.421-.27l.576-1.269a3.821,3.821,0,0,1,6.848-.219l3.326,6.238a3.825,3.825,0,0,0,2.939,1.994l7.022.8A3.823,3.823,0,0,1,1234.22,2423.489Z" transform="translate(-1211.187 -2405.993)"/></g><g transform="translate(2.336 14.511)"><path class="m" d="M1163.3,2491.87a3.819,3.819,0,0,1-5.411,4.2l-6.357-3.09a3.813,3.813,0,0,0-3.55.114l-6.151,3.48a3.817,3.817,0,0,1-5.663-3.847l.977-7a3.831,3.831,0,0,0-1.205-3.344l-5.215-4.769a3.822,3.822,0,0,1,1.524-6.491,3.908,3.908,0,0,0,.177.443,6.871,6.871,0,0,0,2.368,2.67c1.878,1.291,4.153,2.083,5.617,3.822,2.063,2.455,1.921,5.988,2.114,9.188a2.214,2.214,0,0,0,.532,1.556,1.806,1.806,0,0,0,1.528.285c1.762-.335,3.219-1.807,5.011-1.861,2.451-.074,7.713,5.376,9.656,3.84,1.548-1.224-.905-5.368,2.857-5.05Z" transform="translate(-1129.482 -2471.121)"/></g><path class="c" d="M1129.787,2436.289a6.168,6.168,0,0,1-6.093-7.012l.974-7a1.484,1.484,0,0,0-.468-1.3l-5.213-4.771a6.156,6.156,0,0,1,3.079-10.6l6.957-1.236a1.483,1.483,0,0,0,1.091-.846l2.926-6.432a6.156,6.156,0,0,1,11.034-.349h0l3.326,6.236a1.484,1.484,0,0,0,1.141.775l7.022.795a6.156,6.156,0,0,1,3.741,10.387l-4.9,5.089a1.483,1.483,0,0,0-.385,1.326l1.413,6.924a6.156,6.156,0,0,1-8.723,6.768l-6.355-3.09a1.48,1.48,0,0,0-1.38.043l-6.148,3.484A6.154,6.154,0,0,1,1129.787,2436.289Zm8.857-38.13h-.047a1.445,1.445,0,0,0-1.3.868l-2.927,6.432a6.155,6.155,0,0,1-4.526,3.512l-6.958,1.236a1.483,1.483,0,0,0-.742,2.554l5.213,4.771a6.153,6.153,0,0,1,1.941,5.39l-.974,7a1.483,1.483,0,0,0,2.2,1.495l6.148-3.484a6.155,6.155,0,0,1,5.726-.18l6.355,3.089a1.483,1.483,0,0,0,2.1-1.63l-1.414-6.925a6.156,6.156,0,0,1,1.6-5.5l4.9-5.089a1.484,1.484,0,0,0-.9-2.5l-7.022-.795a6.155,6.155,0,0,1-4.739-3.219l-3.326-6.236h0A1.439,1.439,0,0,0,1138.644,2398.158Z" transform="translate(-1116.983 -2393.485)"/></g><g transform="translate(1126.803 1460.908)"><g transform="translate(0 0)"><path class="c" d="M2912.833,2194.487a1.869,1.869,0,0,1-.664-3.617c.819-.312,20.226-7.562,34.561-2.8a1.869,1.869,0,1,1-1.179,3.547c-13.061-4.341-31.867,2.673-32.056,2.744A1.854,1.854,0,0,1,2912.833,2194.487Z" transform="translate(-2910.963 -2186.456)"/></g></g><g transform="translate(968.379 1481.129)"><g transform="translate(0 0)"><path class="a" d="M2153.516,2294.639s44.285,47.31,15.295,71.777c-24.373,20.571-50.476-6.961-50.476-6.961s-2.938,9.092-11.888,13.069c-10.982,4.881-23.937-3.978-23.937-3.978s-4.759,12.749-14.49,8.95c-10.4-4.062-2.921-41.117,18.065-62.08,24.281-24.253,60.138-3.125,60.138-3.125" transform="translate(-2063.368 -2294.639)"/></g></g><g class="b" transform="translate(968.383 1531.812)"><g transform="translate(0)"><path class="c" d="M2178.665,2565.8a26.567,26.567,0,0,1-9.84,21.094c-24.37,20.573-50.479-6.964-50.479-6.964s-2.937,9.1-11.884,13.075c-10.984,4.879-23.937-3.979-23.937-3.979s-4.758,12.75-14.489,8.947c-4.433-1.732-5.617-9.44-3.891-19.348.128,6.916,1.82,11.7,5.17,12.384,9.353,1.908,7.566-15.146,7.566-15.146s6.97,16.221,22.57,10.97c15.281-5.157,18.895-20.952,18.895-20.952s30.9,27.036,51.8,11.159A24.712,24.712,0,0,0,2178.665,2565.8Z" transform="translate(-2063.388 -2565.803)"/></g></g><g transform="translate(965.681 1480.338)"><g transform="translate(0 0)"><path class="c" d="M2142.435,2290.582a47.687,47.687,0,0,1,6.591,5.9,71.644,71.644,0,0,1,5.659,6.749,86.881,86.881,0,0,1,9.071,15.211c.653,1.335,1.177,2.743,1.764,4.113.5,1.417,1.073,2.8,1.491,4.249a53.455,53.455,0,0,1,2.118,8.84,40.376,40.376,0,0,1,.336,9.269,31.629,31.629,0,0,1-2.316,9.177,29.55,29.55,0,0,1-2.308,4.173l-.659.993-.331.5-.379.455-1.53,1.808a18.208,18.208,0,0,1-1.662,1.661c-.576.525-1.126,1.1-1.728,1.579l-1.822,1.425c-.6.482-1.279.875-1.916,1.315a33.847,33.847,0,0,1-8.471,4,31.091,31.091,0,0,1-9.334,1.31,39.894,39.894,0,0,1-17.739-4.745,58.668,58.668,0,0,1-7.7-4.763c-1.217-.885-2.4-1.819-3.549-2.788-1.165-.991-2.238-1.948-3.393-3.127l4.54-1.03c-.213.618-.387,1.032-.6,1.516-.207.466-.42.921-.652,1.364a27.683,27.683,0,0,1-1.506,2.59,26.461,26.461,0,0,1-3.83,4.636,24.768,24.768,0,0,1-4.88,3.65,20.086,20.086,0,0,1-2.81,1.294l-1.484.537-1.527.35a25.318,25.318,0,0,1-11.993-.632,40.442,40.442,0,0,1-5.474-2c-.876-.405-1.745-.827-2.6-1.285-.868-.479-1.654-.913-2.575-1.527l4.064-1.288a22.238,22.238,0,0,1-1.179,2.511,24.379,24.379,0,0,1-1.411,2.3,18.173,18.173,0,0,1-3.839,4.109,11.811,11.811,0,0,1-5.646,2.4,10.625,10.625,0,0,1-3.147-.043,12.573,12.573,0,0,1-2.933-.818,8.157,8.157,0,0,1-2.894-2.092l-.551-.652a7.868,7.868,0,0,1-.442-.676l-.415-.687c-.124-.229-.214-.458-.321-.689a17.931,17.931,0,0,1-1.4-5.439,41.279,41.279,0,0,1,.316-10.261,79.592,79.592,0,0,1,5.449-19.062,89.751,89.751,0,0,1,9.521-17.3,77.576,77.576,0,0,1,6.251-7.737,47.219,47.219,0,0,1,7.6-6.723,41.283,41.283,0,0,1,18.984-7.195,55.218,55.218,0,0,1,10.115-.242,62.929,62.929,0,0,1,9.934,1.411,46.994,46.994,0,0,1,9.4,3.279,30.045,30.045,0,0,1,8.245,5.635.932.932,0,0,1-.859,1.568l-.057-.013c-6.3-1.413-12.106-3.4-18.078-4.812a58.343,58.343,0,0,0-9-1.6,42.254,42.254,0,0,0-9.04.145,35.839,35.839,0,0,0-16.539,6.257c-4.849,3.387-8.949,8.149-12.539,13.152a84.36,84.36,0,0,0-8.942,16.259,74.259,74.259,0,0,0-5.086,17.747,36.081,36.081,0,0,0-.3,8.869,12.661,12.661,0,0,0,.953,3.819,3.775,3.775,0,0,0,1.769,2.04,6.071,6.071,0,0,0,6.375-.845,12.828,12.828,0,0,0,2.67-2.888,19.066,19.066,0,0,0,1.1-1.789,17.663,17.663,0,0,0,.867-1.826l.007-.017a2.727,2.727,0,0,1,3.534-1.545,2.86,2.86,0,0,1,.523.274c.581.389,1.373.841,2.088,1.23.74.4,1.5.764,2.259,1.118a35.024,35.024,0,0,0,4.7,1.716,19.965,19.965,0,0,0,9.433.549l1.115-.247,1.06-.393a14.7,14.7,0,0,0,2.107-.964,19.353,19.353,0,0,0,3.772-2.827,21.063,21.063,0,0,0,3.055-3.7,22.544,22.544,0,0,0,1.217-2.092c.187-.356.356-.72.516-1.08.154-.341.32-.765.4-1l.008-.022a2.734,2.734,0,0,1,3.485-1.675,2.771,2.771,0,0,1,1.048.667c.859.877,1.93,1.847,2.961,2.719,1.051.884,2.13,1.739,3.242,2.547a53.351,53.351,0,0,0,6.977,4.32,34.524,34.524,0,0,0,15.326,4.149,25.671,25.671,0,0,0,7.71-1.079,28.451,28.451,0,0,0,7.093-3.36c.545-.38,1.123-.7,1.644-1.127l1.581-1.236c.521-.416.966-.9,1.455-1.337a13.993,13.993,0,0,0,1.392-1.385l1.261-1.49.316-.371.265-.405.533-.807a24.188,24.188,0,0,0,1.873-3.371,26.234,26.234,0,0,0,1.885-7.505,33.456,33.456,0,0,0-.315-7.951,55.486,55.486,0,0,0-5.238-15.551,147.237,147.237,0,0,0-8.3-14.612c-3.021-4.767-6.162-9.5-9.1-14.487l-.013-.021a.919.919,0,0,1,1.331-1.212Z" transform="translate(-2048.93 -2290.408)"/></g></g><g transform="translate(980.857 1540.094)"><g transform="translate(0 0)"><path class="c" d="M2131.4,2610.361a52.9,52.9,0,0,0,3.119,7.211c.579,1.1,1.277,2.069,1.9,3.028.636.961,1.34,1.775,1.959,2.735l.163.252a2.346,2.346,0,0,1-3.323,3.189,10.685,10.685,0,0,1-3.118-3.525,15.091,15.091,0,0,1-1.546-4.268,20.1,20.1,0,0,1-.418-4.356,16.451,16.451,0,0,1,.6-4.266.347.347,0,0,1,.659-.022Z" transform="translate(-2130.125 -2610.111)"/></g></g><g transform="translate(1021.08 1531.025)"><g transform="translate(0 0)"><path class="c" d="M2348.482,2561.76a15.215,15.215,0,0,1,1.544,3.656,22.789,22.789,0,0,1,.712,3.891,20.293,20.293,0,0,1,.043,3.926,12.709,12.709,0,0,1-.927,3.858,2.362,2.362,0,0,1-4.529-.96l0-.2a20.341,20.341,0,0,1,.436-3.412c.208-1.145.514-2.281.769-3.436s.494-2.316.716-3.5.386-2.392.583-3.674l0-.015a.352.352,0,0,1,.649-.128Z" transform="translate(-2345.326 -2561.59)"/></g></g><g transform="translate(1038.116 1491.659)"><g transform="translate(0 0)"><path class="c" d="M2461.038,2420.868a2.337,2.337,0,0,1-2.005-3.531c14.509-24.388-21.537-62.021-21.9-62.4a2.337,2.337,0,0,1,3.354-3.254c1.6,1.644,38.9,40.587,22.565,68.041A2.336,2.336,0,0,1,2461.038,2420.868Z" transform="translate(-2436.47 -2350.977)"/></g></g></g></svg>